# Blender3D v249 OBJ File: ah.blend
# www.blender3d.org
mtllib ah.mtl
o Frame
v -0.999998 -0.052709 1.878305
v -0.999998 -0.052709 -0.000000
v 0.999998 -0.052709 0.000000
v 0.999998 -0.052709 1.878305
v -0.999998 0.052710 1.878307
v -0.999997 0.052709 0.000001
v 0.999999 0.052709 0.000003
v 0.999998 0.052710 1.878307
vt 0.047383 0.535664
vt 0.483867 0.535664
vt 0.483867 0.972148
vt 0.047383 0.972148
vn 0.000000 -1.000000 0.000000
vn 0.000000 1.000000 -0.000000
vn -1.000000 0.000003 -0.000000
vn 0.000000 0.000020 -1.000000
vn 1.000000 -0.000005 0.000000
vn -0.000000 -0.000018 1.000000
usemtl None_dresser.png
s off
f 1/1/1 2/2/1 3/3/1 4/4/1
f 5/1/2 8/2/2 7/3/2 6/4/2
f 1/1/3 5/2/3 6/3/3 2/4/3
f 2/1/4 6/2/4 7/3/4 3/4/4
f 3/1/5 7/2/5 8/3/5 4/4/5
f 5/1/6 1/2/6 4/3/6 8/4/6
o House
v 3.000000 -0.000000 0.000000
v 3.000000 -4.000000 0.000000
v -3.000000 -4.000000 0.000000
v -3.000000 0.000000 0.000000
v -3.000000 0.000000 4.000000
v -3.000000 -4.000000 4.000000
v 3.000000 -4.000000 4.000000
v 3.000000 -0.000000 4.000000
v -0.000000 -2.000000 6.000000
v 1.000000 -4.000000 0.000000
v -1.000000 -4.000000 0.000000
v 1.000000 0.000000 0.000000
v -1.000000 0.000000 0.000000
v -1.000000 0.000000 4.000000
v 1.000000 -0.000000 4.000000
v -1.000000 -4.000000 4.000000
v 1.000000 -4.000000 4.000000
v -3.000000 0.000000 1.682374
v -3.000000 0.000000 2.830382
v -3.000000 -4.000000 1.333333
v -3.000000 -4.000000 2.666667
v 3.000000 -0.000000 1.682374
v 3.000000 -0.000000 2.830382
v 3.000000 -4.000000 1.333333
v 3.000000 -4.000000 2.666667
v -1.000000 0.000000 2.830381
v -1.000000 0.000000 1.682373
v 1.000000 -0.000000 2.830381
v 1.000000 0.000000 1.682373
v 1.000000 -4.000000 1.333333
v 1.000000 -4.000000 2.666667
v -1.000000 -4.000000 2.666667
v -1.000000 -4.000000 1.333333
v 2.196897 -0.000000 3.164913
v 2.196897 -0.000000 3.665469
v 1.803103 -0.000000 3.665469
v 1.803103 -0.000000 3.164912
v 2.196897 -0.000000 2.010724
v 2.196897 -0.000000 2.502031
v 1.803103 -0.000000 2.502031
v 1.803103 -0.000000 2.010724
v 0.196897 0.000000 3.164912
v 0.196897 0.000000 3.665469
v -0.196897 0.000000 3.665469
v -0.196897 0.000000 3.164912
v 0.196897 0.000000 2.010724
v 0.196897 0.000000 2.502031
v -0.196897 0.000000 2.502031
v -0.196897 0.000000 2.010724
v -1.803102 0.000000 3.164912
v -1.803102 0.000000 3.665469
v -2.196897 0.000000 3.665469
v -2.196897 0.000000 3.164913
v -1.803102 0.000000 2.010724
v -1.803102 0.000000 2.502031
v -2.196897 0.000000 2.502031
v -2.196897 0.000000 2.010724
vt 0.950177 0.761974
vt 0.506984 0.870221
vt 0.950177 0.978469
vt 0.063791 0.978469
vt 0.063791 0.761974
vt 0.654695 0.994782
vt 0.359274 0.994782
vt 0.359274 0.745660
vt 0.654695 0.745661
vt 0.914279 0.121822
vt 0.443871 0.121822
vt 0.443871 0.278624
vt 0.914279 0.319672
vt 0.443871 0.435427
vt 0.914279 0.454680
vt 0.443871 0.592230
vt 0.914279 0.592230
vt 0.165506 0.126420
vt 0.165506 0.587632
vt 0.359489 0.587632
vt 0.319244 0.126420
vt 0.491858 0.587632
vt 0.472981 0.126420
vt 0.626718 0.587631
vt 0.626718 0.126420
vt 0.432753 0.085987
vt 0.181603 0.086633
vt 0.182394 0.298006
vt 0.432445 0.296898
vt 0.684891 0.086819
vt 0.684064 0.298320
vt 0.936066 0.088127
vt 0.934935 0.299461
vt 0.695034 0.597684
vt 0.947419 0.597684
vt 0.947419 0.429427
vt 0.695034 0.429427
vt 0.947419 0.261170
vt 0.695034 0.261170
vt 0.947419 0.092914
vt 0.695034 0.092914
vt 0.442650 0.597684
vt 0.442649 0.429427
vt 0.442649 0.261171
vt 0.442649 0.092914
vt 0.190265 0.597684
vt 0.190264 0.429428
vt 0.190264 0.261171
vt 0.190264 0.092914
vt 0.935603 0.589122
vt 0.934666 0.442878
vt 0.836034 0.485202
vt 0.836446 0.548216
vt 0.684672 0.591847
vt 0.785706 0.548873
vt 0.684323 0.443802
vt 0.785386 0.485244
vt 0.158869 0.462933
vt 0.057799 0.462933
vt 0.057799 0.660225
vt 0.158869 0.660225
vt 0.836331 0.340244
vt 0.836279 0.402092
vt 0.785300 0.402423
vt 0.785407 0.339856
vt 0.156803 0.463822
vt 0.055733 0.463822
vt 0.055733 0.657468
vt 0.156803 0.657468
vt 0.584180 0.485201
vt 0.583543 0.548907
vt 0.432033 0.589701
vt 0.532493 0.548236
vt 0.432612 0.441817
vt 0.533199 0.484559
vt 0.155185 0.465833
vt 0.054115 0.465833
vt 0.054115 0.663124
vt 0.155185 0.663124
vt 0.584243 0.339194
vt 0.583645 0.401782
vt 0.532427 0.401127
vt 0.533039 0.338613
vt 0.154961 0.468085
vt 0.053891 0.468085
vt 0.053891 0.661731
vt 0.154961 0.661731
vt 0.331605 0.483311
vt 0.331255 0.546785
vt 0.181602 0.586957
vt 0.280637 0.546116
vt 0.182814 0.441186
vt 0.281078 0.483282
vt 0.154521 0.467048
vt 0.056846 0.467048
vt 0.056846 0.657710
vt 0.154521 0.657710
vt 0.331683 0.338265
vt 0.331721 0.400626
vt 0.280927 0.400355
vt 0.280840 0.338670
vt 0.158645 0.466579
vt 0.057574 0.466579
vt 0.057575 0.660225
vt 0.158645 0.660225
vn 0.554700 -0.000000 0.832050
vn -0.554700 0.000000 0.832050
vn 0.000000 -0.707107 0.707107
vn 0.000000 0.707107 0.707107
vn -1.000000 0.000000 0.000000
vn 1.000000 -0.000000 0.000000
usemtl None_ah.png
s off
f 16/5/7 17/6/7 15/7/7
f 14/8/8 17/6/8 13/9/8
f 15/7/9 17/6/9 25/10/9
f 25/10/9 17/6/9 24/11/9
f 24/11/9 17/6/9 14/8/9
f 13/9/10 17/6/10 22/12/10
f 22/12/10 17/6/10 23/13/10
f 23/13/10 17/6/10 16/5/10
f 12/14/11 11/15/11 28/16/11 26/17/11
f 26/17/11 28/16/11 29/18/11 27/19/11
f 27/19/11 29/18/11 14/20/11 13/21/11
f 10/22/12 9/23/12 30/24/12 32/25/12
f 32/25/12 30/24/12 31/26/12 33/27/12
f 33/27/12 31/26/12 16/28/12 15/29/12
f 21/30/2 12/31/2 26/32/2 35/33/2
f 20/34/2 21/30/2 35/33/2 37/35/2
f 9/36/2 20/34/2 37/35/2 30/37/2
f 18/38/1 10/39/1 32/40/1 38/41/1
f 38/41/1 32/40/1 33/42/1 39/43/1
f 39/43/1 33/42/1 15/44/1 25/45/1
f 19/46/1 18/38/1 38/41/1 41/47/1
f 41/47/1 38/41/1 39/43/1 40/48/1
f 40/48/1 39/43/1 25/45/1 24/49/1
f 11/50/1 19/46/1 41/47/1 28/51/1
f 28/51/1 41/47/1 40/48/1 29/52/1
f 29/52/1 40/48/1 24/49/1 14/53/1
f 16/54/2 31/55/2 42/56/2 43/57/2
f 23/58/2 16/54/2 43/57/2 44/59/2
f 36/60/2 23/58/2 44/59/2 45/61/2
f 31/55/2 36/60/2 45/61/2 42/56/2
f 42/62/2 45/63/2 44/64/2 43/65/2
f 31/55/2 30/37/2 46/66/2 47/67/2
f 36/60/2 31/55/2 47/67/2 48/68/2
f 37/35/2 36/60/2 48/68/2 49/69/2
f 30/37/2 37/35/2 49/69/2 46/66/2
f 46/70/2 49/71/2 48/72/2 47/73/2
f 23/58/2 36/60/2 50/74/2 51/75/2
f 22/76/2 23/58/2 51/75/2 52/77/2
f 34/78/2 22/76/2 52/77/2 53/79/2
f 36/60/2 34/78/2 53/79/2 50/74/2
f 50/80/2 53/81/2 52/82/2 51/83/2
f 36/60/2 37/35/2 54/84/2 55/85/2
f 34/78/2 36/60/2 55/85/2 56/86/2
f 35/33/2 34/78/2 56/86/2 57/87/2
f 37/35/2 35/33/2 57/87/2 54/84/2
f 54/88/2 57/89/2 56/90/2 55/91/2
f 22/76/2 34/78/2 58/92/2 59/93/2
f 13/94/2 22/76/2 59/93/2 60/95/2
f 27/96/2 13/94/2 60/95/2 61/97/2
f 34/78/2 27/96/2 61/97/2 58/92/2
f 58/98/2 61/99/2 60/100/2 59/101/2
f 34/78/2 35/33/2 62/102/2 63/103/2
f 27/96/2 34/78/2 63/103/2 64/104/2
f 26/32/2 27/96/2 64/104/2 65/105/2
f 35/33/2 26/32/2 65/105/2 62/102/2
f 62/106/2 65/107/2 64/108/2 63/109/2
