# Blender3D v249 OBJ File: bar-corner.blend
# www.blender3d.org
mtllib bar-corner.mtl
o Plane
v -0.100000 -0.100000 0.000000
v -0.100000 -1.000000 0.000000
v -1.000000 -0.100000 0.000000
v -1.000000 -1.000000 1.000000
v -1.000000 -0.100000 1.000000
v -0.100000 -0.100000 1.000000
v -0.100000 -1.000000 1.000000
v -1.000000 -0.100000 0.902000
v -0.100000 -0.100000 0.902000
v -0.100000 -1.000000 0.902000
v 0.000000 -0.000000 0.902000
v -0.000000 -1.000000 0.902000
v -0.000000 -1.000000 1.000000
v 0.000000 -0.000000 1.000000
v -1.000000 -0.100000 0.902000
v -1.000000 -0.000000 0.902000
v -1.000000 -0.100000 1.000000
v -1.000000 -0.000000 1.000000
vt 0.662878 0.913317
vt 0.662637 0.696370
vt 0.445690 0.696611
vt 0.445931 0.913558
vt 0.027628 0.510668
vt 0.245220 0.517530
vt 0.235294 0.832314
vt 0.017701 0.825452
vt 0.235160 0.860365
vt 0.017109 0.854052
vt 0.018238 0.923674
vt 0.017109 0.895190
vt 0.235043 0.884731
vt 0.234910 0.912737
vt 0.452931 0.827533
vt 0.453250 0.856134
vt 0.452857 0.897268
vt 0.451457 0.925738
vt 0.462813 0.524392
vt 0.452886 0.839176
vn 0.000000 0.000000 1.000000
vn 1.000000 -0.000000 0.000000
vn 0.000000 0.000000 -1.000000
vn 0.000000 1.000000 0.000000
usemtl None_doubledoors.png
s off
f 5/1/1 4/2/1 7/3/1 6/4/1
f 2/5/2 1/6/2 9/7/2 10/8/2
f 9/7/3 11/9/3 12/10/3 10/8/3
f 7/11/1 13/12/1 14/13/1 6/14/1
f 12/10/2 11/9/2 14/13/2 13/12/2
f 11/9/3 9/7/3 15/15/3 16/16/3
f 6/14/1 14/13/1 18/17/1 17/18/1
f 11/9/4 16/16/4 18/17/4 14/13/4
f 1/6/4 3/19/4 8/20/4 9/7/4
