# Blender3D v249 OBJ File: bed.blend
# www.blender3d.org
mtllib bed.mtl
o Blanket
v 0.458043 0.754119 0.331051
v 0.458043 -0.865594 0.377267
v -0.458043 -0.865594 0.377267
v -0.458043 0.754120 0.331051
v -0.593965 -0.865593 0.239386
v -0.593965 0.864173 0.193171
v 0.593965 0.864173 0.193171
v 0.593965 -0.865593 0.239386
v 0.458043 -0.608663 0.331051
v -0.458043 -0.608663 0.331051
v -0.593965 -0.553636 0.193171
v 0.593965 -0.553636 0.193171
v 0.000000 -0.865594 0.402697
v 0.000000 0.754120 0.336417
v 0.000000 0.864173 0.193171
v 0.000000 -0.608663 0.356482
vt 0.946700 0.125526
vt 0.879687 0.123890
vt 0.862219 0.074676
vt 0.942430 0.076890
vt 0.551986 0.135202
vt 0.515481 0.091666
vt 0.551986 0.348156
vt 0.879687 0.359468
vt 0.862219 0.408683
vt 0.515480 0.391692
vt 0.946700 0.357833
vt 0.942430 0.406468
vt 0.546364 0.241679
vt 0.498856 0.241679
vt 0.879765 0.241679
vt 0.946498 0.241679
vn -0.400494 0.155828 0.902921
vn -0.391034 0.079104 0.916959
vn -0.705161 0.057680 0.706656
vn -0.695822 0.115177 0.708914
vn -0.296213 0.338450 0.893124
vn -0.422101 0.464217 0.778649
vn 0.296213 0.338450 0.893124
vn 0.391034 0.079104 0.916959
vn 0.705161 0.057680 0.706656
vn 0.422101 0.464217 0.778649
vn 0.400494 0.155828 0.902921
vn 0.695822 0.115177 0.708914
vn 0.000000 0.426649 0.904386
vn 0.000000 0.786615 0.617389
vn 0.000000 0.099338 0.995025
vn 0.000000 0.177007 0.984191
usemtl None_1900bed.png
s 1
f 3/1/1 10/2/2 11/3/3 5/4/4
f 10/2/2 4/5/5 6/6/6 11/3/3
f 1/7/7 9/8/8 12/9/9 7/10/10
f 9/8/8 2/11/11 8/12/12 12/9/9
f 4/5/5 14/13/13 15/14/14 6/6/6
f 14/13/13 1/7/7 7/10/10 15/14/14
f 1/7/7 14/13/13 16/15/15 9/8/8
f 14/13/13 4/5/5 10/2/2 16/15/15
f 3/1/1 13/16/16 16/15/15 10/2/2
f 13/16/16 2/11/11 9/8/8 16/15/15
o Pillow
v -0.000000 -1.128654 0.373534
v 0.000000 -0.844510 0.373534
v -0.000000 -0.915546 0.418407
v -0.000000 -1.057618 0.418407
v -0.000000 -0.915546 0.328661
v -0.000000 -1.057618 0.328661
v 0.220674 -0.915546 0.373534
v 0.220674 -1.057618 0.373534
v -0.220674 -1.057618 0.373534
v -0.220674 -0.915546 0.373534
v -0.000000 -1.110895 0.407189
v 0.000000 -0.862269 0.407189
v -0.000000 -1.110895 0.339879
v 0.000000 -0.862269 0.339879
v 0.180316 -1.110895 0.373534
v 0.180316 -0.862269 0.373534
v -0.180316 -1.110895 0.373534
v -0.180316 -0.862269 0.373534
v 0.165505 -0.915546 0.407189
v 0.165505 -1.057618 0.407189
v -0.165505 -1.057618 0.407189
v -0.165505 -0.915546 0.407189
v 0.165505 -0.915546 0.339879
v 0.165505 -1.057618 0.339879
v -0.165506 -1.057618 0.339879
v -0.165505 -0.915546 0.339879
v -0.000000 -0.986582 0.418407
v -0.000000 -0.986582 0.328661
v 0.205863 -0.986582 0.373534
v -0.205863 -0.986582 0.373534
v 0.129179 -0.876081 0.398463
v 0.129179 -1.097082 0.398463
v -0.129179 -1.097082 0.398463
v -0.129179 -0.876081 0.398463
v 0.129179 -0.876081 0.348604
v 0.129179 -1.097082 0.348604
v -0.129179 -1.097082 0.348604
v -0.129179 -0.876081 0.348604
v 0.154397 -0.986582 0.407189
v -0.154397 -0.986582 0.407189
v 0.154397 -0.986582 0.339879
v -0.154397 -0.986582 0.339879
vt 0.751017 0.749725
vt 0.891102 0.763166
vt 0.848335 0.774901
vt 0.751016 0.769407
vt 0.752578 0.912775
vt 0.752578 0.893092
vt 0.849897 0.887599
vt 0.892664 0.899334
vt 0.612492 0.899335
vt 0.655259 0.887599
vt 0.653697 0.774900
vt 0.610930 0.763165
vt 0.751015 0.912500
vt 0.892664 0.763440
vt 0.849897 0.775176
vt 0.752578 0.769683
vt 0.751015 0.892817
vt 0.848334 0.887324
vt 0.891102 0.899060
vt 0.610929 0.899059
vt 0.653696 0.887324
vt 0.655259 0.775176
vt 0.612492 0.763441
vt 0.751015 0.865897
vt 0.875162 0.867151
vt 0.751016 0.831112
vt 0.868646 0.831113
vt 0.626869 0.867150
vt 0.633386 0.831112
vt 0.751016 0.796328
vt 0.875163 0.795075
vt 0.626870 0.795074
vt 0.752578 0.796603
vt 0.628431 0.795349
vt 0.752578 0.831387
vt 0.634948 0.831388
vt 0.876725 0.795349
vt 0.870208 0.831387
vt 0.752578 0.866172
vt 0.628431 0.867426
vt 0.876725 0.867425
vt 0.925692 0.870588
vt 0.918669 0.831113
vt 0.927254 0.791912
vt 0.920231 0.831387
vt 0.927254 0.870862
vt 0.925692 0.791638
vt 0.577902 0.870863
vt 0.584925 0.831388
vt 0.576340 0.791636
vt 0.583363 0.831112
vt 0.577902 0.791913
vt 0.576339 0.870587
vn 0.000000 -1.000000 0.000000
vn 0.430280 -0.902676 0.000000
vn 0.189856 -0.553087 0.811182
vn 0.000000 -0.588977 0.808100
vn 0.000000 -0.588977 -0.808100
vn 0.189856 -0.553087 -0.811182
vn -0.430280 -0.902676 0.000000
vn -0.189856 -0.553087 -0.811182
vn -0.189856 -0.553087 0.811182
vn 0.000000 1.000000 0.000000
vn 0.430280 0.902676 0.000000
vn 0.189856 0.553087 -0.811182
vn 0.000000 0.588977 -0.808100
vn 0.000000 0.588977 0.808100
vn 0.189856 0.553087 0.811182
vn -0.430280 0.902676 0.000000
vn -0.189856 0.553087 0.811182
vn -0.189856 0.553087 -0.811182
vn 0.000000 0.119694 0.992798
vn 0.319041 0.133518 0.938261
vn 0.000000 0.000000 1.000000
vn 0.346782 0.000000 0.937925
vn -0.319041 0.133518 0.938261
vn -0.346782 0.000000 0.937925
vn 0.000000 -0.119694 0.992798
vn 0.319041 -0.133518 0.938261
vn -0.319041 -0.133518 0.938261
vn 0.000000 0.119694 -0.992798
vn -0.319041 0.133518 -0.938261
vn 0.000000 0.000000 -1.000000
vn -0.346782 0.000000 -0.937925
vn 0.319041 0.133518 -0.938261
vn 0.346782 0.000000 -0.937925
vn 0.000000 -0.119694 -0.992798
vn -0.319041 -0.133518 -0.938261
vn 0.319041 -0.133518 -0.938261
vn 0.950987 0.309122 0.000000
vn 1.000000 0.000000 0.000000
vn 0.950987 -0.309122 0.000000
vn -0.950987 -0.309122 0.000000
vn -1.000000 0.000000 0.000000
vn -0.950987 0.309122 0.000000
usemtl None_1900bed.png
s 1
f 17/17/17 31/18/18 48/19/19 27/20/20
f 17/21/17 29/22/21 52/23/22 31/24/18
f 17/21/17 33/25/23 53/26/24 29/22/21
f 17/17/17 27/20/20 49/27/25 33/28/23
f 18/29/26 32/30/27 51/31/28 30/32/29
f 18/29/26 28/33/30 47/34/31 32/35/27
f 18/29/26 34/36/32 50/37/33 28/33/30
f 18/29/26 30/32/29 54/38/34 34/39/32
f 19/40/35 35/41/36 47/34/31 28/33/30
f 19/40/35 43/42/37 55/43/38 35/41/36
f 19/40/35 38/44/39 56/45/40 43/42/37
f 19/40/35 28/33/30 50/37/33 38/44/39
f 20/46/41 36/47/42 55/43/38 43/42/37
f 20/46/41 27/20/20 48/19/19 36/47/42
f 20/46/41 37/48/43 49/27/25 27/20/20
f 20/46/41 43/42/37 56/45/40 37/48/43
f 21/49/44 42/50/45 54/38/34 30/32/29
f 21/49/44 44/51/46 58/52/47 42/50/45
f 21/49/44 39/53/48 57/54/49 44/51/46
f 21/49/44 30/32/29 51/31/28 39/53/48
f 22/55/50 41/56/51 58/52/47 44/51/46
f 22/55/50 29/22/21 53/26/24 41/56/51
f 22/55/50 40/57/52 52/23/22 29/22/21
f 22/55/50 44/51/46 57/54/49 40/57/52
f 23/58/53 35/41/36 55/43/38 45/59/54
f 23/58/53 32/35/27 47/34/31 35/41/36
f 23/60/53 39/53/48 51/31/28 32/30/27
f 23/60/53 45/61/54 57/54/49 39/53/48
f 24/62/55 40/57/52 57/54/49 45/61/54
f 24/62/55 31/24/18 52/23/22 40/57/52
f 24/63/55 36/47/42 48/19/19 31/18/18
f 24/63/55 45/59/54 55/43/38 36/47/42
f 25/64/56 41/56/51 53/26/24 33/25/23
f 25/64/56 46/65/57 58/52/47 41/56/51
f 25/66/56 37/48/43 56/45/40 46/67/57
f 25/66/56 33/28/23 49/27/25 37/48/43
f 26/68/58 42/50/45 58/52/47 46/65/57
f 26/68/58 34/39/32 54/38/34 42/50/45
f 26/69/58 38/44/39 50/37/33 34/36/32
f 26/69/58 46/67/57 56/45/40 38/44/39
o Frame
v 0.630000 0.950000 0.100000
v 0.630000 -1.250000 0.100000
v -0.630000 -1.250000 0.100000
v -0.630000 0.950000 0.100000
v 0.580329 -1.250000 0.100000
v 0.630000 -1.200887 0.100000
v 0.580330 0.950000 0.100000
v -0.630000 -1.200887 0.100000
v 0.580329 -1.200887 0.100000
v -0.581074 -1.250000 0.100000
v 0.630000 0.899983 0.100000
v -0.581074 0.950000 0.100000
v -0.630000 0.899983 0.100000
v -0.581074 -1.200887 0.100000
v 0.580329 0.899983 0.100000
v -0.581074 0.899983 0.100000
v 0.630000 -1.250000 -0.008688
v 0.630000 -1.200887 -0.008688
v -0.630000 -1.250000 -0.008688
v -0.630000 -1.200887 -0.008688
v -0.581074 -1.250000 -0.008688
v -0.581074 -1.200887 -0.008688
v 0.580329 -1.250000 -0.008688
v 0.580329 -1.200887 -0.008688
v 0.630000 0.950000 -0.008688
v 0.580330 0.950000 -0.008688
v 0.630000 0.899983 -0.008688
v 0.580329 0.899983 -0.008688
v -0.581074 0.950000 -0.008688
v -0.581074 0.899983 -0.008688
v -0.630000 0.899983 -0.008688
v -0.630000 0.950000 -0.008688
v -0.581074 0.899983 0.183206
v 0.580329 0.899983 0.183206
v -0.581074 -1.200887 0.183206
v -0.630000 0.899983 0.183206
v -0.581074 0.950000 0.183206
v 0.630000 0.899983 0.183206
v -0.581074 -1.250000 0.183206
v 0.580329 -1.200887 0.183206
v -0.630000 -1.200887 0.183206
v 0.580330 0.950000 0.183206
v 0.630000 -1.200887 0.183206
v 0.580329 -1.250000 0.183206
v -0.630000 0.950000 0.183206
v -0.630000 -1.250000 0.183206
v 0.630000 -1.250000 0.183206
v 0.630000 0.950000 0.183206
v -0.581074 -1.200887 0.482066
v 0.580329 -1.200887 0.482066
v -0.581074 -1.250000 0.482066
v -0.630000 -1.250000 0.482066
v 0.580329 -1.250000 0.482066
v -0.630000 -1.200887 0.482066
v 0.630000 -1.200887 0.482066
v 0.630000 -1.250000 0.482066
v -0.000372 -1.250000 0.100000
v -0.000372 -1.250000 0.183206
v -0.000372 -1.200887 0.183206
v -0.000372 -1.200887 0.667949
v -0.000372 -1.250000 0.667949
v 0.289979 -1.250000 0.100000
v -0.290723 -1.250000 0.100000
v -0.290723 -1.250000 0.183206
v 0.289979 -1.250000 0.183206
v -0.290723 -1.200887 0.183206
v 0.289979 -1.200887 0.183206
v -0.290723 -1.200887 0.667949
v 0.289979 -1.200887 0.667949
v -0.290723 -1.250000 0.667949
v 0.289979 -1.250000 0.667949
vt 0.295602 0.723014
vt 0.262703 0.723013
vt 0.262702 0.760366
vt 0.295602 0.760367
vt 0.147052 0.723011
vt 0.114153 0.723015
vt 0.114154 0.760368
vt 0.147053 0.760364
vt 0.224507 0.850201
vt 0.219528 0.822672
vt 0.210974 0.829501
vt 0.210704 0.851099
vt 0.224946 0.793970
vt 0.225060 0.772210
vt 0.214566 0.767268
vt 0.213189 0.793602
vt 0.381401 0.629723
vt 0.366366 0.662623
vt 0.366366 0.629723
vt 0.423455 0.564050
vt 0.423455 0.531150
vt 0.408420 0.531150
vt 0.408420 0.564050
vt 0.236845 0.793711
vt 0.235722 0.767336
vt 0.332350 0.725666
vt 0.332420 0.698579
vt 0.319183 0.692402
vt 0.317517 0.725248
vt 0.382938 0.962837
vt 0.383118 0.946074
vt 0.374924 0.941838
vt 0.373232 0.962576
vt 0.453119 0.698911
vt 0.448211 0.671917
vt 0.439861 0.678625
vt 0.439633 0.699793
vt 0.396638 0.631859
vt 0.395461 0.605817
vt 0.384885 0.610686
vt 0.384830 0.632136
vt 0.425281 0.760500
vt 0.425551 0.738902
vt 0.415214 0.733512
vt 0.413061 0.760180
vt 0.396641 0.795495
vt 0.396641 0.769441
vt 0.384651 0.769441
vt 0.384651 0.795495
vt 0.434820 0.862193
vt 0.434820 0.829293
vt 0.420011 0.829293
vt 0.420011 0.862193
vt 0.335720 0.601793
vt 0.335720 0.625184
vt 0.346485 0.625184
vt 0.346485 0.601793
vt 0.172166 0.634497
vt 0.157358 0.667397
vt 0.157356 0.634498
vt 0.512288 0.323878
vt 0.501626 0.328752
vt 0.491132 0.323810
vt 0.501861 0.311667
vt 0.487540 0.386043
vt 0.477202 0.380653
vt 0.485965 0.370485
vt 0.496093 0.379214
vt 0.489939 0.000000
vt 0.503130 0.015324
vt 0.489776 0.021471
vt 0.476539 0.015293
vt 0.477198 0.439626
vt 0.485661 0.429615
vt 0.495895 0.438267
vt 0.487545 0.444975
vt 0.320788 0.760368
vt 0.320788 0.723015
vt 0.172239 0.760362
vt 0.172239 0.723009
vt 0.434818 0.626985
vt 0.435120 0.648960
vt 0.448621 0.648960
vt 0.448621 0.626087
vt 0.212915 0.813830
vt 0.224852 0.813944
vt 0.366366 0.687809
vt 0.381401 0.662623
vt 0.381401 0.687809
vt 0.408420 0.589236
vt 0.423455 0.589236
vt 0.468132 0.689066
vt 0.468039 0.709039
vt 0.480115 0.709040
vt 0.480031 0.688807
vt 0.317257 0.750340
vt 0.332236 0.750495
vt 0.432146 0.647011
vt 0.431698 0.668629
vt 0.444693 0.668898
vt 0.444402 0.647341
vt 0.434865 0.609194
vt 0.435156 0.630751
vt 0.448351 0.630751
vt 0.448351 0.608312
vt 0.347372 0.750495
vt 0.347261 0.725316
vt 0.412625 0.782218
vt 0.425583 0.782475
vt 0.474808 0.961853
vt 0.010552 0.961853
vt 0.016027 0.879466
vt 0.480283 0.879466
vt 0.293977 0.598158
vt 0.293977 0.623344
vt 0.309117 0.598158
vt 0.420355 0.793847
vt 0.068804 0.793847
vt 0.066689 0.747843
vt 0.418241 0.747843
vt 0.420011 0.887379
vt 0.434820 0.887379
vt 0.021085 0.864068
vt 0.473217 0.864068
vt 0.476733 0.923129
vt 0.024602 0.923129
vt 0.408420 0.587756
vt 0.408420 0.612942
vt 0.423560 0.612942
vt 0.423560 0.587756
vt 0.153382 0.987918
vt 0.153382 0.973108
vt 0.178568 0.973107
vt 0.178568 0.987917
vt 0.041645 0.586510
vt 0.363996 0.586510
vt 0.360336 0.628303
vt 0.037985 0.628303
vt 0.428931 0.822879
vt 0.432028 0.871672
vt 0.058313 0.871672
vt 0.055216 0.822879
vt 0.425837 0.567489
vt 0.428931 0.616282
vt 0.055216 0.616282
vt 0.052122 0.567489
vt 0.451333 0.881671
vt 0.451333 0.866531
vt 0.466143 0.866531
vt 0.466143 0.881671
vt 0.466473 0.883142
vt 0.451333 0.883142
vt 0.451333 0.898177
vt 0.466473 0.898177
vt 0.269032 0.973105
vt 0.269032 0.987915
vt 0.180671 0.636280
vt 0.180671 0.621470
vt 0.271135 0.621470
vt 0.271135 0.636279
vt 0.342376 0.865540
vt 0.327341 0.775077
vt 0.342376 0.775077
vt 0.381402 0.778273
vt 0.366367 0.778273
vt 0.262702 0.760362
vt 0.262702 0.723009
vt 0.411252 0.760366
vt 0.411252 0.723013
vt 0.034648 0.784156
vt 0.034650 0.769289
vt 0.452534 0.769289
vt 0.452532 0.784156
vt 0.447557 0.768491
vt 0.033747 0.768491
vt 0.033747 0.783357
vt 0.447557 0.783357
vt 0.461330 0.776803
vt 0.022820 0.979350
vt 0.022820 0.574256
vt 0.153382 0.973107
vt 0.153380 0.885219
vt 0.178566 0.885219
vt 0.153379 0.797330
vt 0.178565 0.797330
vt 0.153378 0.709442
vt 0.178564 0.709442
vt 0.153377 0.621554
vt 0.178563 0.621554
vt 0.461330 0.574257
vt 0.461330 0.675530
vt 0.461330 0.878077
vt 0.461330 0.979351
vt 0.180671 0.987831
vt 0.180671 0.899943
vt 0.327401 0.899943
vt 0.271135 0.987831
vt 0.180671 0.812055
vt 0.327401 0.812055
vt 0.180671 0.724167
vt 0.327401 0.724167
vt 0.325297 0.885216
vt 0.325295 0.797328
vt 0.325294 0.709440
vt 0.269027 0.621553
vt 0.453454 0.782638
vt 0.037562 0.782638
vt 0.037562 0.767921
vt 0.453454 0.767921
vt 0.391360 0.812371
vt 0.037562 0.812371
vt 0.037562 0.797505
vt 0.391360 0.797505
vt 0.037562 0.782639
vt 0.391360 0.782638
vt 0.037562 0.753203
vt 0.453454 0.753203
vn 1.000000 -0.000001 0.000000
vn -1.000000 0.000001 0.000000
vn 0.000002 1.000000 0.000000
vn -0.000002 -1.000000 0.000000
vn 0.539174 -0.000000 0.842194
vn -0.539174 0.000000 0.842194
usemtl None_1900bed.png
s off
f 60/70/59 75/71/59 76/72/59 64/73/59
f 66/74/60 78/75/60 77/76/60 61/77/60
f 68/78/59 79/79/59 80/80/59 72/81/59
f 67/82/57 82/83/57 81/84/57 63/85/57
f 63/86/17 81/87/17 75/88/17 60/86/17
f 59/89/61 83/90/61 84/91/61 65/92/61
f 64/93/26 76/94/26 82/83/26 67/82/26
f 73/95/17 86/96/17 85/97/17 69/98/17
f 74/99/54 88/100/54 87/101/54 70/102/54
f 71/103/62 89/104/62 88/105/62 74/106/62
f 65/107/60 84/108/60 86/109/60 73/110/60
f 72/111/26 80/112/26 78/113/26 66/114/26
f 62/115/60 90/116/60 89/117/60 71/118/60
f 70/119/26 87/120/26 90/121/26 62/122/26
f 83/123/54 59/124/54 69/125/54 85/126/54
f 61/127/17 77/128/17 79/129/17 68/127/17
f 76/130/37 82/131/37 81/132/37 75/133/37
f 80/134/37 78/135/37 77/136/37 79/137/37
f 83/138/37 84/139/37 86/140/37 85/141/37
f 87/142/37 90/143/37 89/144/37 88/145/37
f 60/73/59 64/146/59 101/147/59 105/73/59
f 61/77/60 104/148/60 99/149/60 66/74/60
f 72/150/59 93/151/59 97/152/59 68/153/59
f 63/85/57 102/154/57 98/155/57 67/82/57
f 60/156/17 105/157/17 102/158/17 63/156/17
f 59/92/61 65/159/61 100/160/61 106/92/61
f 67/161/26 98/162/26 101/163/26 64/164/26
f 69/98/17 96/165/17 92/166/17 73/95/17
f 70/167/54 95/168/54 91/169/54 74/170/54
f 74/171/62 91/172/62 94/173/62 71/174/62
f 73/95/60 92/166/60 100/175/60 65/176/60
f 66/114/26 99/177/26 93/178/26 72/111/26
f 71/179/57 66/180/57 99/181/57 94/182/57
f 62/183/60 71/184/60 94/185/60 103/185/60
f 65/186/26 70/187/26 95/188/26 100/189/26
f 62/122/26 103/190/26 95/191/26 70/119/26
f 64/192/54 69/193/54 96/194/54 101/195/54
f 59/196/54 106/197/54 96/198/54 69/199/54
f 61/200/17 68/201/17 97/202/17 104/203/17
f 100/204/37 95/205/37 91/206/37 92/207/37
f 91/208/37 94/209/37 99/210/37 93/211/37
f 96/212/37 92/213/37 98/214/37 101/215/37
f 91/216/37 95/217/37 103/218/37 94/219/37
f 100/220/37 92/221/37 96/222/37 106/223/37
f 104/203/17 97/202/17 109/224/17 110/225/17
f 93/226/26 99/227/26 112/228/26 107/229/26
f 98/230/26 108/230/26 113/231/26 101/232/26
f 105/156/17 114/156/17 111/233/17 102/234/17
f 99/148/60 104/235/60 110/236/60 112/148/60
f 101/146/59 113/237/59 114/238/59 105/147/59
f 112/239/37 110/240/37 109/241/37 107/242/37
f 113/243/37 108/244/37 111/245/37 114/246/37
f 117/247/37 92/248/37 91/249/37
f 68/250/17 121/251/17 122/252/17 97/202/17
f 121/251/17 115/253/17 116/254/17 122/252/17
f 115/253/17 120/255/17 123/256/17 116/254/17
f 120/255/17 63/257/17 102/258/17 123/256/17
f 93/259/37 124/260/37 91/249/37
f 124/260/37 117/247/37 91/249/37
f 117/247/37 125/261/37 92/248/37
f 125/261/37 98/262/37 92/248/37
f 98/263/26 125/264/26 127/265/26 108/266/26
f 125/264/26 117/267/26 118/268/26 127/265/26
f 117/267/26 124/269/26 126/270/26 118/268/26
f 124/269/26 93/226/26 107/229/26 126/270/26
f 97/202/17 122/252/17 128/271/17 109/224/17
f 122/252/17 116/254/17 119/272/17 128/271/17
f 116/254/17 123/256/17 129/273/17 119/272/17
f 123/256/17 102/258/17 111/274/17 129/273/17
f 108/275/63 127/276/63 129/277/63 111/278/63
f 127/279/37 118/280/37 119/281/37 129/282/37
f 118/282/37 126/281/37 128/283/37 119/284/37
f 126/278/64 107/277/64 109/285/64 128/286/64
o Matress
v 0.458043 0.754119 0.322196
v 0.458043 -1.204759 0.322196
v -0.458043 -1.204759 0.322196
v -0.458043 0.754120 0.322196
v -0.593965 -1.204759 0.158885
v -0.593965 0.864173 0.158885
v 0.593965 0.864173 0.158885
v 0.593965 -1.204759 0.158885
vt 0.904929 0.096854
vt 0.941870 0.089374
vt 0.946587 0.442516
vt 0.901784 0.442234
vt 0.951270 0.051135
vt 0.958644 0.438211
vt 0.895354 0.057974
vt 0.889970 0.439079
vt 0.059475 0.902971
vt 0.059475 0.691054
vt 0.428556 0.691054
vt 0.428556 0.902971
vn 0.318400 0.360240 0.876797
vn -0.318400 0.360240 0.876797
vn -0.424421 0.000000 0.905454
vn 0.424421 0.000000 0.905454
vn -0.688070 0.720725 -0.084109
vn -0.905454 0.000000 -0.424421
vn 0.688070 0.720725 -0.084109
vn 0.905454 0.000000 -0.424421
usemtl None_1900bed.png
s 1
f 130/287/65 133/288/66 132/289/67 131/290/68
f 132/289/67 133/288/66 135/291/69 134/292/70
f 133/288/66 130/287/65 136/293/71 135/291/69
f 130/287/65 131/290/68 137/294/72 136/293/71
f 137/295/72 134/296/70 135/297/69 136/298/71
