# Blender3D v249 OBJ File: bigdoorright.blend
# www.blender3d.org
mtllib bigdoorright.mtl
o Plane.002_Plane.001
v -1.000171 -0.461957 1.872467
v -1.000171 1.000130 1.872467
v -1.000171 1.000130 -0.000293
v -1.000000 -0.461697 0.000000
v -1.000171 0.269086 1.872467
v -1.000171 1.000130 0.936087
v -1.000086 0.269217 -0.000147
v -1.000086 -0.461827 0.936234
v -1.000128 0.269152 0.936160
vt 0.581319 0.525044
vt 0.581389 0.137945
vt 0.852926 0.137885
vt 0.852908 0.525014
vt 0.581250 0.912143
vt 0.852856 0.912143
vt 0.559158 0.825014
vt 0.559176 0.314132
vt 0.952588 0.314104
vt 0.952588 0.825000
vt 0.549731 0.595271
vt 0.549783 0.087514
vt 0.952588 0.087500
vt 0.952588 0.595271
vn 1.000000 0.000031 0.000061
vn 1.000000 0.000061 0.000061
vn 1.000000 0.000061 0.000031
vn 1.000000 0.000031 0.000031
vn 1.000000 0.000000 0.000061
vn 1.000000 0.000000 0.000031
vn 1.000000 0.000061 0.000000
vn 1.000000 0.000031 0.000000
vn 1.000000 0.000000 0.000000
usemtl None_dresser.png
s 1
f 8/1/1 4/2/2 7/3/3 9/4/4
f 1/5/5 8/1/1 9/4/4 5/6/6
f 9/7/4 7/8/3 3/9/7 6/10/8
f 5/11/6 9/12/4 6/13/8 2/14/9
