# Blender3D v249 OBJ File: bookcase.blend
# www.blender3d.org
mtllib bookcase.mtl
o Cube.001
v -0.498061 0.926776 1.844423
v -0.498061 0.926775 0.073224
v -0.498061 -0.926776 0.073225
v -0.498061 -0.926775 1.844424
v -0.498061 0.926776 1.495681
v -0.498061 0.926775 1.110326
v -0.498061 0.926775 0.724970
v -0.498061 0.926775 0.339615
v -0.498061 -0.926776 0.339615
v -0.498061 -0.926776 0.724970
v -0.498061 -0.926775 1.110326
v -0.498061 -0.926775 1.495681
v -0.498061 0.926775 0.477844
v -0.498061 -0.926776 0.477844
v -0.498061 0.926775 0.859345
v -0.498061 -0.926776 0.859345
v -0.498061 0.926776 1.254334
v -0.498061 -0.926775 1.254334
v -0.498061 0.926776 1.647396
v -0.498061 -0.926775 1.647396
v -0.498061 -0.370710 0.724970
v -0.498061 -0.370711 0.477844
vt 2.072124 0.911853
vt 2.072124 0.501398
vt -1.072124 0.501397
vt -1.072124 0.911853
vt -1.072124 0.962936
vt -1.072125 0.497507
vt 2.072124 0.497506
vt 2.072124 0.962935
vt -1.071543 0.998743
vt -1.072125 0.494849
vt 2.070975 0.494857
vt 2.071556 0.998751
vt -1.062842 0.498263
vt -1.072125 0.998023
vt 2.053819 0.998024
vt 2.063103 0.498264
vt 0.070603 0.014921
vt 0.781200 0.014921
vt 0.781200 0.480628
vt 0.070603 0.480628
vt -0.581761 0.500114
vt 1.496130 0.500114
vt 1.496131 0.934207
vt -0.581760 0.934207
vn 1.000000 0.000000 -0.000000
usemtl None_books.png
s off
f 9/1/1 3/2/1 2/3/1 8/4/1
f 11/5/1 16/6/1 15/7/1 6/8/1
f 12/9/1 18/10/1 17/11/1 5/12/1
f 19/13/1 1/14/1 4/15/1 20/16/1
f 14/17/1 22/18/1 21/19/1 10/20/1
f 22/21/1 13/22/1 7/23/1 21/24/1
o Cube
v -0.982997 1.000000 2.000000
v -0.982997 1.000000 0.000000
v -0.982997 -1.000000 0.000000
v -0.982997 -1.000000 2.000000
v -0.382997 1.000000 2.000000
v -0.382997 1.000000 -0.000000
v -0.382997 -1.000001 0.000001
v -0.382997 -1.000000 2.000000
v -0.382997 0.926776 1.926775
v -0.382997 -0.926775 1.926776
v -0.382997 -0.926776 0.073225
v -0.382997 0.926775 0.073224
v -0.896719 0.926776 1.926775
v -0.896719 0.926775 0.073224
v -0.896719 -0.926776 0.073225
v -0.896719 -0.926775 1.926776
v -0.982997 1.000000 1.578033
v -0.982997 1.000000 1.192677
v -0.982997 1.000000 0.807323
v -0.982997 1.000000 0.421967
v -0.982997 -1.000000 0.421967
v -0.982997 -1.000000 0.807323
v -0.982997 -1.000000 1.192677
v -0.982997 -1.000000 1.578033
v -0.382997 1.000000 1.578033
v -0.382997 1.000000 1.192677
v -0.382997 1.000000 0.807322
v -0.382997 1.000000 0.421967
v -0.382997 -1.000000 0.421967
v -0.382997 -1.000000 0.807322
v -0.382997 -1.000000 1.192677
v -0.382997 -1.000000 1.578033
v -0.382997 -0.926775 1.578033
v -0.382997 -0.926775 1.192677
v -0.382997 -0.926776 0.807322
v -0.382997 -0.926776 0.421967
v -0.382997 0.926776 1.578033
v -0.382997 0.926775 1.192677
v -0.382997 0.926775 0.807322
v -0.382997 0.926775 0.421967
v -0.896719 0.926776 1.578033
v -0.896719 0.926775 1.192677
v -0.896719 0.926775 0.807323
v -0.896719 0.926775 0.421967
v -0.896719 -0.926776 0.421967
v -0.896719 -0.926776 0.807323
v -0.896719 -0.926776 1.192677
v -0.896719 -0.926775 1.578033
v -0.982997 1.000000 0.477844
v -0.982997 -1.000000 0.477844
v -0.382997 1.000000 0.477844
v -0.382997 -1.000000 0.477844
v -0.382997 -0.926776 0.477844
v -0.382997 0.926775 0.477844
v -0.896719 0.926775 0.477844
v -0.896719 -0.926776 0.477844
v -0.982997 1.000000 0.859345
v -0.982997 -1.000000 0.859345
v -0.382997 1.000000 0.859345
v -0.382997 -1.000000 0.859345
v -0.382997 -0.926776 0.859345
v -0.382997 0.926775 0.859345
v -0.896719 0.926775 0.859345
v -0.896719 -0.926776 0.859345
v -0.982997 1.000000 1.254334
v -0.982997 -1.000000 1.254334
v -0.382997 1.000000 1.254334
v -0.382997 -1.000000 1.254334
v -0.382997 -0.926775 1.254334
v -0.382997 0.926776 1.254334
v -0.896719 0.926775 1.254334
v -0.896719 -0.926775 1.254334
v -0.982997 1.000000 1.647396
v -0.982997 -1.000000 1.647396
v -0.382997 1.000000 1.647396
v -0.382997 -1.000000 1.647396
v -0.382997 -0.926775 1.647396
v -0.382997 0.926776 1.647396
v -0.896719 0.926776 1.647396
v -0.896719 -0.926775 1.647396
v -0.442418 0.926776 1.647396
v -0.442418 -0.926775 1.647396
v -0.442418 -0.926775 1.578033
v -0.442418 0.926776 1.578033
v -0.442419 0.926776 1.254334
v -0.442418 -0.926775 1.254334
v -0.442418 -0.926775 1.192677
v -0.442419 0.926775 1.192677
v -0.442418 0.926775 0.859345
v -0.442418 -0.926776 0.859345
v -0.442418 -0.926776 0.807322
v -0.442418 0.926775 0.807322
v -0.442418 0.926775 0.477844
v -0.442418 -0.926776 0.477844
v -0.442418 -0.926776 0.421967
v -0.442418 0.926775 0.421967
vt 0.020775 0.524681
vt 0.447975 0.524681
vt 0.447975 0.951881
vt 0.020775 0.951881
vn 0.000000 -0.000000 -1.000000
vn 0.000000 0.000000 1.000000
vn -0.000000 0.000001 1.000000
vn 0.000000 -0.000001 -1.000000
vn -1.000000 -0.000000 0.000000
vn 0.000000 1.000000 -0.000000
vn -0.000001 -1.000000 0.000000
vn 0.000000 -1.000000 0.000001
vn -0.000000 1.000000 -0.000001
vn 0.000000 -1.000000 0.000000
vn -0.000001 1.000000 -0.000000
usemtl None_doubledoors.png
s off
f 24/25/2 28/26/2 29/27/2 25/28/2
f 27/25/3 23/26/3 26/27/3 30/28/3
f 27/25/1 30/26/1 32/27/1 31/28/1
f 29/25/1 28/26/1 34/27/1 33/28/1
f 33/25/4 34/26/4 36/27/4 37/28/4
f 31/25/5 32/26/5 38/27/5 35/28/5
f 42/25/6 24/26/6 25/27/6 43/28/6
f 50/25/7 28/26/7 24/27/7 42/28/7
f 29/25/8 51/26/8 43/27/8 25/28/8
f 51/25/1 29/26/1 33/27/1 58/28/1
f 28/25/1 50/26/1 62/27/1 34/28/1
f 34/25/9 62/26/9 66/27/9 36/28/9
f 58/25/10 33/26/10 37/27/10 67/28/10
f 67/25/1 37/26/1 36/27/1 66/28/1
f 41/25/6 71/26/6 72/27/6 44/28/6
f 71/25/6 42/26/6 43/27/6 72/28/6
f 49/25/7 73/26/7 71/27/7 41/28/7
f 73/25/7 50/26/7 42/27/7 71/28/7
f 51/25/8 74/26/8 72/27/8 43/28/8
f 74/25/8 52/26/8 44/27/8 72/28/8
f 52/25/1 74/26/1 75/27/1 57/28/1
f 74/25/1 51/26/1 58/27/1 75/28/1
f 50/25/1 73/26/1 76/27/1 62/28/1
f 73/25/1 49/26/1 61/27/1 76/28/1
f 62/25/11 76/26/11 77/27/11 66/28/11
f 76/25/9 61/26/9 65/27/9 77/28/9
f 57/25/7 75/26/7 78/27/7 68/28/7
f 75/25/10 58/26/10 67/27/10 78/28/10
f 68/25/1 78/26/1 77/27/1 65/28/1
f 40/25/6 79/26/6 80/27/6 45/28/6
f 79/25/6 41/26/6 44/27/6 80/28/6
f 48/25/7 81/26/7 79/27/7 40/28/7
f 81/25/7 49/26/7 41/27/7 79/28/7
f 52/25/8 82/26/8 80/27/8 44/28/8
f 82/25/11 53/26/11 45/27/11 80/28/11
f 53/25/1 82/26/1 83/27/1 56/28/1
f 82/25/1 52/26/1 57/27/1 83/28/1
f 49/25/1 81/26/1 84/27/1 61/28/1
f 81/25/1 48/26/1 60/27/1 84/28/1
f 61/25/11 84/26/11 85/27/11 65/28/11
f 84/25/11 60/26/11 64/27/11 85/28/11
f 56/25/10 83/26/10 86/27/10 69/28/10
f 83/25/7 57/26/7 68/27/7 86/28/7
f 69/25/1 86/26/1 85/27/1 64/28/1
f 39/25/6 87/26/6 88/27/6 46/28/6
f 87/25/6 40/26/6 45/27/6 88/28/6
f 47/25/7 89/26/7 87/27/7 39/28/7
f 89/25/7 48/26/7 40/27/7 87/28/7
f 53/25/11 90/26/11 88/27/11 45/28/11
f 90/25/11 54/26/11 46/27/11 88/28/11
f 54/25/1 90/26/1 91/27/1 55/28/1
f 90/25/1 53/26/1 56/27/1 91/28/1
f 48/25/1 89/26/1 92/27/1 60/28/1
f 89/25/1 47/26/1 59/27/1 92/28/1
f 60/25/9 92/26/9 93/27/9 64/28/9
f 92/25/11 59/26/11 63/27/11 93/28/11
f 55/25/10 91/26/10 94/27/10 70/28/10
f 91/25/10 56/26/10 69/27/10 94/28/10
f 70/25/1 94/26/1 93/27/1 63/28/1
f 23/25/6 95/26/6 96/27/6 26/28/6
f 95/25/6 39/26/6 46/27/6 96/28/6
f 95/25/12 23/26/12 27/27/12 97/28/12
f 97/25/12 47/26/12 39/27/12 95/28/12
f 54/25/11 98/26/11 96/27/11 46/28/11
f 98/25/11 30/26/11 26/27/11 96/28/11
f 30/25/1 98/26/1 99/27/1 32/28/1
f 98/25/1 54/26/1 55/27/1 99/28/1
f 47/25/1 97/26/1 100/27/1 59/28/1
f 97/25/1 27/26/1 31/27/1 100/28/1
f 59/25/11 100/26/11 101/27/11 63/28/11
f 100/25/9 31/26/9 35/27/9 101/28/9
f 32/25/10 99/26/10 102/27/10 38/28/10
f 99/25/10 55/26/10 70/27/10 102/28/10
f 38/25/1 102/26/1 101/27/1 35/28/1
f 101/25/3 102/26/3 104/27/3 103/28/3
f 102/25/9 70/26/9 105/27/9 104/28/9
f 63/25/7 101/26/7 103/27/7 106/28/7
f 93/25/3 94/26/3 108/27/3 107/28/3
f 94/25/9 69/26/9 109/27/9 108/28/9
f 64/25/10 93/26/10 107/27/10 110/28/10
f 85/25/3 86/26/3 112/27/3 111/28/3
f 86/25/11 68/26/11 113/27/11 112/28/11
f 65/25/7 85/26/7 111/27/7 114/28/7
f 77/25/3 78/26/3 116/27/3 115/28/3
f 78/25/9 67/26/9 117/27/9 116/28/9
f 66/25/7 77/26/7 115/27/7 118/28/7
f 67/25/2 66/26/2 118/27/2 117/28/2
f 68/25/2 65/26/2 114/27/2 113/28/2
f 69/25/2 64/26/2 110/27/2 109/28/2
f 70/25/2 63/26/2 106/27/2 105/28/2
f 104/25/1 105/26/1 106/27/1 103/28/1
f 108/25/1 109/26/1 110/27/1 107/28/1
f 112/25/1 113/26/1 114/27/1 111/28/1
f 116/25/1 117/26/1 118/27/1 115/28/1
