# Blender3D v249 OBJ File: humanblock-rig.blend
# www.blender3d.org
mtllib cultist-threaten.mtl
o Cube
v 0.534133 0.251263 1.182088
v 0.532298 0.239672 1.127068
v 0.382014 0.275351 1.127068
v 0.382014 0.275351 1.182088
v 0.527214 0.207568 1.182088
v 0.529050 0.219159 1.127068
v 0.375095 0.231656 1.127068
v 0.375095 0.231656 1.182088
v 0.305951 0.287395 1.168397
v 0.299032 0.243700 1.168397
v 0.332996 0.283113 1.127068
v 0.326077 0.239418 1.127068
v 0.343137 0.281507 1.022676
v 0.294119 0.289269 1.022676
v 0.287200 0.245574 1.022676
v 0.336218 0.237812 1.022676
vn 0.192797 0.975500 -0.105973
vn -0.118013 -0.987341 -0.105972
vn 0.987693 -0.156402 -0.000001
vn 0.000000 0.000000 -1.000000
vn -0.000000 0.000000 1.000000
vn -0.172880 0.027375 0.984562
vn -0.156398 -0.987694 0.000000
vn 0.156398 0.987694 -0.000000
vn -0.823382 0.130380 -0.552307
vn 0.156399 0.987694 -0.000000
vn -0.924182 0.146342 0.352804
vn 0.924182 -0.146342 -0.352804
usemtl Material
s off
f 1//1 2//1 3//1 4//1
f 5//2 8//2 7//2 6//2
f 1//3 5//3 6//3 2//3
f 2//4 6//4 7//4 3//4
f 5//5 1//5 4//5 8//5
f 8//6 4//6 9//6 10//6
f 7//7 8//7 10//7 12//7
f 4//8 3//8 11//8 9//8
f 11//9 12//9 10//9 9//9
f 11//10 3//10 13//10 14//10
f 12//11 11//11 14//11 15//11
f 7//7 12//7 15//7 16//7
f 3//12 7//12 16//12 13//12
f 13//4 16//4 15//4 14//4
o RLeg.001
v 0.045648 -0.048173 1.297562
v -0.057955 -0.054578 1.309174
v 0.039534 0.052347 1.297773
v -0.064070 0.045942 1.309384
v 0.004629 0.049044 1.569942
v 0.006488 -0.051735 1.569521
v -0.039532 0.049044 1.374878
v -0.037673 -0.051735 1.374457
v 0.107204 0.051033 1.546719
v 0.109064 -0.049745 1.546298
v 0.063043 0.051033 1.351656
v 0.064903 -0.049745 1.351235
v -0.023465 0.048499 1.576302
v -0.021605 -0.052280 1.575881
v -0.067626 0.048499 1.381238
v -0.065767 -0.052280 1.380817
v 0.171564 0.052282 1.532149
v 0.173423 -0.048497 1.531728
v 0.127403 0.052282 1.337085
v 0.129262 -0.048497 1.336664
v 0.004175 0.073641 1.570045
v -0.039986 0.073641 1.374981
v 0.006942 -0.076332 1.569418
v -0.037219 -0.076332 1.374354
v 0.106750 0.075631 1.546822
v 0.062589 0.075631 1.351759
v 0.109518 -0.074342 1.546196
v 0.065356 -0.074342 1.351132
v -0.023919 0.073096 1.576405
v -0.068080 0.073096 1.381341
v -0.065313 -0.076877 1.380715
v -0.021152 -0.076877 1.575778
v 0.171110 0.076879 1.532252
v 0.126949 0.076879 1.337188
v 0.129716 -0.073094 1.336562
v 0.173877 -0.073094 1.531625
v 0.089499 0.163415 0.004934
v 0.110379 0.045246 0.004671
v 0.094708 0.159882 0.074023
v 0.109142 0.040930 0.073892
v 0.083263 -0.145436 0.004429
v 0.101929 -0.026896 0.004187
v 0.088000 -0.142090 0.073527
v 0.100687 -0.022914 0.073406
v 0.075240 0.007748 1.302767
v 0.034458 0.003531 1.302767
v -0.099953 0.227565 1.266767
v 0.110585 0.032431 0.459048
v -0.038742 0.031611 0.453089
v -0.039382 0.151384 0.453089
v 0.109946 0.152204 0.459048
v -0.053951 0.141840 0.077053
v -0.039517 0.022888 0.076922
v -0.037301 0.019144 0.007692
v -0.058182 0.137313 0.007955
v 0.186223 0.180357 0.072145
v 0.207103 0.062188 0.071882
v 0.230653 0.066504 0.002211
v 0.209773 0.184673 0.002473
v 0.105650 -0.019279 0.458379
v -0.043762 -0.010914 0.452769
v -0.085454 -0.115487 0.826308
v -0.050469 -0.130726 0.452769
v 0.063635 -0.123833 0.840551
v 0.098943 -0.139091 0.458379
v -0.060939 -0.126232 0.076544
v -0.048253 -0.007056 0.076423
v -0.046215 -0.003563 0.007196
v -0.064881 -0.122102 0.007438
v 0.180280 -0.160575 0.071648
v 0.198946 -0.042036 0.071406
v 0.222579 -0.045900 0.001736
v 0.203914 -0.164439 0.001979
v 0.031142 0.228393 0.912949
v 0.082838 0.226461 1.002325
v 0.074377 0.359309 1.031776
v 0.022681 0.361241 0.942400
v 0.338110 0.320383 1.155770
v 0.379600 0.339230 1.012859
v 0.373411 0.203293 0.993135
v 0.331921 0.184445 1.136045
v 0.062435 -0.161048 1.229802
v -0.027028 -0.176754 1.156724
v 0.319294 -0.111401 1.137140
v 0.263680 -0.117231 1.231833
v 0.069795 -0.229143 1.304501
v 0.283473 -0.252890 1.235124
v -0.019668 -0.244850 1.231424
v 0.339087 -0.247061 1.140430
v 0.317988 -0.260098 1.513346
v 0.458939 -0.232458 1.470114
v 0.434071 -0.097329 1.475433
v 0.293121 -0.124970 1.518665
v 0.054666 0.206687 1.027766
v 0.062896 0.127112 0.885407
v -0.086308 0.111681 0.885407
v -0.094538 0.191256 1.027767
v 0.087585 -0.111615 0.885407
v 0.095815 -0.191191 1.027767
v -0.053390 -0.206621 1.027767
v -0.061619 -0.127046 0.885407
v -0.088397 0.162686 1.178429
v 0.047090 0.242772 1.284688
v 0.058646 0.177893 1.196349
v 0.074976 0.133687 0.841371
v -0.074043 0.142029 0.826414
v -0.073964 -0.007683 0.885407
v -0.073964 -0.007682 1.027767
v 0.075240 0.007748 0.885407
v 0.075240 0.007748 1.027767
v -0.073964 -0.007682 1.302767
v -0.073964 -0.007682 1.165267
v 0.075240 0.007748 1.165267
v 0.074545 0.004709 0.787340
v -0.074509 0.013054 0.772740
v 0.045038 -0.280306 1.153477
v 0.060041 -0.128133 1.287733
v 0.074760 -0.264324 1.299632
v 0.030319 -0.144115 1.141578
v -0.099102 0.273903 1.201246
v -0.075990 0.144144 1.162069
v 0.045781 0.288886 1.237087
v 0.068892 0.159128 1.197911
vt 0.176457 0.118888
vt 0.075903 0.118888
vt 0.075903 0.044692
vt 0.168922 0.044692
vt 0.298510 0.044692
vt 0.427413 0.044692
vt 0.426608 0.118888
vt 0.304727 0.118888
vt 0.506410 0.324981
vt 0.232093 0.324981
vt 0.232093 0.148599
vt 0.508323 0.148599
vt 0.736802 0.624945
vt 0.709168 0.624945
vt 0.709168 0.592586
vt 0.736805 0.592593
vt 0.849967 0.624928
vt 0.849945 0.592572
vt 0.877608 0.624912
vt 0.877589 0.592544
vt 0.709213 0.474392
vt 0.736917 0.474410
vt 0.849710 0.474367
vt 0.877434 0.474283
vt 0.586681 0.049129
vt 0.598582 0.048821
vt 0.598943 0.062758
vt 0.586866 0.063454
vt 0.538021 0.045863
vt 0.537995 0.057416
vt 0.527821 0.046195
vt 0.528210 0.058139
vt 0.605636 0.112138
vt 0.595809 0.112537
vt 0.547781 0.106342
vt 0.535826 0.107471
vt 0.709213 0.432763
vt 0.737306 0.432834
vt 0.849101 0.432763
vt 0.877197 0.432522
vt 0.605136 0.139572
vt 0.596239 0.139514
vt 0.549689 0.138865
vt 0.537723 0.139572
vt 0.761679 0.157829
vt 0.747432 0.157947
vt 0.747431 0.049613
vt 0.761678 0.049496
vt 0.816277 0.157829
vt 0.816277 0.049496
vt 0.830524 0.157712
vt 0.830524 0.049378
vt 0.710548 0.183363
vt 0.738997 0.183405
vt 0.848507 0.183631
vt 0.876949 0.183468
vt 0.731826 0.049613
vt 0.731826 0.157947
vt 0.674848 0.049613
vt 0.674848 0.157947
vt 0.846130 0.157712
vt 0.846129 0.049378
vt 0.903108 0.157712
vt 0.903107 0.049378
vt 0.639098 0.049613
vt 0.639098 0.157947
vt 0.938858 0.157712
vt 0.938858 0.049378
vt 0.793128 0.653872
vt 0.817549 0.673739
vt 0.793128 0.673739
vt 0.817552 0.724710
vt 0.890043 0.726553
vt 0.251706 0.596669
vt 0.250267 0.795871
vt 0.320617 0.797611
vt 0.333132 0.640130
vt 0.048000 0.504472
vt 0.049655 0.344116
vt 0.101493 0.337117
vt 0.116205 0.477480
vt 0.189226 0.930299
vt 0.121706 0.906059
vt 0.129691 0.754132
vt 0.189226 0.754132
vt 0.405304 0.931287
vt 0.330662 0.931379
vt 0.330649 0.747292
vt 0.403304 0.747287
vt 0.329304 0.745287
vt 0.330635 0.562906
vt 0.403290 0.562900
vt 0.189226 0.753996
vt 0.129690 0.576597
vt 0.189226 0.576597
vt 0.045753 0.185154
vt 0.101785 0.185691
vt 0.256672 0.963944
vt 0.322200 0.963187
vt 0.252989 0.392960
vt 0.310208 0.443396
vt 0.353507 0.438581
vt 0.410587 0.392960
vt 0.258112 0.522759
vt 0.312065 0.479006
vt 0.411084 0.521761
vt 0.353467 0.474740
vt 0.372087 0.453916
vt 0.371860 0.456417
vt 0.370610 0.454713
vt 0.370692 0.456039
vt 0.342010 0.801124
vt 0.412325 0.801114
vt 0.413255 0.645960
vt 0.117515 0.477152
vt 0.124860 0.341132
vt 0.186286 0.344241
vt 0.182228 0.504986
vt 0.062096 0.931152
vt 0.055518 0.754132
vt 0.115053 0.754132
vt 0.330635 0.931345
vt 0.257960 0.931345
vt 0.257960 0.747334
vt 0.330635 0.747334
vt 0.257960 0.562901
vt 0.330635 0.562900
vt 0.055519 0.576596
vt 0.115055 0.576597
vt 0.129738 0.189004
vt 0.187921 0.184746
vt 0.336692 0.966705
vt 0.405332 0.961224
vt 0.257573 0.395467
vt 0.409884 0.397563
vt 0.353711 0.441085
vt 0.311801 0.445164
vt 0.259890 0.521340
vt 0.313122 0.479603
vt 0.407675 0.522152
vt 0.353191 0.476031
vt 0.371212 0.458567
vt 0.371464 0.456153
vt 0.370025 0.456904
vt 0.370087 0.458187
vt 0.649744 0.578606
vt 0.581593 0.578606
vt 0.581593 0.442305
vt 0.649743 0.442305
vt 0.647392 0.581015
vt 0.584921 0.581015
vt 0.584921 0.444714
vt 0.647392 0.444714
vt 0.647754 0.578606
vt 0.585283 0.578606
vt 0.585283 0.442305
vt 0.647754 0.442305
vt 0.648984 0.578606
vt 0.580833 0.578606
vt 0.580833 0.442305
vt 0.648984 0.442305
vt 0.575704 0.413674
vt 0.575704 0.338877
vt 0.648389 0.338877
vt 0.648389 0.413674
vt 0.540134 0.581826
vt 0.540134 0.443942
vt 0.471193 0.443942
vt 0.471192 0.581826
vt 0.538303 0.580898
vt 0.538303 0.443014
vt 0.475106 0.443014
vt 0.475106 0.580898
vt 0.534766 0.584002
vt 0.534767 0.446118
vt 0.471570 0.446118
vt 0.471570 0.584002
vt 0.538870 0.579371
vt 0.538870 0.441487
vt 0.469928 0.441487
vt 0.469928 0.579371
vt 0.538194 0.419184
vt 0.468630 0.419184
vt 0.468630 0.347791
vt 0.538194 0.347791
vt 0.789848 0.719455
vt 0.715098 0.719455
vt 0.715098 0.650792
vt 0.789848 0.650792
vt 0.713315 0.649509
vt 0.789885 0.649509
vt 0.789885 0.719843
vt 0.713315 0.719843
vt 0.852789 0.719455
vt 0.852789 0.650792
vt 0.854358 0.649509
vt 0.854358 0.719843
vt 0.330635 0.956417
vt 0.257960 0.956417
vt 0.403320 0.956368
vt 0.330664 0.956374
vt 0.403318 0.931374
vt 0.890040 0.653869
vt 0.725368 0.752227
vt 0.783516 0.752226
vt 0.783516 0.821209
vt 0.686603 0.821209
vt 0.841664 0.752226
vt 0.880430 0.821209
vt 0.494496 0.749987
vt 0.552644 0.749987
vt 0.552644 0.818970
vt 0.455730 0.818970
vt 0.610792 0.749987
vt 0.649557 0.818970
vt 0.783516 0.954465
vt 0.686603 0.954465
vt 0.686603 0.887837
vt 0.783516 0.887837
vt 0.880430 0.887837
vt 0.880430 0.954465
vt 0.455730 0.885598
vt 0.552644 0.885598
vt 0.552644 0.952226
vt 0.455730 0.952226
vt 0.649557 0.885598
vt 0.649557 0.952226
vt 0.186484 0.955285
vt 0.121706 0.955285
vt 0.186484 0.931220
vt 0.062171 0.955285
vt 0.117558 0.539609
vt 0.181975 0.505354
vt 0.178791 0.539120
vt 0.117515 0.539564
vt 0.048404 0.545432
vt 0.048028 0.502711
vt 0.116471 0.478005
vt 0.768706 0.673739
vt 0.696216 0.653869
vt 0.768704 0.724710
vt 0.696212 0.726553
vt 0.774599 0.689681
vt 0.702487 0.682046
vt 0.774978 0.680203
vt 0.751714 0.687838
vt 0.823826 0.680203
vt 0.896318 0.682046
vt 0.469928 0.717255
vt 0.538870 0.717255
vt 0.538870 0.702638
vt 0.469928 0.702638
vt 0.471570 0.721886
vt 0.534767 0.721886
vt 0.534767 0.707269
vt 0.471570 0.707269
vt 0.475107 0.718782
vt 0.538304 0.718781
vt 0.538304 0.704165
vt 0.475107 0.704165
vt 0.471193 0.719710
vt 0.540134 0.719710
vt 0.540134 0.705093
vt 0.471193 0.705093
vt 0.580833 0.714906
vt 0.580833 0.700458
vt 0.648984 0.700458
vt 0.648984 0.714907
vt 0.585283 0.714907
vt 0.585283 0.700458
vt 0.647754 0.700458
vt 0.647754 0.714906
vt 0.584921 0.717315
vt 0.584921 0.702866
vt 0.647392 0.702866
vt 0.647392 0.717315
vt 0.581593 0.714907
vt 0.581593 0.700458
vt 0.649743 0.700458
vt 0.649743 0.714907
vn 0.928925 0.037952 -0.368317
vn -0.944750 -0.038445 0.325531
vn 0.040229 -0.999187 -0.002695
vn -0.040460 0.999180 0.001321
vn 0.220806 -0.000000 0.975318
vn 0.220806 -0.000001 0.975318
vn 0.220805 -0.000000 0.975318
vn -0.220806 0.000000 -0.975318
vn -0.220804 -0.000000 -0.975318
vn -0.220802 0.000005 -0.975319
vn -0.220805 0.000000 -0.975318
vn -0.220806 0.000005 -0.975318
vn 0.220804 -0.000000 0.975318
vn 0.220805 -0.000001 0.975318
vn -0.220806 0.000001 -0.975318
vn -0.975143 -0.018916 0.220766
vn 0.975143 0.018915 -0.220766
vn 0.975143 0.018916 -0.220766
vn -0.018448 0.999821 0.004177
vn 0.018449 -0.999821 -0.004177
vn -0.010637 0.102850 0.994640
vn 0.093023 0.244833 0.965093
vn -0.020086 -0.997097 -0.073443
vn -0.994742 0.020934 -0.100252
vn 0.994967 -0.020469 0.098093
vn 0.022462 0.998990 0.038917
vn -0.063171 0.998003 0.000027
vn 0.997806 0.063014 -0.020288
vn -0.997773 -0.063013 0.021882
vn 0.063169 -0.998003 0.000108
vn 0.147330 -0.989087 -0.000411
vn -0.988819 -0.147303 0.023212
vn -0.147279 0.989091 0.002955
vn -0.020215 -0.001349 -0.999795
vn 0.020215 0.001349 0.999795
vn 0.190618 -0.981294 -0.026969
vn -0.192654 0.980807 0.030021
vn -0.020215 -0.001348 -0.999795
vn 0.931417 0.163859 0.324980
vn 0.060346 0.995869 -0.067842
vn -0.994039 0.049728 -0.097027
vn 0.994161 -0.050040 0.095606
vn -0.058173 -0.997698 0.034853
vn -0.080925 -0.996720 0.000317
vn 0.996525 -0.080879 -0.019893
vn -0.996509 0.080878 0.020708
vn 0.080929 0.996720 -0.000713
vn 0.130780 0.991411 -0.000409
vn -0.991195 0.130760 0.020848
vn -0.130736 -0.991414 0.002590
vn -0.020129 0.001127 -0.999797
vn 0.020129 -0.001127 0.999797
vn 0.171029 0.984949 -0.025011
vn -0.172781 -0.984573 0.027626
vn 0.934286 -0.146452 0.325057
vn 0.070694 0.993802 0.085795
vn 0.218691 0.177399 -0.959533
vn -0.463460 -0.163261 0.870948
vn -0.081870 -0.992992 -0.085231
vn 0.959931 -0.082563 0.267798
vn 0.149998 -0.988343 -0.026065
vn 0.929849 0.155854 -0.333303
vn -0.980907 -0.162578 0.106726
vn -0.150872 0.988242 0.024796
vn 0.290368 0.015775 0.956785
vn -0.089682 0.867152 -0.489903
vn 0.089681 -0.867153 -0.489902
vn -0.111925 0.977428 0.179183
vn 0.073054 -0.981057 0.179418
vn 0.023965 -0.999702 -0.004682
vn -0.038923 0.943545 0.328951
vn -0.112584 0.072565 0.990989
vn -0.994695 -0.102872 0.000000
vn -0.994695 -0.102871 0.000000
vn 0.994695 0.102872 -0.000000
vn -0.994705 -0.100371 -0.022062
vn -0.971375 -0.233922 -0.041378
vn -0.995428 -0.094781 0.011816
vn -0.976349 -0.181823 0.116975
vn 0.997239 -0.053307 -0.051692
vn 0.993836 0.109127 0.019502
vn 0.994818 0.037595 0.094462
vn 0.994932 0.100488 -0.003484
vn 0.996289 0.030267 0.080574
vn 0.985544 -0.030086 -0.166729
vn -0.989061 0.025799 0.145232
vn -0.996530 -0.030972 -0.077257
vn -0.145995 -0.014797 0.989175
vn -0.272223 -0.224263 0.935735
vn -0.928535 -0.284365 0.238663
vn -0.683341 0.036097 0.729207
vn -0.815796 0.435491 0.380559
vn -0.094400 0.994172 -0.052056
vn -0.995066 -0.088710 0.044421
vn 0.274786 0.088380 0.957435
vn -0.568244 -0.372452 -0.733743
vn -0.023287 -0.058719 -0.998003
vn -0.426220 -0.833261 0.352155
vn 0.096393 -0.993970 0.052263
vn -0.120605 -0.428444 0.895483
vn 0.226885 -0.939042 -0.258308
vn 0.976853 0.035826 0.210888
vn 0.987487 0.083811 0.133589
vn -0.982203 -0.057877 -0.178684
vn -0.911437 -0.002059 -0.411433
vn -0.192970 0.759362 0.621395
vn -0.221125 0.942960 0.248858
usemtl Clothes
s off
f 17/1/13 19/2/13 27/3/13 28/4/13
f 24/5/14 23/6/14 20/7/14 18/8/14
f 18/8/15 17/1/15 28/4/15 24/5/15
f 23/9/16 27/10/16 19/11/16 20/12/16
f 30/13/17 48/14/17 39/15/17 22/16/17
f 29/17/18 30/13/18 22/16/18 21/18/18
f 45/19/17 29/17/17 21/18/17 37/20/17
f 22/16/17 39/15/17 43/21/17 26/22/17
f 21/18/18 22/16/18 26/22/18 25/23/18
f 37/20/19 21/18/19 25/23/19 41/24/19
f 31/25/20 46/26/20 38/27/20 23/28/20
f 32/29/21 31/25/21 23/28/21 24/30/21
f 47/31/22 32/29/22 24/30/22 40/32/22
f 23/28/23 38/27/23 42/33/23 27/34/23
f 40/32/24 24/30/24 28/35/24 44/36/24
f 52/37/25 34/38/25 26/22/25 43/21/25
f 25/23/26 26/22/26 34/38/26 33/39/26
f 41/24/17 25/23/17 33/39/17 49/40/17
f 27/34/20 42/33/20 50/41/20 35/42/20
f 28/35/27 27/34/27 35/42/27 36/43/27
f 44/36/21 28/35/21 36/43/21 51/44/21
f 29/45/28 45/46/28 46/47/28 31/48/28
f 30/49/28 29/45/28 31/48/28 32/50/28
f 48/51/28 30/49/28 32/50/28 47/52/28
f 34/38/29 52/37/29 51/53/29 36/54/29
f 33/39/30 34/38/30 36/54/30 35/55/30
f 49/40/29 33/39/29 35/55/29 50/56/29
f 38/57/31 46/47/31 45/46/31 37/58/31
f 42/59/31 38/57/31 37/58/31 41/60/31
f 39/61/32 48/51/32 47/52/32 40/62/32
f 43/63/32 39/61/32 40/62/32 44/64/32
f 50/65/31 42/59/31 41/60/31 49/66/31
f 52/67/32 43/63/32 44/64/32 51/68/32
f 61/69/33 19/70/33 62/71/33
f 20/72/34 19/70/34 63/73/34
f 131/74/35 65/75/35 64/76/35 130/77/35
f 122/78/36 66/79/36 65/80/36 131/81/36
f 130/82/37 64/83/37 67/84/37 121/85/37
f 121/86/38 67/87/38 66/88/38 122/89/38
f 67/89/39 55/90/39 68/91/39 66/92/39
f 64/93/40 56/84/40 55/94/40 67/95/40
f 66/79/41 68/96/41 69/97/41 65/80/41
f 65/75/42 69/98/42 56/99/42 64/76/42
f 69/100/43 70/101/43 54/102/43 56/103/43
f 68/104/44 71/105/44 70/101/44 69/100/44
f 71/105/45 68/104/45 55/106/45 53/107/45
f 54/102/46 70/101/46 71/105/46 53/107/46
f 56/103/47 73/108/47 72/109/47 55/106/47
f 54/102/48 74/110/48 73/108/48 56/103/48
f 55/106/49 72/109/49 75/111/49 53/107/49
f 53/107/50 75/111/50 74/110/50 54/102/50
f 73/108/51 74/110/51 75/111/51 72/109/51
f 131/77/52 130/112/52 76/113/52 77/114/52
f 78/115/53 131/116/53 77/117/53 79/118/53
f 130/83/54 80/119/54 81/120/54 76/121/54
f 80/122/55 78/123/55 79/124/55 81/125/55
f 81/125/56 79/124/56 82/126/56 59/127/56
f 76/121/57 81/120/57 59/128/57 60/129/57
f 79/116/58 77/130/58 83/131/58 82/117/58
f 77/112/59 76/132/59 60/133/59 83/113/59
f 83/134/60 60/135/60 58/136/60 84/137/60
f 82/138/61 83/134/61 84/137/61 85/139/61
f 59/140/62 82/138/62 85/139/62 57/141/62
f 85/139/63 84/137/63 58/136/63 57/141/63
f 60/135/64 59/140/64 86/142/64 87/143/64
f 58/136/65 60/135/65 87/143/65 88/144/65
f 59/140/66 57/141/66 89/145/66 86/142/66
f 57/141/63 58/136/63 88/144/63 89/145/63
f 87/143/67 86/142/67 89/145/67 88/144/67
f 93/146/68 92/147/68 94/148/68 95/149/68
f 90/150/69 93/151/69 95/152/69 96/153/69
f 92/154/70 91/155/70 97/156/70 94/157/70
f 91/158/71 90/159/71 96/160/71 97/161/71
f 94/162/72 97/163/72 96/164/72 95/165/72
f 105/166/73 107/167/73 106/168/73 103/169/73
f 100/170/74 108/171/74 107/172/74 105/173/74
f 103/174/75 106/175/75 109/176/75 101/177/75
f 101/178/76 109/179/76 108/180/76 100/181/76
f 106/182/77 107/183/77 108/184/77 109/185/77
f 110/186/78 111/187/78 112/188/78 113/189/78
f 114/190/79 115/191/79 116/192/79 117/193/79
f 120/194/80 110/186/80 113/189/80 118/195/80
f 115/191/81 98/196/81 99/197/81 116/192/81
f 114/198/82 117/199/82 78/123/82 80/122/82
f 112/200/83 111/201/83 121/87/83 122/202/83
f 63/73/84 19/70/84 61/69/84 119/203/84
f 112/204/85 123/205/85 124/206/85 113/207/85
f 123/205/86 117/208/86 116/209/86 124/206/86
f 114/210/87 125/211/87 126/212/87 115/213/87
f 125/211/87 111/214/87 110/215/87 126/212/87
f 127/216/88 63/217/88 118/218/88 128/219/88
f 128/219/89 99/220/89 104/221/89 127/216/89
f 113/207/90 124/206/90 128/219/90 118/218/90
f 124/206/91 116/209/91 99/220/91 128/219/91
f 98/222/92 129/223/92 61/224/92 102/225/92
f 129/223/93 120/226/93 119/227/93 61/224/93
f 115/213/94 126/212/94 129/223/94 98/222/94
f 126/212/95 110/215/95 120/226/95 129/223/95
f 111/228/96 125/229/96 130/83/96 121/230/96
f 125/229/97 114/231/97 80/119/97 130/83/97
f 117/232/98 123/115/98 131/233/98 78/234/98
f 123/235/99 112/236/99 122/237/99 131/238/99
f 62/71/100 17/239/100 102/240/100 61/69/100
f 102/240/101 17/239/101 18/241/101 104/242/101
f 127/243/102 104/244/102 18/245/102
f 127/246/103 20/247/103 63/248/103
f 99/249/104 98/250/104 133/251/104 135/252/104
f 135/252/105 133/251/105 101/178/105 100/181/105
f 98/253/106 102/254/106 134/255/106 133/256/106
f 133/256/107 134/255/107 103/174/107 101/177/107
f 104/257/108 99/258/108 135/259/108 132/260/108
f 132/260/109 135/259/109 100/170/109 105/173/109
f 102/261/110 104/262/110 132/263/110 134/264/110
f 134/264/111 132/263/111 105/166/111 103/169/111
f 118/265/112 137/266/112 139/267/112 120/268/112
f 137/266/113 90/159/113 91/158/113 139/267/113
f 120/269/114 139/270/114 138/271/114 119/272/114
f 139/270/115 91/155/115 92/154/115 138/271/115
f 63/273/116 136/274/116 137/275/116 118/276/116
f 136/274/117 93/151/117 90/150/117 137/275/117
f 119/277/118 138/278/118 136/279/118 63/280/118
f 138/278/119 92/147/119 93/146/119 136/279/119
