# Blender3D v249 OBJ File: curtains.blend
# www.blender3d.org
mtllib curtains.mtl
o Curtains
v -1.023682 0.569940 2.194945
v -0.866568 0.635844 0.451213
v -0.845737 -0.110773 0.451213
v -0.945699 -0.079993 2.194946
v -0.866568 0.635844 2.074945
v -0.845737 -0.110773 2.074945
v -0.916622 0.480014 0.451213
v -0.831125 0.340450 0.451213
v -0.881179 0.184620 0.451213
v -0.795682 0.045056 0.451213
v -1.008085 0.439953 2.194945
v -0.992489 0.309967 2.194945
v -0.976892 0.179980 2.194946
v -0.961296 0.049994 2.194946
v -0.916622 0.480014 2.074945
v -0.831125 0.340450 2.074945
v -0.881179 0.184621 2.074945
v -0.795682 0.045056 2.074945
v -1.002293 0.059458 2.194945
v -0.838447 0.106175 0.451213
v -0.906709 -0.637607 0.451213
v -1.002293 -0.595136 2.194946
v -0.838447 0.106175 2.074945
v -0.906709 -0.637606 2.074945
v -0.906709 -0.042581 0.451213
v -0.838447 -0.191338 0.451213
v -0.906709 -0.340094 0.451213
v -0.838447 -0.488850 0.451213
v -1.002293 -0.071461 2.194945
v -1.002293 -0.202380 2.194945
v -1.002293 -0.333299 2.194946
v -1.002293 -0.464217 2.194946
v -0.906709 -0.042581 2.074945
v -0.838447 -0.191337 2.074945
v -0.906709 -0.340094 2.074945
v -0.838447 -0.488850 2.074945
vn 0.887356 -0.211982 0.409406
vn 0.932463 0.108524 0.344493
vn 0.668081 0.084170 0.739280
vn 0.662374 -0.079836 0.744865
vn 0.934660 0.111148 0.337626
vn 0.680258 0.082736 0.728263
vn 0.932035 0.113315 0.344157
vn 0.668447 0.078402 0.739586
vn 0.933836 0.116184 0.338237
vn 0.681478 0.076937 0.727744
vn 0.710685 -0.085665 0.698233
vn 0.900998 -0.212134 0.378368
vn 0.952086 -0.305795 0.000000
vn 0.992859 0.119114 0.000000
vn 0.855800 -0.316172 0.409406
vn 0.938749 -0.003296 0.344493
vn 0.673360 0.003967 0.739280
vn 0.648152 -0.158177 0.744865
vn 0.941252 -0.000946 0.337626
vn 0.685263 0.001099 0.728263
vn 0.938902 0.001465 0.344157
vn 0.673055 -0.001770 0.739586
vn 0.941038 0.004120 0.338237
vn 0.685812 -0.004761 0.727744
vn 0.695425 -0.169713 0.698233
vn 0.869320 -0.317972 0.378368
vn 0.908872 -0.417066 0.000000
vn 1.000000 0.000000 0.000000
usemtl Material.001
s 1
f 6//1 18//2 14//3 4//4
f 18//2 17//5 13//6 14//3
f 17//5 16//7 12//8 13//6
f 16//7 15//9 11//10 12//8
f 1//11 11//10 15//9 5//12
f 3//13 10//14 18//2 6//1
f 10//14 9//14 17//5 18//2
f 9//14 8//14 16//7 17//5
f 8//14 7//14 15//9 16//7
f 7//14 2//13 5//12 15//9
f 24//15 36//16 32//17 22//18
f 36//16 35//19 31//20 32//17
f 35//19 34//21 30//22 31//20
f 34//21 33//23 29//24 30//22
f 19//25 29//24 33//23 23//26
f 21//27 28//28 36//16 24//15
f 28//28 27//28 35//19 36//16
f 27//28 26//28 34//21 35//19
f 26//28 25//28 33//23 34//21
f 25//28 20//27 23//26 33//23
