# Blender3D v249 OBJ File: humanblock-rig.blend
# www.blender3d.org
mtllib desklady.mtl
o RLeg.001
v 0.034000 -0.050398 1.302409
v -0.071190 -0.050398 1.302409
v 0.034000 0.050398 1.302409
v -0.071190 0.050398 1.302409
v -0.071190 0.050398 1.562409
v -0.071190 -0.050398 1.562409
v -0.071190 0.050398 1.362409
v -0.071190 -0.050398 1.362409
v 0.034000 0.050398 1.562409
v 0.034000 -0.050398 1.562409
v 0.034000 0.050398 1.362409
v 0.034000 -0.050398 1.362409
v -0.100000 0.050398 1.562409
v -0.100000 -0.050398 1.562409
v -0.100000 0.050398 1.362409
v -0.100000 -0.050398 1.362409
v 0.100000 0.050398 1.562409
v 0.100000 -0.050398 1.562409
v 0.100000 0.050398 1.362409
v 0.100000 -0.050398 1.362409
v -0.071190 0.075000 1.562409
v -0.071190 0.075000 1.362409
v -0.071190 -0.075000 1.562409
v -0.071190 -0.075000 1.362409
v 0.034000 0.075000 1.562409
v 0.034000 0.075000 1.362409
v 0.034000 -0.075000 1.562409
v 0.034000 -0.075000 1.362409
v -0.100000 0.075000 1.562409
v -0.100000 0.075000 1.362409
v -0.100000 -0.075000 1.362409
v -0.100000 -0.075000 1.562409
v 0.100000 0.075000 1.562409
v 0.100000 0.075000 1.362409
v 0.100000 -0.075000 1.362409
v 0.100000 -0.075000 1.562409
v 0.075000 0.136094 0.004245
v 0.075000 0.016094 0.004245
v 0.075000 0.136094 0.073421
v 0.075000 0.016094 0.073421
v 0.075000 -0.133412 0.004245
v 0.075000 -0.013412 0.004245
v 0.075000 -0.133412 0.073421
v 0.075000 -0.013412 0.073421
v 0.075000 0.000000 1.302767
v 0.034000 0.000000 1.302767
v -0.075380 0.204486 1.243853
v 0.075000 0.016094 0.454093
v -0.075000 0.016094 0.454093
v -0.075000 0.136094 0.454093
v 0.075000 0.136094 0.454093
v -0.075000 0.136094 0.073421
v -0.075000 0.016094 0.073421
v -0.075000 0.016094 0.004245
v -0.075000 0.136094 0.004245
v 0.171823 0.136094 0.073421
v 0.171823 0.016094 0.073421
v 0.197163 0.016094 0.004245
v 0.197163 0.136094 0.004245
v 0.075000 -0.013412 0.454093
v -0.075000 -0.013412 0.454093
v -0.075000 -0.120151 0.833660
v -0.075000 -0.133412 0.454093
v 0.075000 -0.120151 0.833660
v 0.075000 -0.133412 0.454093
v -0.075000 -0.133412 0.073421
v -0.075000 -0.013412 0.073421
v -0.075000 -0.013412 0.004245
v -0.075000 -0.133412 0.004245
v 0.171823 -0.133412 0.073421
v 0.171823 -0.013412 0.073421
v 0.197163 -0.013412 0.004245
v 0.197163 -0.133412 0.004245
v -0.018580 0.229040 0.866384
v 0.067554 0.179565 0.929498
v 0.129087 0.250004 0.958159
v 0.042953 0.299480 0.895044
v 0.245536 0.069488 0.779976
v 0.221121 0.164075 0.678496
v 0.094908 0.124857 0.657898
v 0.119323 0.030269 0.759378
v 0.075084 -0.151520 1.169126
v -0.073844 -0.153617 1.156720
v -0.018628 -0.228963 0.866347
v 0.067465 -0.179601 0.929496
v 0.073593 -0.202343 1.256249
v 0.129112 -0.250102 0.958199
v -0.075335 -0.204440 1.243844
v 0.043019 -0.299464 0.895050
v 0.245208 -0.069719 0.780002
v 0.220876 -0.164250 0.678516
v 0.094599 -0.124893 0.657856
v 0.118931 -0.030362 0.759343
v 0.075000 0.200000 1.027766
v 0.075000 0.120000 0.885407
v -0.075000 0.120000 0.885407
v -0.075000 0.200000 1.027767
v 0.075000 -0.120000 0.885407
v 0.075000 -0.200000 1.027767
v -0.075000 -0.200000 1.027767
v -0.075000 -0.120000 0.885407
v -0.073806 0.153656 1.156741
v 0.073546 0.202304 1.256227
v 0.075120 0.151474 1.169115
v 0.075000 0.120000 0.833805
v -0.075000 0.120000 0.833806
v -0.075000 -0.000000 0.885407
v -0.075000 -0.000000 1.027767
v 0.075000 -0.000000 0.885407
v 0.075000 -0.000000 1.027767
v -0.075000 -0.000000 1.302767
v -0.075000 -0.000000 1.165267
v 0.075000 -0.000000 1.165267
v 0.075000 -0.000000 0.779856
v -0.075000 -0.000000 0.779856
v -0.070554 -0.219407 1.156215
v 0.080283 -0.113568 1.144279
v 0.077301 -0.215214 1.181026
v -0.067572 -0.117761 1.119467
v -0.070644 0.219500 1.156233
v -0.067497 0.117840 1.119510
v 0.077209 0.215136 1.180981
v 0.080355 0.113476 1.144258
vt 0.176457 0.118888
vt 0.075903 0.118888
vt 0.075903 0.044692
vt 0.168922 0.044692
vt 0.298510 0.044692
vt 0.427413 0.044692
vt 0.426608 0.118888
vt 0.304727 0.118888
vt 0.506410 0.324981
vt 0.232093 0.324981
vt 0.232093 0.148599
vt 0.508323 0.148599
vt 0.736802 0.624945
vt 0.709168 0.624945
vt 0.709168 0.592586
vt 0.736805 0.592593
vt 0.849967 0.624928
vt 0.849945 0.592572
vt 0.877608 0.624912
vt 0.877589 0.592544
vt 0.709213 0.474392
vt 0.736917 0.474410
vt 0.849710 0.474367
vt 0.877434 0.474283
vt 0.586681 0.049129
vt 0.598582 0.048821
vt 0.598943 0.062758
vt 0.586866 0.063454
vt 0.538021 0.045863
vt 0.537995 0.057416
vt 0.527821 0.046195
vt 0.528210 0.058139
vt 0.605636 0.112138
vt 0.595809 0.112537
vt 0.547781 0.106342
vt 0.535826 0.107471
vt 0.709213 0.432763
vt 0.737306 0.432834
vt 0.849101 0.432763
vt 0.877197 0.432522
vt 0.605136 0.139572
vt 0.596239 0.139514
vt 0.549689 0.138865
vt 0.537723 0.139572
vt 0.761679 0.157829
vt 0.747432 0.157947
vt 0.747431 0.049613
vt 0.761678 0.049496
vt 0.816277 0.157829
vt 0.816277 0.049496
vt 0.830524 0.157712
vt 0.830524 0.049378
vt 0.710548 0.183363
vt 0.738997 0.183405
vt 0.848507 0.183631
vt 0.876949 0.183468
vt 0.731826 0.049613
vt 0.731826 0.157947
vt 0.674848 0.049613
vt 0.674848 0.157947
vt 0.846130 0.157712
vt 0.846129 0.049378
vt 0.903108 0.157712
vt 0.903107 0.049378
vt 0.639098 0.049613
vt 0.639098 0.157947
vt 0.938858 0.157712
vt 0.938858 0.049378
vt 0.793128 0.653872
vt 0.817549 0.673739
vt 0.793128 0.673739
vt 0.817552 0.724710
vt 0.890043 0.726553
vt 0.251706 0.596669
vt 0.250267 0.795871
vt 0.320617 0.797611
vt 0.333132 0.640130
vt 0.048000 0.504472
vt 0.049655 0.344116
vt 0.101493 0.337117
vt 0.116205 0.477480
vt 0.189226 0.930299
vt 0.121706 0.906059
vt 0.129691 0.754132
vt 0.189226 0.754132
vt 0.405304 0.931287
vt 0.330662 0.931379
vt 0.330649 0.747292
vt 0.403304 0.747287
vt 0.329304 0.745287
vt 0.330635 0.562906
vt 0.403290 0.562900
vt 0.189226 0.753996
vt 0.129690 0.576597
vt 0.189226 0.576597
vt 0.045753 0.185154
vt 0.101785 0.185691
vt 0.256672 0.963944
vt 0.322200 0.963187
vt 0.252989 0.392960
vt 0.310208 0.443396
vt 0.353507 0.438581
vt 0.410587 0.392960
vt 0.258112 0.522759
vt 0.312065 0.479006
vt 0.411084 0.521761
vt 0.353467 0.474740
vt 0.372087 0.453916
vt 0.371860 0.456417
vt 0.370610 0.454713
vt 0.370692 0.456039
vt 0.342010 0.801124
vt 0.412325 0.801114
vt 0.413255 0.645960
vt 0.117515 0.477152
vt 0.124860 0.341132
vt 0.186286 0.344241
vt 0.182228 0.504986
vt 0.062096 0.931152
vt 0.055518 0.754132
vt 0.115053 0.754132
vt 0.330635 0.931345
vt 0.257960 0.931345
vt 0.257960 0.747334
vt 0.330635 0.747334
vt 0.257960 0.562901
vt 0.330635 0.562900
vt 0.055519 0.576596
vt 0.115055 0.576597
vt 0.129738 0.189004
vt 0.187921 0.184746
vt 0.336692 0.966705
vt 0.405332 0.961224
vt 0.257573 0.395467
vt 0.409884 0.397563
vt 0.353711 0.441085
vt 0.311801 0.445164
vt 0.259890 0.521340
vt 0.313122 0.479603
vt 0.407675 0.522152
vt 0.353191 0.476031
vt 0.371212 0.458567
vt 0.371464 0.456153
vt 0.370025 0.456904
vt 0.370087 0.458187
vt 0.649744 0.578606
vt 0.581593 0.578606
vt 0.581593 0.442305
vt 0.649743 0.442305
vt 0.647392 0.581015
vt 0.584921 0.581015
vt 0.584921 0.444714
vt 0.647392 0.444714
vt 0.647754 0.578606
vt 0.585283 0.578606
vt 0.585283 0.442305
vt 0.647754 0.442305
vt 0.648984 0.578606
vt 0.580833 0.578606
vt 0.580833 0.442305
vt 0.648984 0.442305
vt 0.575704 0.413674
vt 0.575704 0.338877
vt 0.648389 0.338877
vt 0.648389 0.413674
vt 0.540134 0.581826
vt 0.540134 0.443942
vt 0.471193 0.443942
vt 0.471192 0.581826
vt 0.538303 0.580898
vt 0.538303 0.443014
vt 0.475106 0.443014
vt 0.475106 0.580898
vt 0.534766 0.584002
vt 0.534767 0.446118
vt 0.471570 0.446118
vt 0.471570 0.584002
vt 0.538870 0.579371
vt 0.538870 0.441487
vt 0.469928 0.441487
vt 0.469928 0.579371
vt 0.538194 0.419184
vt 0.468630 0.419184
vt 0.468630 0.347791
vt 0.538194 0.347791
vt 0.789848 0.719455
vt 0.715098 0.719455
vt 0.715098 0.650792
vt 0.789848 0.650792
vt 0.713315 0.649509
vt 0.789885 0.649509
vt 0.789885 0.719843
vt 0.713315 0.719843
vt 0.852789 0.719455
vt 0.852789 0.650792
vt 0.854358 0.649509
vt 0.854358 0.719843
vt 0.330635 0.956417
vt 0.257960 0.956417
vt 0.403320 0.956368
vt 0.330664 0.956374
vt 0.403318 0.931374
vt 0.890040 0.653869
vt 0.725368 0.752227
vt 0.783516 0.752226
vt 0.783516 0.821209
vt 0.686603 0.821209
vt 0.841664 0.752226
vt 0.880430 0.821209
vt 0.494496 0.749987
vt 0.552644 0.749987
vt 0.552644 0.818970
vt 0.455730 0.818970
vt 0.610792 0.749987
vt 0.649557 0.818970
vt 0.783516 0.954465
vt 0.686603 0.954465
vt 0.686603 0.887837
vt 0.783516 0.887837
vt 0.880430 0.887837
vt 0.880430 0.954465
vt 0.455730 0.885598
vt 0.552644 0.885598
vt 0.552644 0.952226
vt 0.455730 0.952226
vt 0.649557 0.885598
vt 0.649557 0.952226
vt 0.186484 0.955285
vt 0.121706 0.955285
vt 0.186484 0.931220
vt 0.062171 0.955285
vt 0.117558 0.539609
vt 0.181975 0.505354
vt 0.178791 0.539120
vt 0.117515 0.539564
vt 0.048404 0.545432
vt 0.048028 0.502711
vt 0.116471 0.478005
vt 0.768706 0.673739
vt 0.696216 0.653869
vt 0.768704 0.724710
vt 0.696212 0.726553
vt 0.774599 0.689681
vt 0.702487 0.682046
vt 0.774978 0.680203
vt 0.751714 0.687838
vt 0.823826 0.680203
vt 0.896318 0.682046
vt 0.469928 0.717255
vt 0.538870 0.717255
vt 0.538870 0.702638
vt 0.469928 0.702638
vt 0.471570 0.721886
vt 0.534767 0.721886
vt 0.534767 0.707269
vt 0.471570 0.707269
vt 0.475107 0.718782
vt 0.538304 0.718781
vt 0.538304 0.704165
vt 0.475107 0.704165
vt 0.471193 0.719710
vt 0.540134 0.719710
vt 0.540134 0.705093
vt 0.471193 0.705093
vt 0.580833 0.714906
vt 0.580833 0.700458
vt 0.648984 0.700458
vt 0.648984 0.714907
vt 0.585283 0.714907
vt 0.585283 0.700458
vt 0.647754 0.700458
vt 0.647754 0.714906
vt 0.584921 0.717315
vt 0.584921 0.702866
vt 0.647392 0.702866
vt 0.647392 0.717315
vt 0.581593 0.714907
vt 0.581593 0.700458
vt 0.649743 0.700458
vt 0.649743 0.714907
vn 1.000000 0.000000 0.000000
vn -1.000000 -0.000000 0.000000
vn -0.000000 -1.000000 -0.000000
vn 0.000000 1.000000 -0.000000
vn 0.000000 0.000000 1.000000
vn 0.000000 -0.000001 1.000000
vn -0.000000 0.000000 -1.000000
vn -0.000000 0.000005 -1.000000
vn 0.000001 0.000002 -1.000000
vn 0.000001 -1.000000 -0.000000
vn -0.000000 0.007089 0.999975
vn 0.000000 0.355235 0.934777
vn -0.000000 -0.998782 -0.049344
vn -0.000000 0.999103 0.042347
vn -0.000001 1.000000 0.000000
vn 0.938983 -0.000000 0.343963
vn 0.000000 0.999154 -0.041135
vn -0.000001 -0.999390 0.034915
vn 0.762283 0.645099 0.052646
vn -0.275154 0.744393 -0.608416
vn 0.197346 -0.662477 0.722619
vn -0.812042 -0.582515 0.035551
vn 0.315586 -0.655072 -0.686503
vn 0.762491 -0.644889 0.052214
vn -0.275597 -0.744607 -0.607952
vn 0.197732 0.662768 0.722247
vn -0.812320 0.582094 0.036090
vn 0.316429 0.655111 -0.686077
vn -0.000001 0.871777 -0.489902
vn -0.000000 -0.871778 -0.489902
vn -0.006821 0.943547 0.331170
vn -0.007126 -0.943547 0.331161
vn -0.000001 -0.999996 0.002918
vn 0.015307 0.287192 0.957751
vn -0.999974 0.000915 -0.007211
vn -0.999976 -0.001001 -0.006864
vn -0.999981 0.003498 0.005087
vn -0.999982 -0.003389 0.004930
vn 0.999974 -0.004420 0.005638
vn 0.999972 0.004493 0.005987
vn 1.000000 0.000234 -0.000341
vn 1.000000 -0.000335 -0.000488
vn 0.212089 -0.179348 0.960652
vn -0.043363 -0.328004 0.943680
vn -0.961586 -0.074568 0.264183
vn -0.961368 0.074557 0.264976
vn -0.108119 0.649819 0.752360
vn -0.078202 0.930282 -0.358413
vn 0.993353 0.053615 0.101862
vn 0.945441 0.325666 0.009139
vn -0.994158 -0.048977 -0.096183
vn -0.916477 -0.370101 -0.151973
vn -0.000238 -0.985704 0.168488
vn 0.118317 -0.956256 0.267535
vn -0.108438 -0.649791 0.752338
vn -0.079376 -0.930124 -0.358564
vn 0.993529 -0.051471 0.101247
vn 0.945828 -0.324527 0.009593
vn -0.994290 0.047021 -0.095797
vn -0.916828 0.368997 -0.152540
vn 0.000656 0.985690 0.168565
vn 0.119467 0.956067 0.267700
usemtl Clothes
s off
f 1/1/1 3/2/1 11/3/1 12/4/1
f 8/5/2 7/6/2 4/7/2 2/8/2
f 2/8/3 1/1/3 12/4/3 8/5/3
f 7/9/4 11/10/4 3/11/4 4/12/4
f 14/13/5 32/14/5 23/15/5 6/16/5
f 13/17/6 14/13/6 6/16/6 5/18/6
f 29/19/5 13/17/5 5/18/5 21/20/5
f 6/16/5 23/15/5 27/21/5 10/22/5
f 5/18/6 6/16/6 10/22/6 9/23/6
f 21/20/5 5/18/5 9/23/5 25/24/5
f 15/25/7 30/26/7 22/27/7 7/28/7
f 16/29/7 15/25/7 7/28/7 8/30/7
f 31/31/8 16/29/8 8/30/8 24/32/8
f 7/28/7 22/27/7 26/33/7 11/34/7
f 24/32/8 8/30/8 12/35/8 28/36/8
f 36/37/5 18/38/5 10/22/5 27/21/5
f 9/23/6 10/22/6 18/38/6 17/39/6
f 25/24/5 9/23/5 17/39/5 33/40/5
f 11/34/7 26/33/7 34/41/7 19/42/7
f 12/35/7 11/34/7 19/42/7 20/43/7
f 28/36/9 12/35/9 20/43/9 35/44/9
f 13/45/2 29/46/2 30/47/2 15/48/2
f 14/49/2 13/45/2 15/48/2 16/50/2
f 32/51/2 14/49/2 16/50/2 31/52/2
f 18/38/1 36/37/1 35/53/1 20/54/1
f 17/39/1 18/38/1 20/54/1 19/55/1
f 33/40/1 17/39/1 19/55/1 34/56/1
f 22/57/4 30/47/4 29/46/4 21/58/4
f 26/59/4 22/57/4 21/58/4 25/60/4
f 23/61/10 32/51/10 31/52/10 24/62/10
f 27/63/3 23/61/3 24/62/3 28/64/3
f 34/65/4 26/59/4 25/60/4 33/66/4
f 36/67/3 27/63/3 28/64/3 35/68/3
f 45/69/11 3/70/11 46/71/11
f 4/72/12 3/70/12 47/73/12
f 115/74/13 49/75/13 48/76/13 114/77/13
f 106/78/2 50/79/2 49/80/2 115/81/2
f 114/82/1 48/83/1 51/84/1 105/85/1
f 105/86/14 51/87/14 50/88/14 106/89/14
f 51/89/15 39/90/15 52/91/15 50/92/15
f 48/93/1 40/84/1 39/94/1 51/95/1
f 50/79/2 52/96/2 53/97/2 49/80/2
f 49/75/3 53/98/3 40/99/3 48/76/3
f 53/100/3 54/101/3 38/102/3 40/103/3
f 52/104/2 55/105/2 54/101/2 53/100/2
f 55/105/15 52/104/15 39/106/15 37/107/15
f 38/102/7 54/101/7 55/105/7 37/107/7
f 40/103/5 57/108/5 56/109/5 39/106/5
f 38/102/3 58/110/3 57/108/3 40/103/3
f 39/106/4 56/109/4 59/111/4 37/107/4
f 37/107/7 59/111/7 58/110/7 38/102/7
f 57/108/16 58/110/16 59/111/16 56/109/16
f 115/77/17 114/112/17 60/113/17 61/114/17
f 62/115/2 115/116/2 61/117/2 63/118/2
f 114/83/1 64/119/1 65/120/1 60/121/1
f 64/122/18 62/123/18 63/124/18 65/125/18
f 65/125/3 63/124/3 66/126/3 43/127/3
f 60/121/1 65/120/1 43/128/1 44/129/1
f 63/116/2 61/130/2 67/131/2 66/117/2
f 61/112/4 60/132/4 44/133/4 67/113/4
f 67/134/4 44/135/4 42/136/4 68/137/4
f 66/138/2 67/134/2 68/137/2 69/139/2
f 43/140/3 66/138/3 69/139/3 41/141/3
f 69/139/7 68/137/7 42/136/7 41/141/7
f 44/135/5 43/140/5 70/142/5 71/143/5
f 42/136/4 44/135/4 71/143/4 72/144/4
f 43/140/3 41/141/3 73/145/3 70/142/3
f 41/141/7 42/136/7 72/144/7 73/145/7
f 71/143/16 70/142/16 73/145/16 72/144/16
f 77/146/19 76/147/19 78/148/19 79/149/19
f 74/150/20 77/151/20 79/152/20 80/153/20
f 76/154/21 75/155/21 81/156/21 78/157/21
f 75/158/22 74/159/22 80/160/22 81/161/22
f 78/162/23 81/163/23 80/164/23 79/165/23
f 89/166/24 91/167/24 90/168/24 87/169/24
f 84/170/25 92/171/25 91/172/25 89/173/25
f 87/174/26 90/175/26 93/176/26 85/177/26
f 85/178/27 93/179/27 92/180/27 84/181/27
f 90/182/28 91/183/28 92/184/28 93/185/28
f 94/186/29 95/187/29 96/188/29 97/189/29
f 98/190/30 99/191/30 100/192/30 101/193/30
f 104/194/31 94/186/31 97/189/31 102/195/31
f 99/191/32 82/196/32 83/197/32 100/192/32
f 98/198/33 101/199/33 62/123/33 64/122/33
f 96/200/4 95/201/4 105/87/4 106/202/4
f 47/73/34 3/70/34 45/69/34 103/203/34
f 96/204/2 107/205/2 108/206/2 97/207/2
f 107/205/2 101/208/2 100/209/2 108/206/2
f 98/210/1 109/211/1 110/212/1 99/213/1
f 109/211/1 95/214/1 94/215/1 110/212/1
f 111/216/35 47/217/35 102/218/35 112/219/35
f 112/219/36 83/220/36 88/221/36 111/216/36
f 97/207/37 108/206/37 112/219/37 102/218/37
f 108/206/38 100/209/38 83/220/38 112/219/38
f 82/222/39 113/223/39 45/224/39 86/225/39
f 113/223/40 104/226/40 103/227/40 45/224/40
f 99/213/41 110/212/41 113/223/41 82/222/41
f 110/212/42 94/215/42 104/226/42 113/223/42
f 95/228/1 109/229/1 114/83/1 105/230/1
f 109/229/1 98/231/1 64/119/1 114/83/1
f 101/232/2 107/115/2 115/233/2 62/234/2
f 107/235/2 96/236/2 106/237/2 115/238/2
f 46/71/43 1/239/43 86/240/43 45/69/43
f 86/240/44 1/239/44 2/241/44 88/242/44
f 111/243/45 88/244/45 2/245/45
f 111/246/46 4/247/46 47/248/46
f 83/249/47 82/250/47 117/251/47 119/252/47
f 119/252/48 117/251/48 85/178/48 84/181/48
f 82/253/49 86/254/49 118/255/49 117/256/49
f 117/256/50 118/255/50 87/174/50 85/177/50
f 88/257/51 83/258/51 119/259/51 116/260/51
f 116/260/52 119/259/52 84/170/52 89/173/52
f 86/261/53 88/262/53 116/263/53 118/264/53
f 118/264/54 116/263/54 89/166/54 87/169/54
f 102/265/55 121/266/55 123/267/55 104/268/55
f 121/266/56 74/159/56 75/158/56 123/267/56
f 104/269/57 123/270/57 122/271/57 103/272/57
f 123/270/58 75/155/58 76/154/58 122/271/58
f 47/273/59 120/274/59 121/275/59 102/276/59
f 120/274/60 77/151/60 74/150/60 121/275/60
f 103/277/61 122/278/61 120/279/61 47/280/61
f 122/278/62 76/147/62 77/146/62 120/279/62
