# Blender3D v249 OBJ File: humanblock-rig.blend
# www.blender3d.org
mtllib drunk-lie.mtl
o RLeg.001
v -0.446207 -0.050331 0.443692
v -0.446207 -0.003802 0.366577
v -0.446207 0.023564 0.488278
v -0.446207 0.070093 0.411162
v -0.706207 0.089788 0.449711
v -0.706207 0.042794 0.360539
v -0.506207 0.089788 0.449711
v -0.506207 0.042794 0.360539
v -0.706207 -0.003270 0.498752
v -0.706207 -0.050264 0.409581
v -0.506207 -0.003270 0.498752
v -0.506207 -0.050264 0.409581
v -0.706207 0.115275 0.436279
v -0.706207 0.068282 0.347107
v -0.506207 0.115275 0.436279
v -0.506207 0.068282 0.347107
v -0.706207 -0.061658 0.529523
v -0.706207 -0.108652 0.440352
v -0.506207 -0.061658 0.529523
v -0.506207 -0.108652 0.440352
v -0.706207 0.101258 0.471475
v -0.506207 0.101258 0.471475
v -0.706207 0.031325 0.338775
v -0.506206 0.031325 0.338775
v -0.706207 0.008200 0.520517
v -0.506207 0.008200 0.520517
v -0.706207 -0.061734 0.387817
v -0.506206 -0.061734 0.387817
v -0.706207 0.126745 0.458043
v -0.506207 0.126745 0.458043
v -0.506206 0.056812 0.325343
v -0.706207 0.056812 0.325343
v -0.706207 -0.050188 0.551287
v -0.506207 -0.050188 0.551287
v -0.506207 -0.120122 0.418587
v -0.706207 -0.120122 0.418587
v 0.872317 0.136094 0.448856
v 0.872317 0.016094 0.448856
v 0.804808 0.136094 0.516505
v 0.804808 0.016094 0.516505
v 0.884257 -0.126228 0.449429
v 0.848801 -0.090712 0.558432
v 0.804414 -0.192963 0.449429
v 0.786614 -0.150113 0.558432
v -0.446564 0.000000 0.518804
v -0.446564 0.000000 0.477804
v -0.417392 0.237359 0.368804
v 0.393998 0.016094 0.578600
v 0.398822 0.016094 0.430456
v 0.398822 0.136094 0.430456
v 0.393998 0.136094 0.578600
v 0.739774 0.136094 0.392102
v 0.739774 0.016094 0.392102
v 0.760437 0.016094 0.348942
v 0.760437 0.136094 0.348942
v 0.898457 0.136094 0.564945
v 0.898457 0.016094 0.564945
v 0.963435 0.016094 0.530227
v 0.963435 0.136094 0.530227
v 0.388365 -0.161480 0.558432
v 0.401793 -0.026604 0.495701
v 0.030443 0.004458 0.398744
v 0.396847 -0.076282 0.386698
v 0.003192 -0.129042 0.461475
v 0.383419 -0.211158 0.449429
v 0.756085 -0.076624 0.386698
v 0.738285 -0.033773 0.495701
v 0.752537 0.005714 0.495701
v 0.787993 -0.029802 0.386698
v 0.897439 -0.237343 0.489921
v 0.861983 -0.201827 0.598924
v 0.927201 -0.169244 0.609521
v 0.962657 -0.204760 0.500519
v -0.064723 0.209473 0.368804
v -0.064723 0.209473 0.518804
v -0.096170 0.343329 0.518804
v -0.096170 0.343329 0.368804
v 0.195878 0.411940 0.518804
v 0.195878 0.411940 0.368804
v 0.227325 0.278084 0.368804
v 0.227325 0.278084 0.518804
v -0.334994 -0.170037 0.518804
v -0.334994 -0.170037 0.368804
v -0.064836 -0.188358 0.368804
v -0.064836 -0.188358 0.518804
v -0.414809 -0.237891 0.518804
v -0.086966 -0.324065 0.518804
v -0.414809 -0.237891 0.368804
v -0.086966 -0.324065 0.368804
v 0.209123 -0.372349 0.518804
v 0.209123 -0.372349 0.368804
v 0.231253 -0.236641 0.368804
v 0.231253 -0.236641 0.518804
v -0.171564 0.200000 0.518804
v -0.029204 0.120000 0.518804
v -0.029205 0.120000 0.368804
v -0.171564 0.200000 0.368804
v -0.029205 -0.120000 0.518804
v -0.171564 -0.200000 0.518804
v -0.171564 -0.200000 0.368804
v -0.029205 -0.120000 0.368804
v -0.332918 0.170431 0.368804
v -0.417391 0.237359 0.518804
v -0.332918 0.170431 0.518804
v 0.009367 0.120000 0.508016
v 0.037203 0.120000 0.360622
v -0.029205 -0.000000 0.368804
v -0.171564 -0.000000 0.368804
v -0.029204 -0.000000 0.518804
v -0.171564 -0.000000 0.518804
v -0.446564 -0.000000 0.368804
v -0.309064 -0.000000 0.368804
v -0.309064 -0.000000 0.518804
v 0.064169 -0.045285 0.544321
v 0.091713 0.021465 0.439258
v -0.351667 -0.280900 0.368804
v -0.329537 -0.145193 0.518804
v -0.351667 -0.280900 0.518804
v -0.329537 -0.145193 0.368804
v -0.357260 0.281991 0.368804
v -0.325813 0.148135 0.368804
v -0.357260 0.281990 0.518804
v -0.325813 0.148135 0.518804
vt 0.176457 0.118888
vt 0.075903 0.118888
vt 0.075903 0.044692
vt 0.168922 0.044692
vt 0.298510 0.044692
vt 0.427413 0.044692
vt 0.426608 0.118888
vt 0.304727 0.118888
vt 0.506410 0.324981
vt 0.232093 0.324981
vt 0.232093 0.148599
vt 0.508323 0.148599
vt 0.736802 0.624945
vt 0.709168 0.624945
vt 0.709168 0.592586
vt 0.736805 0.592593
vt 0.849967 0.624928
vt 0.849945 0.592572
vt 0.877608 0.624912
vt 0.877589 0.592544
vt 0.709213 0.474392
vt 0.736917 0.474410
vt 0.849710 0.474367
vt 0.877434 0.474283
vt 0.586681 0.049129
vt 0.598582 0.048821
vt 0.598943 0.062758
vt 0.586866 0.063454
vt 0.538021 0.045863
vt 0.537995 0.057416
vt 0.527821 0.046195
vt 0.528210 0.058139
vt 0.605636 0.112138
vt 0.595809 0.112537
vt 0.547781 0.106342
vt 0.535826 0.107471
vt 0.709213 0.432763
vt 0.737306 0.432834
vt 0.849101 0.432763
vt 0.877197 0.432522
vt 0.605136 0.139572
vt 0.596239 0.139514
vt 0.549689 0.138865
vt 0.537723 0.139572
vt 0.761679 0.157829
vt 0.747432 0.157947
vt 0.747431 0.049613
vt 0.761678 0.049496
vt 0.816277 0.157829
vt 0.816277 0.049496
vt 0.830524 0.157712
vt 0.830524 0.049378
vt 0.710548 0.183363
vt 0.738997 0.183405
vt 0.848507 0.183631
vt 0.876949 0.183468
vt 0.731826 0.049613
vt 0.731826 0.157947
vt 0.674848 0.049613
vt 0.674848 0.157947
vt 0.846130 0.157712
vt 0.846129 0.049378
vt 0.903108 0.157712
vt 0.903107 0.049378
vt 0.639098 0.049613
vt 0.639098 0.157947
vt 0.938858 0.157712
vt 0.938858 0.049378
vt 0.793128 0.653872
vt 0.817549 0.673739
vt 0.793128 0.673739
vt 0.817552 0.724710
vt 0.890043 0.726553
vt 0.251706 0.596669
vt 0.250267 0.795871
vt 0.320617 0.797611
vt 0.333132 0.640130
vt 0.048000 0.504472
vt 0.049655 0.344116
vt 0.101493 0.337117
vt 0.116205 0.477480
vt 0.189226 0.930299
vt 0.121706 0.906059
vt 0.129691 0.754132
vt 0.189226 0.754132
vt 0.405304 0.931287
vt 0.330662 0.931379
vt 0.330649 0.747292
vt 0.403304 0.747287
vt 0.329304 0.745287
vt 0.330635 0.562906
vt 0.403290 0.562900
vt 0.189226 0.753996
vt 0.129690 0.576597
vt 0.189226 0.576597
vt 0.045753 0.185154
vt 0.101785 0.185691
vt 0.256672 0.963944
vt 0.322200 0.963187
vt 0.252989 0.392960
vt 0.310208 0.443396
vt 0.353507 0.438581
vt 0.410587 0.392960
vt 0.258112 0.522759
vt 0.312065 0.479006
vt 0.411084 0.521761
vt 0.353467 0.474740
vt 0.372087 0.453916
vt 0.371860 0.456417
vt 0.370610 0.454713
vt 0.370692 0.456039
vt 0.342010 0.801124
vt 0.412325 0.801114
vt 0.413255 0.645960
vt 0.117515 0.477152
vt 0.124860 0.341132
vt 0.186286 0.344241
vt 0.182228 0.504986
vt 0.062096 0.931152
vt 0.055518 0.754132
vt 0.115053 0.754132
vt 0.330635 0.931345
vt 0.257960 0.931345
vt 0.257960 0.747334
vt 0.330635 0.747334
vt 0.257960 0.562901
vt 0.330635 0.562900
vt 0.055519 0.576596
vt 0.115055 0.576597
vt 0.129738 0.189004
vt 0.187921 0.184746
vt 0.336692 0.966705
vt 0.405332 0.961224
vt 0.257573 0.395467
vt 0.409884 0.397563
vt 0.353711 0.441085
vt 0.311801 0.445164
vt 0.259890 0.521340
vt 0.313122 0.479603
vt 0.407675 0.522152
vt 0.353191 0.476031
vt 0.371212 0.458567
vt 0.371464 0.456153
vt 0.370025 0.456904
vt 0.370087 0.458187
vt 0.649744 0.578606
vt 0.581593 0.578606
vt 0.581593 0.442305
vt 0.649743 0.442305
vt 0.647392 0.581015
vt 0.584921 0.581015
vt 0.584921 0.444714
vt 0.647392 0.444714
vt 0.647754 0.578606
vt 0.585283 0.578606
vt 0.585283 0.442305
vt 0.647754 0.442305
vt 0.648984 0.578606
vt 0.580833 0.578606
vt 0.580833 0.442305
vt 0.648984 0.442305
vt 0.575704 0.413674
vt 0.575704 0.338877
vt 0.648389 0.338877
vt 0.648389 0.413674
vt 0.540134 0.581826
vt 0.540134 0.443942
vt 0.471193 0.443942
vt 0.471192 0.581826
vt 0.538303 0.580898
vt 0.538303 0.443014
vt 0.475106 0.443014
vt 0.475106 0.580898
vt 0.534766 0.584002
vt 0.534767 0.446118
vt 0.471570 0.446118
vt 0.471570 0.584002
vt 0.538870 0.579371
vt 0.538870 0.441487
vt 0.469928 0.441487
vt 0.469928 0.579371
vt 0.538194 0.419184
vt 0.468630 0.419184
vt 0.468630 0.347791
vt 0.538194 0.347791
vt 0.789848 0.719455
vt 0.715098 0.719455
vt 0.715098 0.650792
vt 0.789848 0.650792
vt 0.713315 0.649509
vt 0.789885 0.649509
vt 0.789885 0.719843
vt 0.713315 0.719843
vt 0.852789 0.719455
vt 0.852789 0.650792
vt 0.854358 0.649509
vt 0.854358 0.719843
vt 0.330635 0.956417
vt 0.257960 0.956417
vt 0.403320 0.956368
vt 0.330664 0.956374
vt 0.403318 0.931374
vt 0.890040 0.653869
vt 0.725368 0.752227
vt 0.783516 0.752226
vt 0.783516 0.821209
vt 0.686603 0.821209
vt 0.841664 0.752226
vt 0.880430 0.821209
vt 0.494496 0.749987
vt 0.552644 0.749987
vt 0.552644 0.818970
vt 0.455730 0.818970
vt 0.610792 0.749987
vt 0.649557 0.818970
vt 0.783516 0.954465
vt 0.686603 0.954465
vt 0.686603 0.887837
vt 0.783516 0.887837
vt 0.880430 0.887837
vt 0.880430 0.954465
vt 0.455730 0.885598
vt 0.552644 0.885598
vt 0.552644 0.952226
vt 0.455730 0.952226
vt 0.649557 0.885598
vt 0.649557 0.952226
vt 0.186484 0.955285
vt 0.121706 0.955285
vt 0.186484 0.931220
vt 0.062171 0.955285
vt 0.117558 0.539609
vt 0.181975 0.505354
vt 0.178791 0.539120
vt 0.117515 0.539564
vt 0.048404 0.545432
vt 0.048028 0.502711
vt 0.116471 0.478005
vt 0.768706 0.673739
vt 0.696216 0.653869
vt 0.768704 0.724710
vt 0.696212 0.726553
vt 0.774599 0.689681
vt 0.702487 0.682046
vt 0.774978 0.680203
vt 0.751714 0.687838
vt 0.823826 0.680203
vt 0.896318 0.682046
vt 0.469928 0.717255
vt 0.538870 0.717255
vt 0.538870 0.702638
vt 0.469928 0.702638
vt 0.471570 0.721886
vt 0.534767 0.721886
vt 0.534767 0.707269
vt 0.471570 0.707269
vt 0.475107 0.718782
vt 0.538304 0.718781
vt 0.538304 0.704165
vt 0.475107 0.704165
vt 0.471193 0.719710
vt 0.540134 0.719710
vt 0.540134 0.705093
vt 0.471193 0.705093
vt 0.580833 0.714906
vt 0.580833 0.700458
vt 0.648984 0.700458
vt 0.648984 0.714907
vt 0.585283 0.714907
vt 0.585283 0.700458
vt 0.647754 0.700458
vt 0.647754 0.714906
vt 0.584921 0.717315
vt 0.584921 0.702866
vt 0.647392 0.702866
vt 0.647392 0.717315
vt 0.581593 0.714907
vt 0.581593 0.700458
vt 0.649743 0.700458
vt 0.649743 0.714907
vn 0.033390 -0.741481 0.670143
vn 0.222465 0.723303 -0.653715
vn -0.012520 -0.670464 -0.741836
vn 0.254520 0.648435 0.717462
vn -1.000000 0.000000 0.000000
vn -1.000000 -0.000001 -0.000001
vn 1.000000 -0.000000 0.000000
vn 1.000000 0.000002 0.000004
vn 1.000000 0.000000 0.000003
vn 0.000000 0.884668 -0.466222
vn -0.000000 -0.884668 0.466221
vn -0.000000 -0.884668 0.466222
vn -0.000000 0.466222 0.884668
vn -0.000000 0.466221 0.884668
vn 0.000000 -0.466222 -0.884668
vn -0.999885 0.015160 -0.000000
vn -0.972939 0.197838 0.119369
vn 0.094601 -0.965543 -0.242442
vn 0.091241 -0.316943 -0.944046
vn -0.154675 0.095427 0.983346
vn -0.042216 0.999098 -0.004666
vn -0.000000 1.000000 -0.000001
vn 0.149454 -0.000000 0.988769
vn -0.111787 0.000000 -0.993732
vn 0.000000 -1.000000 0.000000
vn -0.901957 0.000000 -0.431825
vn -0.000001 1.000000 -0.000000
vn 0.666092 -0.000000 -0.745870
vn -0.459424 0.000000 0.888217
vn -0.000000 1.000000 0.000000
vn 0.471249 0.000000 0.882000
vn 0.076682 0.628535 0.773992
vn 0.194763 0.860814 -0.470177
vn -0.217095 -0.764830 0.606552
vn -0.117765 -0.405843 -0.906324
vn 0.010197 -0.445641 -0.895154
vn 0.033173 -0.919308 0.392139
vn 0.009940 0.920684 -0.390181
vn -0.002551 0.446513 0.894774
vn -0.361178 0.279190 0.889721
vn -0.822937 0.440130 -0.359250
vn 0.317362 -0.312316 -0.895399
vn 0.707703 0.706510 -0.000000
vn -0.546651 -0.821581 0.161792
vn -0.290157 0.297086 0.909697
vn 0.272645 -0.300701 -0.913916
vn 0.359179 -0.846632 0.392689
vn -0.228705 0.973496 0.000000
vn 0.000000 0.000000 -1.000000
vn -0.000000 -0.000000 1.000000
vn 0.228705 -0.973496 -0.000000
vn 0.973496 0.228705 0.000000
vn -0.160945 -0.986963 0.000000
vn 0.160945 0.986963 0.000000
vn 0.986963 -0.160945 0.000000
vn 0.489902 0.871777 -0.000001
vn 0.489902 -0.871778 -0.000000
vn -0.180255 0.983620 0.000000
vn -0.180332 -0.983606 0.000000
vn 0.706428 -0.636729 -0.309087
vn -0.991210 0.131425 0.015194
vn -0.072100 0.112271 0.991058
vn 0.062833 -0.391986 0.917823
vn 0.443691 0.065875 -0.893755
vn 0.331011 -0.245311 -0.911183
vn -0.990021 -0.119197 0.075163
vn -0.987754 -0.152846 -0.031313
vn 0.989005 0.132016 -0.066646
vn -0.974459 0.119765 -0.189962
vn -0.976716 0.214537 -0.000000
vn -0.000001 0.000001 1.000000
vn -0.562959 -0.826485 0.000001
vn -0.160945 -0.986963 0.000001
vn -0.952791 -0.303627 0.000000
vn 0.228705 -0.973496 -0.000001
vn -0.596004 0.802982 0.000001
vn -0.228705 0.973496 0.000001
usemtl None_template-man.png
s off
f 1/1/1 3/2/1 11/3/1 12/4/1
f 8/5/2 7/6/2 4/7/2 2/8/2
f 2/8/3 1/1/3 12/4/3 8/5/3
f 7/9/4 11/10/4 3/11/4 4/12/4
f 14/13/5 32/14/5 23/15/5 6/16/5
f 13/17/6 14/13/6 6/16/6 5/18/6
f 29/19/5 13/17/5 5/18/5 21/20/5
f 6/16/5 23/15/5 27/21/5 10/22/5
f 5/18/6 6/16/6 10/22/6 9/23/6
f 21/20/5 5/18/5 9/23/5 25/24/5
f 15/25/7 30/26/7 22/27/7 7/28/7
f 16/29/7 15/25/7 7/28/7 8/30/7
f 31/31/8 16/29/8 8/30/8 24/32/8
f 7/28/7 22/27/7 26/33/7 11/34/7
f 24/32/8 8/30/8 12/35/8 28/36/8
f 36/37/5 18/38/5 10/22/5 27/21/5
f 9/23/6 10/22/6 18/38/6 17/39/6
f 25/24/5 9/23/5 17/39/5 33/40/5
f 11/34/7 26/33/7 34/41/7 19/42/7
f 12/35/7 11/34/7 19/42/7 20/43/7
f 28/36/9 12/35/9 20/43/9 35/44/9
f 13/45/10 29/46/10 30/47/10 15/48/10
f 14/49/10 13/45/10 15/48/10 16/50/10
f 32/51/10 14/49/10 16/50/10 31/52/10
f 18/38/11 36/37/11 35/53/11 20/54/11
f 17/39/12 18/38/12 20/54/12 19/55/12
f 33/40/11 17/39/11 19/55/11 34/56/11
f 22/57/13 30/47/13 29/46/13 21/58/13
f 26/59/14 22/57/14 21/58/14 25/60/14
f 23/61/15 32/51/15 31/52/15 24/62/15
f 27/63/15 23/61/15 24/62/15 28/64/15
f 34/65/13 26/59/13 25/60/13 33/66/13
f 36/67/15 27/63/15 28/64/15 35/68/15
f 45/69/16 3/70/16 46/71/16
f 4/72/17 3/70/17 47/73/17
f 115/74/18 49/75/18 48/76/18 114/77/18
f 106/78/19 50/79/19 49/80/19 115/81/19
f 114/82/20 48/83/20 51/84/20 105/85/20
f 105/86/21 51/87/21 50/88/21 106/89/21
f 51/89/22 39/90/22 52/91/22 50/92/22
f 48/93/23 40/84/23 39/94/23 51/95/23
f 50/79/24 52/96/24 53/97/24 49/80/24
f 49/75/25 53/98/25 40/99/25 48/76/25
f 53/100/25 54/101/25 38/102/25 40/103/25
f 52/104/26 55/105/26 54/101/26 53/100/26
f 55/105/27 52/104/27 39/106/27 37/107/27
f 38/102/28 54/101/28 55/105/28 37/107/28
f 40/103/29 57/108/29 56/109/29 39/106/29
f 38/102/25 58/110/25 57/108/25 40/103/25
f 39/106/30 56/109/30 59/111/30 37/107/30
f 37/107/28 59/111/28 58/110/28 38/102/28
f 57/108/31 58/110/31 59/111/31 56/109/31
f 115/77/32 114/112/32 60/113/32 61/114/32
f 62/115/33 115/116/33 61/117/33 63/118/33
f 114/83/34 64/119/34 65/120/34 60/121/34
f 64/122/35 62/123/35 63/124/35 65/125/35
f 65/125/36 63/124/36 66/126/36 43/127/36
f 60/121/37 65/120/37 43/128/37 44/129/37
f 63/116/38 61/130/38 67/131/38 66/117/38
f 61/112/39 60/132/39 44/133/39 67/113/39
f 67/134/40 44/135/40 42/136/40 68/137/40
f 66/138/41 67/134/41 68/137/41 69/139/41
f 43/140/42 66/138/42 69/139/42 41/141/42
f 69/139/43 68/137/43 42/136/43 41/141/43
f 44/135/44 43/140/44 70/142/44 71/143/44
f 42/136/45 44/135/45 71/143/45 72/144/45
f 43/140/46 41/141/46 73/145/46 70/142/46
f 41/141/43 42/136/43 72/144/43 73/145/43
f 71/143/47 70/142/47 73/145/47 72/144/47
f 77/146/48 76/147/48 78/148/48 79/149/48
f 74/150/49 77/151/49 79/152/49 80/153/49
f 76/154/50 75/155/50 81/156/50 78/157/50
f 75/158/51 74/159/51 80/160/51 81/161/51
f 78/162/52 81/163/52 80/164/52 79/165/52
f 89/166/53 91/167/53 90/168/53 87/169/53
f 84/170/49 92/171/49 91/172/49 89/173/49
f 87/174/50 90/175/50 93/176/50 85/177/50
f 85/178/54 93/179/54 92/180/54 84/181/54
f 90/182/55 91/183/55 92/184/55 93/185/55
f 94/186/56 95/187/56 96/188/56 97/189/56
f 98/190/57 99/191/57 100/192/57 101/193/57
f 104/194/58 94/186/58 97/189/58 102/195/58
f 99/191/59 82/196/59 83/197/59 100/192/59
f 98/198/60 101/199/60 62/123/60 64/122/60
f 96/200/30 95/201/30 105/87/30 106/202/30
f 47/73/61 3/70/61 45/69/61 103/203/61
f 96/204/49 107/205/49 108/206/49 97/207/49
f 107/205/49 101/208/49 100/209/49 108/206/49
f 98/210/50 109/211/50 110/212/50 99/213/50
f 109/211/50 95/214/50 94/215/50 110/212/50
f 111/216/49 47/217/49 102/218/49 112/219/49
f 112/219/49 83/220/49 88/221/49 111/216/49
f 97/207/49 108/206/49 112/219/49 102/218/49
f 108/206/49 100/209/49 83/220/49 112/219/49
f 82/222/50 113/223/50 45/224/50 86/225/50
f 113/223/50 104/226/50 103/227/50 45/224/50
f 99/213/50 110/212/50 113/223/50 82/222/50
f 110/212/50 94/215/50 104/226/50 113/223/50
f 95/228/62 109/229/62 114/83/62 105/230/62
f 109/229/63 98/231/63 64/119/63 114/83/63
f 101/232/64 107/115/64 115/233/64 62/234/64
f 107/235/65 96/236/65 106/237/65 115/238/65
f 46/71/66 1/239/66 86/240/66 45/69/66
f 86/240/67 1/239/67 2/241/67 88/242/67
f 111/243/68 88/244/68 2/245/68
f 111/246/69 4/247/69 47/248/69
f 83/249/70 82/250/70 117/251/70 119/252/70
f 119/252/54 117/251/54 85/178/54 84/181/54
f 82/253/71 86/254/71 118/255/71 117/256/71
f 117/256/50 118/255/50 87/174/50 85/177/50
f 88/257/49 83/258/49 119/259/49 116/260/49
f 116/260/49 119/259/49 84/170/49 89/173/49
f 86/261/72 88/262/72 116/263/72 118/264/72
f 118/264/73 116/263/73 89/166/73 87/169/73
f 102/265/74 121/266/74 123/267/74 104/268/74
f 121/266/75 74/159/75 75/158/75 123/267/75
f 104/269/50 123/270/50 122/271/50 103/272/50
f 123/270/50 75/155/50 76/154/50 122/271/50
f 47/273/49 120/274/49 121/275/49 102/276/49
f 120/274/49 77/151/49 74/150/49 121/275/49
f 103/277/76 122/278/76 120/279/76 47/280/76
f 122/278/77 76/147/77 77/146/77 120/279/77
