# Blender3D v249 OBJ File: hotelroom-door.blend
# www.blender3d.org
mtllib hotelroom-door.mtl
o WeeDoor
v -0.980000 -0.461827 0.000000
v -0.980000 0.461827 0.000000
v -0.980171 0.461827 1.872467
v -0.980171 -0.461827 1.872467
v -1.010149 -0.461827 1.872467
v -1.010149 0.461827 1.872467
v -1.009978 0.461827 0.000000
v -1.009978 -0.461827 0.000000
v -0.980057 -0.461827 0.624156
v -0.980114 -0.461827 1.248311
v -0.980057 0.461827 0.624156
v -0.980114 0.461827 1.248311
v -1.010092 0.461827 1.248311
v -1.010035 0.461827 0.624156
v -1.010092 -0.461827 1.248311
v -1.010035 -0.461827 0.624156
vt 0.252748 0.158608
vt 0.327143 0.164268
vt 0.321592 0.174471
vt 0.258659 0.167776
vt 0.328338 0.390082
vt 0.250115 0.383285
vt 0.257143 0.372514
vt 0.321114 0.380336
vt 0.553268 0.333136
vt 0.553268 0.182975
vt 0.956000 0.182975
vt 0.956000 0.333136
vt 0.984018 0.487213
vt 0.984018 0.981220
vt 0.529250 0.981220
vt 0.529250 0.487213
vt 0.956000 0.483297
vt 0.956000 0.633458
vt 0.553268 0.633458
vt 0.553268 0.483297
vt 0.224335 0.311560
vt 0.234442 0.310383
vt 0.225168 0.229643
vt 0.236267 0.232471
vt 0.354200 0.230044
vt 0.343519 0.232748
vt 0.356559 0.312148
vt 0.345986 0.310859
vn 0.577349 0.577349 -0.577319
vn 0.577349 -0.577349 -0.577319
vn -0.577319 -0.577319 -0.577380
vn -0.577319 0.577319 -0.577380
vn 0.577319 -0.577319 0.577380
vn 0.577319 0.577319 0.577380
vn -0.577349 0.577349 0.577319
vn -0.577349 -0.577349 0.577319
vn 0.707083 -0.707083 0.000061
vn 0.707083 0.707083 0.000061
vn -0.707083 0.707083 -0.000061
vn -0.707083 -0.707083 -0.000061
usemtl None_dresser.png
s 1
f 2/1/1 1/2/2 8/3/3 7/4/4
f 4/5/5 3/6/6 6/7/7 5/8/8
f 9/9/9 1/10/2 2/11/1 11/12/10
f 11/13/10 12/14/10 10/15/9 9/16/9
f 12/17/10 3/18/6 4/19/5 10/20/9
f 3/6/6 12/21/10 13/22/11 6/7/7
f 12/21/10 11/23/10 14/24/11 13/22/11
f 11/23/10 2/1/1 7/4/4 14/24/11
f 1/2/2 9/25/9 16/26/12 8/3/3
f 9/25/9 10/27/9 15/28/12 16/26/12
f 10/27/9 4/5/5 5/8/8 15/28/12
f 6/7/7 13/22/11 15/28/12 5/8/8
f 13/22/11 14/24/11 16/26/12 15/28/12
f 14/24/11 7/4/4 8/3/3 16/26/12
o Plane
v -0.980000 -1.000000 0.000000
v -0.980000 1.000000 0.000000
v -0.980171 -1.000000 0.099707
v -0.980171 1.000000 0.099707
v -1.000171 1.000000 0.099707
v -1.000171 -1.000000 0.099707
v -1.000171 1.000000 2.499707
v -1.000171 -1.000000 2.499707
v -0.980171 1.000000 2.519707
v -0.980171 -1.000000 2.519707
v -0.980000 -0.461827 0.000000
v -0.980000 0.461827 0.000000
v -1.000171 0.461827 0.099707
v -1.000171 -0.461827 0.099707
v -1.000171 0.461827 2.499707
v -1.000171 -0.461827 2.499707
v -0.980171 0.461827 2.519707
v -0.980171 -0.461827 2.519707
v -1.000171 -0.572153 0.099707
v -1.000171 -0.572153 2.499707
v -0.980171 -0.572153 2.519707
v -1.000171 0.572153 0.099707
v -1.000171 0.572153 2.499707
v -0.980171 0.572153 2.519707
v -1.000171 1.000000 1.995707
v -1.000171 -1.000000 1.995707
v -1.000171 -0.461827 1.995707
v -1.000171 0.461827 1.995707
v -1.000171 -0.572153 1.995707
v -1.000171 0.572153 1.995707
v -1.000171 1.000000 1.872467
v -1.000171 -1.000000 1.872467
v -1.000171 -0.461827 1.872467
v -1.000171 0.461827 1.872467
v -1.000171 -0.572153 1.872467
v -1.000171 0.572153 1.872467
v -0.980171 0.461827 1.872467
v -0.980171 -0.461827 1.872467
v -0.980171 0.572153 1.995707
v -0.980171 0.572153 0.099707
v -0.980171 -0.572153 1.995707
v -0.980171 -0.572153 0.099707
v -1.000171 -0.461827 -0.000293
v -1.000171 0.461827 -0.000293
vt 0.694044 0.678428
vt 0.794578 0.674996
vt 0.793723 0.688039
vt 0.693188 0.691471
vt 0.243025 0.368902
vt 0.377426 0.368902
vt 0.349873 0.393802
vt 0.243025 0.393802
vt 0.350672 0.407764
vt 0.243823 0.407764
vt 0.590889 0.509008
vt 0.616827 0.486379
vt 0.616827 0.509926
vt 0.591554 0.513590
vt 0.543037 0.674995
vt 0.643169 0.675089
vt 0.642313 0.688132
vt 0.542181 0.688038
vt 0.199223 0.355030
vt 0.329775 0.355030
vt 0.329775 0.379217
vt 0.225986 0.379217
vt 0.336051 0.435308
vt 0.388171 0.435308
vt 0.391973 0.439504
vt 0.359490 0.454451
vt 0.330551 0.392779
vt 0.226762 0.392779
vt 0.845454 0.678329
vt 0.844599 0.691373
vt 0.945587 0.678405
vt 0.944733 0.691449
vt 0.330044 0.873572
vt 0.330046 0.964282
vt 0.141062 0.964288
vt 0.141059 0.873578
vt 0.121669 0.873579
vt 0.120838 0.964289
vt 0.038761 0.964292
vt 0.038758 0.873583
vt 0.349427 0.873572
vt 0.350271 0.964281
vt 0.444335 0.873570
vt 0.444336 0.964279
vt 0.121656 0.538759
vt 0.121669 0.850615
vt 0.038757 0.850619
vt 0.038744 0.538763
vt 0.444336 0.538750
vt 0.444335 0.850606
vt 0.349427 0.850606
vt 0.349429 0.538750
vt 0.268967 0.407461
vt 0.155385 0.417644
vt 0.153636 0.393204
vt 0.267218 0.383020
vt 0.200424 0.173163
vt 0.409314 0.173163
vt 0.409314 0.229228
vt 0.127730 0.213880
vt 0.131561 0.229229
vt 0.422427 0.246366
vt 0.396757 0.293554
vt 0.417491 0.239902
vt 0.129768 0.292589
vt 0.133946 0.239284
vt 0.280071 0.376803
vt 0.115230 0.285400
vt 0.380584 0.362974
vt 0.384257 0.336181
vt 0.356306 0.345903
vt 0.346470 0.359390
vt 0.353861 0.344120
vt 0.255506 0.377338
vt 0.072266 0.377338
vt 0.072266 0.344120
vt 0.389536 0.285400
vt 0.103065 0.186345
vt 0.378810 0.186020
vt 0.324331 0.310308
vt 0.099806 0.310673
vt 0.163155 0.386710
vt 0.168193 0.386637
vt 0.168193 0.411610
vt 0.240458 0.276918
vt 0.235421 0.301818
vt 0.235421 0.276845
vn 0.707107 -0.000000 -0.707107
vn 0.999999 0.000000 0.001718
vn 0.000000 0.000000 1.000000
vn 0.914707 0.165820 0.368530
vn 0.707106 -0.000000 -0.707107
vn 0.707106 0.000000 -0.707108
vn 0.914708 -0.165820 0.368529
vn 0.707108 0.000000 -0.707106
vn 0.707107 -0.000000 -0.707106
vn 1.000000 -0.000000 0.000000
vn -0.000000 0.000000 -1.000000
vn 0.000000 1.000000 0.000000
vn -0.000000 -1.000000 0.000000
vn 0.000002 -1.000000 -0.000000
vn -0.000002 1.000000 0.000000
vn 1.000000 0.000730 0.000045
vn 1.000000 -0.000731 0.000045
vn -0.000004 1.000000 0.000000
vn 0.000004 -1.000000 0.000000
usemtl None_1900room.png
s off
f 32/29/13 31/30/13 33/31/13 34/32/13
f 17/33/14 27/34/14 58/35/14 19/36/14
f 19/36/15 58/35/15 35/37/15 22/38/15
f 58/39/16 27/40/16 30/41/16 35/42/16
f 24/43/17 36/44/17 37/45/17 26/46/17
f 36/44/18 32/29/18 34/32/18 37/45/18
f 28/47/14 18/48/14 20/49/14 56/50/14
f 28/51/19 56/52/19 38/53/19 29/54/19
f 56/50/15 20/49/15 21/55/15 38/56/15
f 31/30/20 39/57/20 40/58/20 33/31/20
f 39/57/21 23/59/21 25/60/21 40/58/21
f 44/61/22 31/62/22 32/63/22 43/64/22
f 45/65/22 36/66/22 24/67/22 42/68/22
f 43/64/22 32/63/22 36/66/22 45/65/22
f 46/69/22 39/70/22 31/62/22 44/61/22
f 41/71/22 23/72/22 39/70/22 46/69/22
f 35/73/22 51/74/22 48/75/22 22/76/22
f 51/74/22 45/65/22 42/68/22 48/75/22
f 21/77/22 47/78/22 52/79/22 38/80/22
f 47/78/22 41/71/22 46/69/22 52/79/22
f 49/81/23 50/82/23 53/83/23 54/84/23
f 52/85/24 46/86/24 55/87/24
f 38/88/24 52/85/24 55/87/24 56/89/24
f 45/90/25 51/91/25 57/92/25
f 51/91/25 35/93/25 58/94/25 57/92/25
f 50/82/26 29/95/26 28/96/26 53/83/26
f 30/97/27 49/81/27 54/84/27 27/98/27
f 46/99/15 44/100/15 55/101/15
f 43/102/15 45/103/15 57/104/15
f 44/100/15 43/102/15 57/104/15 55/101/15
f 56/89/28 55/87/28 53/105/28 28/96/28
f 27/106/29 54/107/29 57/92/29 58/94/29
f 53/108/22 55/101/22 57/104/22 54/109/22
f 27/110/30 59/111/30 30/112/30
f 28/113/31 29/114/31 60/115/31
