# Blender3D v249 OBJ File: hotelroom-bigdoorright.blend
# www.blender3d.org
mtllib hotelroom-bigdoorright.mtl
o Plane
v -0.980000 -1.000000 0.000000
v -0.980171 -1.000000 0.099707
v -1.000171 -1.000000 0.099707
v -1.000171 -1.000000 2.499707
v -0.980171 -1.000000 2.519707
v -0.980000 -0.461827 0.000000
v -1.000171 -0.461827 0.099707
v -1.000171 -0.461827 2.499707
v -1.000171 1.000260 2.499707
v -0.980171 -0.461827 2.519707
v -0.980171 1.000260 2.519707
v -1.000171 -0.572153 0.099707
v -1.000171 -0.572153 2.499707
v -0.980171 -0.572153 2.519707
v -1.000171 -1.000000 1.995707
v -1.000171 1.000260 1.995707
v -1.000171 -0.461827 1.995707
v -1.000171 -0.572153 1.995707
v -1.000171 -1.000000 1.872467
v -1.000171 1.000260 1.872467
v -1.000171 -0.461827 1.872467
v -1.000171 -0.572153 1.872467
v -0.980171 -0.461827 1.872467
v -0.980171 1.000260 1.872467
v -0.980171 -0.572153 1.995707
v -0.980171 -0.572153 0.099707
v -0.980171 1.000260 1.995707
v -1.000171 -0.461827 -0.000293
v -1.000000 -0.600000 2.432296
v -1.000000 -0.600000 2.032296
v -1.000000 1.000000 2.032296
v -1.000000 1.000000 2.432296
v -0.911586 -0.511380 2.386059
v -0.911586 -0.511379 2.132296
v -0.911586 1.000001 2.132296
v -0.911586 1.000000 2.386059
vt 0.000000 0.933393
vt 0.000000 0.965177
vt 0.242468 0.980722
vt 0.242468 0.948938
vt 0.404142 0.330136
vt 0.404142 0.300579
vt 0.244609 0.300579
vt 0.277314 0.330136
vt 0.244609 0.346708
vt 0.265012 0.370094
vt 0.293286 0.351834
vt 0.289976 0.346708
vt 0.278261 0.346708
vt 0.405090 0.346708
vt 0.366446 0.980726
vt 0.366448 0.948941
vt 0.609426 0.965020
vt 0.609428 0.933236
vt 0.317106 0.877263
vt 0.036843 0.877262
vt 0.036843 0.963422
vt 0.317106 0.963422
vt 0.338254 0.877263
vt 0.338254 0.963422
vt 0.442142 0.877262
vt 0.442142 0.963422
vt 0.442141 0.542202
vt 0.338253 0.542202
vt 0.338254 0.856195
vt 0.442142 0.856194
vt 0.025597 0.229061
vt 0.019366 0.282384
vt 0.433428 0.282384
vt 0.439659 0.229061
vt 0.350976 0.353095
vt 0.100629 0.305882
vt 0.099588 0.346679
vt 0.439216 0.325700
vt 0.434891 0.314414
vt 0.121691 0.248404
vt 0.125473 0.265617
vt 0.455587 0.274043
vt 0.254874 0.228097
vt 0.492188 0.347070
vt 0.483531 0.338915
vt 0.447200 0.394823
vt 0.021453 0.336622
vt 0.014616 0.392292
vt 0.299440 0.346797
vt 0.293286 0.346708
vt 0.293286 0.377216
vt 0.420905 0.422561
vt 0.430650 0.346041
vt 0.074712 0.349167
vt 0.082898 0.411932
vt 0.469164 0.464883
vt 0.478799 0.297414
vt 0.043630 0.297414
vt 0.051584 0.458681
vn 0.707107 0.000000 -0.707107
vn 0.999999 0.000000 0.001718
vn 0.914708 0.165820 0.368529
vn 0.000000 0.000000 1.000000
vn 0.707108 0.000000 -0.707106
vn 0.707107 0.000000 -0.707106
vn 1.000000 0.000000 0.000000
vn 0.000000 0.000000 -1.000000
vn 0.000000 -1.000000 -0.000000
vn 0.000002 1.000000 -0.000000
vn 1.000000 -0.000730 0.000045
vn 0.000004 1.000000 0.000000
vn 0.707933 -0.706280 -0.000001
vn 0.749175 0.000000 -0.662372
vn 0.463414 0.000000 0.886142
usemtl None_1900room.png
s off
f 9/1/1 11/2/1 10/3/1 8/4/1
f 2/5/2 1/6/2 6/7/2 26/8/2
f 6/9/3 7/10/3 12/11/3 26/12/3
f 26/8/4 12/13/4 3/14/4 2/5/4
f 8/4/5 10/3/5 14/15/5 13/16/5
f 13/16/6 14/15/6 5/17/6 4/18/6
f 17/19/7 16/20/7 9/21/7 8/22/7
f 18/23/7 17/19/7 8/22/7 13/24/7
f 15/25/7 18/23/7 13/24/7 4/26/7
f 3/27/7 12/28/7 22/29/7 19/30/7
f 19/30/7 22/29/7 18/23/7 15/25/7
f 20/31/8 24/32/8 23/33/8 21/34/8
f 22/35/9 25/36/9 18/37/9
f 12/38/9 26/39/9 25/36/9 22/35/9
f 21/40/10 23/41/10 6/42/10 7/43/10
f 18/44/4 25/45/4 17/46/4
f 17/46/4 25/45/4 27/47/4 16/48/4
f 26/39/11 6/42/11 23/41/11 25/36/11
f 23/33/7 24/32/7 27/47/7 25/45/7
f 6/49/12 28/50/12 7/51/12
f 33/52/7 34/53/7 35/54/7 36/55/7
f 29/56/13 30/57/13 34/53/13 33/52/13
f 30/57/14 31/58/14 35/54/14 34/53/14
f 32/59/15 29/56/15 33/52/15 36/55/15
