# Blender3D v249 OBJ File: hotelroom-wall.blend
# www.blender3d.org
mtllib hotelroom-wall.mtl
o Plane
v -0.980000 -1.000000 0.000000
v -0.980000 1.000000 0.000000
v -0.980171 -1.000000 0.099707
v -0.980171 1.000000 0.099707
v -1.000171 1.000000 0.099707
v -1.000171 -1.000000 0.099707
v -1.000171 1.000000 2.499707
v -1.000171 -1.000000 2.499707
v -0.980171 1.000000 2.519707
v -0.980171 -1.000000 2.519707
vt 0.032277 0.188214
vt 0.462821 0.188215
vt 0.462821 0.296014
vt 0.032277 0.296014
vt 0.032277 0.317799
vt 0.462821 0.317800
vt 0.012500 0.535937
vt 0.494511 0.535937
vt 0.494511 0.967164
vt 0.012500 0.967164
vt 0.587131 0.926310
vt 0.587131 0.597226
vt 0.630089 0.594444
vt 0.630089 0.923528
vn 0.999999 -0.000000 0.001717
vn 0.000000 0.000000 1.000000
vn 1.000000 -0.000000 0.000000
vn 0.707107 -0.000000 -0.707107
usemtl None_1900room.png
s off
f 1/1/1 2/2/1 4/3/1 3/4/1
f 6/5/2 3/4/2 4/3/2 5/6/2
f 6/7/3 5/8/3 7/9/3 8/10/3
f 8/11/4 7/12/4 9/13/4 10/14/4
