# Blender3D v249 OBJ File: hotelroom-corner.blend
# www.blender3d.org
mtllib hotelroom-corner.mtl
o Plane
v -0.980000 -1.000000 0.000000
v -0.980171 -1.000000 0.099707
v -0.980171 1.000000 0.099707
v -1.000171 1.000000 0.099707
v -1.000171 -1.000000 0.099707
v -1.000171 1.000000 2.499707
v -1.000171 -1.000000 2.499707
v -0.980171 1.000000 2.499707
v -0.980171 -1.000000 2.519707
v 0.999829 1.000000 2.499707
v 1.000000 0.980000 0.000000
v -0.980000 0.980000 0.000000
v -0.980171 0.980000 0.099707
v -1.000171 0.980000 0.099707
v -1.000171 0.980000 2.499707
v -0.980171 0.980000 2.519707
v 0.999829 0.980000 2.519707
v 1.000000 0.980000 0.100000
v 1.000000 1.000000 0.100000
vt 0.007681 0.121833
vt 0.238557 0.121833
vt 0.238557 0.251626
vt 0.007681 0.251626
vt 0.217870 0.286569
vt 0.007681 0.286569
vt 0.261215 0.286569
vt 0.238557 0.286569
vt 0.025501 0.516813
vt 0.453276 0.517282
vt 0.453276 0.988922
vt 0.025501 0.988922
vt 0.457505 0.516961
vt 0.457505 0.989070
vt 0.627140 0.627836
vt 0.853046 0.640044
vt 0.849917 0.669205
vt 0.627277 0.657350
vt 0.878991 0.665343
vt 0.896880 0.890870
vt 0.867371 0.891476
vt 0.489347 0.121833
vt 0.489347 0.251626
vt 0.489347 0.286569
vt 0.469536 0.539426
vt 0.466772 0.539426
vt 0.466772 0.969660
vt 0.469536 0.969660
vt 0.037500 0.539426
vt 0.037532 0.969660
vt 0.875224 0.643253
vn 0.999999 -0.000000 0.001717
vn -0.000000 0.000000 1.000000
vn 1.000000 -0.000000 0.000000
vn 0.707107 -0.000000 -0.707107
vn 0.000000 -0.707107 -0.707107
vn 0.000000 -1.000000 -0.000000
vn -0.000148 0.000000 1.000000
usemtl None_1900room.png
s off
f 1/1/1 12/2/1 13/3/1 2/4/1
f 2/4/2 13/3/2 14/5/2 5/6/2
f 13/3/2 3/7/2 4/8/2 14/5/2
f 5/9/3 14/10/3 15/11/3 7/12/3
f 14/10/3 4/13/3 6/14/3 15/11/3
f 7/15/4 15/16/4 16/17/4 9/18/4
f 16/17/5 8/19/5 10/20/5 17/21/5
f 12/2/6 11/22/6 18/23/6 13/3/6
f 18/23/7 19/24/7 3/7/7 13/3/7
f 4/25/6 3/26/6 8/27/6 6/28/6
f 3/26/6 19/29/6 10/30/6 8/27/6
f 15/16/4 6/31/4 16/17/4
f 16/17/5 6/31/5 8/19/5
