# Blender3D v249 OBJ File: house.blend
# www.blender3d.org
mtllib house.mtl
o Door
v 2.530629 0.020000 1.475000
v 1.459371 0.020000 1.475000
v 2.530629 0.020000 0.000000
v 1.459371 0.020000 0.000000
v 2.530629 0.000000 0.000000
v 1.459371 0.000000 0.000000
v 1.459371 0.000000 1.475000
v 2.530629 0.000000 1.475000
vt 0.077864 0.936785
vt 0.077864 0.571028
vt 0.443621 0.571028
vt 0.443621 0.936785
vn -0.000000 1.000000 0.000000
vn 0.000000 -0.000000 1.000000
vn 1.000000 -0.000000 0.000000
vn -1.000000 -0.000000 0.000000
vn 0.000000 -0.000000 -1.000000
vn 0.000000 -1.000000 0.000000
usemtl None_dresser.png
s off
f 1/1/1 3/2/1 4/3/1 2/4/1
f 1/1/2 2/2/2 7/3/2 8/4/2
f 3/1/3 1/2/3 8/3/3 5/4/3
f 6/1/4 7/2/4 2/3/4 4/4/4
f 5/1/5 6/2/5 4/3/5 3/4/5
f 5/1/6 8/2/6 7/3/6 6/4/6
o Window
v 0.778778 0.015001 1.696490
v 0.778778 0.015001 0.919237
v 0.001524 0.015001 0.919237
v 0.001524 0.015001 1.696490
vt 0.022217 0.022217
vt 0.022217 0.977783
vt 0.977782 0.977782
vt 0.977782 0.022217
usemtl None_window.png
s off
f 9/5/1 10/6/1 11/7/1 12/8/1
o Plane
v 3.000000 -0.000000 0.000000
v 3.000000 -2.000000 0.000000
v -2.000000 -2.000000 0.000000
v -2.000000 0.000000 0.000000
v -2.000000 0.000000 2.500000
v -2.000000 -2.000000 2.500000
v 3.000000 -2.000000 2.500000
v 3.000000 -0.000000 2.500000
v 3.125091 0.161960 2.500000
v 3.125090 -2.161960 2.500000
v -2.125091 -2.161960 2.500000
v -2.125090 0.161960 2.500000
v 3.125090 -1.000000 2.500000
v -2.125090 -1.000000 2.500000
v -2.125090 -1.000000 3.155164
v 3.125090 -1.000000 3.155164
v 0.990000 -2.000000 0.000000
v 0.990000 0.000000 0.000000
v 0.990000 0.000000 2.500000
v 0.990000 -2.000000 2.500000
v 2.530628 -2.000000 0.000000
v 1.459370 -2.000000 0.000000
v 2.530629 0.000000 0.000000
v 1.459371 0.000000 0.000000
v 1.459371 0.000000 2.500000
v 2.530629 0.000000 2.500000
v 1.459371 -2.000000 2.500000
v 2.530629 -2.000000 2.500000
v -2.000000 0.000000 1.475000
v -2.000000 -2.000000 1.475000
v 3.000000 -0.000000 1.475000
v 3.000000 -2.000000 1.475000
v 0.990000 0.000000 1.475000
v 0.990000 -2.000000 1.475000
v 1.459371 0.000000 1.475000
v 2.530629 0.000000 1.475000
v 2.530629 -2.000000 1.475000
v 1.459370 -2.000000 1.475000
vt 0.618834 0.507149
vt 0.618834 0.622196
vt 0.000000 0.622196
vt 0.000000 0.507149
vt 0.618834 0.737242
vt 0.000000 0.737242
vt 0.602522 0.753119
vt 0.321881 0.753119
vt 0.321881 0.896497
vt 0.041240 0.753119
vt 0.012609 0.757516
vt 0.313021 0.757516
vt 0.313021 0.913037
vt 0.613432 0.757516
vt 0.621024 0.978607
vt 0.621024 0.757200
vt 0.994550 0.757201
vt 0.994550 0.978608
vt 0.629691 0.982595
vt 0.629691 0.756080
vt 0.993695 0.756081
vt 0.993695 0.982596
vt 0.339662 0.322073
vt 0.358510 0.241424
vt 0.293063 0.151687
vt 0.213630 0.331792
vt 0.213630 0.374292
vt 0.293063 0.194187
vt 0.189967 0.074037
vt 0.065397 0.398436
vt 0.672028 0.376347
vt 0.648690 0.451664
vt 0.699681 0.542033
vt 0.783709 0.364823
vt 0.781666 0.658145
vt 0.944312 0.359449
vt 0.653257 0.208863
vt 0.288276 0.227004
vt 0.288276 0.310370
vt 0.653257 0.344742
vt 0.288276 0.418593
vt 0.653257 0.473085
vt 0.575246 0.298384
vt 0.660568 0.165524
vt 0.660568 0.208024
vt 0.756096 0.074037
vt 0.552113 0.441589
vt 0.516928 0.432265
vt 0.482637 0.576374
vt 0.534868 0.583172
vt 0.450435 0.712629
vt 0.526571 0.729518
vt 0.653355 0.566764
vt 0.711831 0.694549
vt 0.619679 0.451562
vt 0.656292 0.357647
vt 0.773677 0.308910
vt 0.926547 0.271320
vt 0.606430 0.316471
vt 0.704817 0.201975
vt 0.823183 0.088840
vt 0.704817 0.244475
vt 0.823183 0.131340
vn 0.000000 0.491150 0.871075
vn -0.000000 -0.491150 0.871075
usemtl None_church.png
s off
f 21/9/5 25/10/5 26/11/5 24/12/5
f 25/10/5 22/13/5 23/14/5 26/11/5
f 24/15/4 26/16/4 27/17/4
f 26/16/4 23/18/4 27/17/4
f 22/19/3 25/20/3 28/21/3
f 25/20/3 21/22/3 28/21/3
f 24/23/7 27/24/7 28/25/7 21/26/7
f 27/27/8 23/28/8 22/29/8 28/30/8
f 16/31/4 15/32/4 42/33/4 41/34/4
f 41/35/4 42/36/4 18/37/4 17/38/4
f 14/39/3 13/40/3 43/41/3 44/42/3
f 44/42/3 43/41/3 20/43/3 19/44/3
f 30/45/1 16/46/1 41/47/1 45/48/1
f 45/48/1 41/47/1 17/49/1 31/50/1
f 15/32/6 29/51/6 46/52/6 42/33/6
f 42/36/6 46/53/6 32/54/6 18/37/6
f 36/55/1 30/56/1 45/57/1 47/58/1
f 47/58/1 45/57/1 31/59/1 37/60/1
f 48/61/1 47/58/1 37/60/1 38/62/1
f 13/40/1 35/63/1 48/61/1 43/41/1
f 43/41/1 48/61/1 38/62/1 20/43/1
f 33/64/6 14/39/6 44/42/6 49/65/6
f 49/65/6 44/42/6 19/44/6 40/66/6
f 34/67/6 33/64/6 49/65/6 50/68/6
f 50/68/6 49/65/6 40/66/6 39/69/6
f 29/51/6 34/67/6 50/68/6 46/52/6
f 46/53/6 50/70/6 39/71/6 32/54/6
