# Blender3D v249 OBJ File: key.blend
# www.blender3d.org
mtllib key.mtl
o Plane
v -0.005000 0.013858 0.018911
v 0.005000 0.013858 0.018911
v 0.005000 0.005740 0.010793
v -0.005000 0.005740 0.010793
v -0.005000 0.009567 0.001554
v 0.005000 0.009567 0.001554
v 0.005000 -0.009567 0.001554
v -0.005000 -0.009567 0.001554
v -0.005000 -0.005740 0.010793
v 0.005000 -0.005740 0.010793
v 0.005000 -0.013858 0.018911
v -0.005000 -0.013858 0.018911
v -0.005000 -0.023097 0.015084
v 0.005000 -0.023097 0.015084
v 0.005000 -0.023097 0.034219
v -0.005000 -0.023097 0.034219
v -0.005000 -0.013858 0.030392
v 0.005000 -0.013858 0.030392
v 0.005000 -0.005740 0.038510
v -0.005000 -0.005740 0.038510
v -0.005000 -0.009567 0.047748
v 0.005000 -0.009567 0.047748
v 0.005000 0.009567 0.047749
v -0.005000 0.009567 0.047749
v -0.005000 0.005740 0.038510
v 0.005000 0.005740 0.038510
v 0.005000 0.013858 0.030392
v -0.005000 0.013858 0.030392
v -0.005000 0.023097 0.034219
v 0.005000 0.023097 0.034219
v 0.005000 0.023097 0.015084
v -0.005000 0.023097 0.015084
v 0.005000 -0.093097 0.015084
v 0.005000 -0.093097 0.034219
v -0.005000 -0.093097 0.034219
v -0.005000 -0.093097 0.015084
v 0.005000 -0.076557 0.015084
v 0.005000 -0.087754 0.015084
v 0.005000 -0.076557 0.034219
v 0.005000 -0.087754 0.034219
v -0.005000 -0.076557 0.034219
v -0.005000 -0.087754 0.034219
v -0.005000 -0.076557 0.015084
v -0.005000 -0.087754 0.015084
v 0.005000 -0.069015 0.015084
v 0.005000 -0.060983 0.015084
v 0.005000 -0.069015 0.034219
v 0.005000 -0.060983 0.034219
v -0.005000 -0.069015 0.034219
v -0.005000 -0.060983 0.034219
v -0.005000 -0.069015 0.015084
v -0.005000 -0.060983 0.015084
v 0.005000 -0.069015 0.005084
v -0.005000 -0.069015 0.005084
v -0.005000 -0.060983 0.005084
v 0.005000 -0.060983 0.005084
v 0.005000 -0.087754 0.000749
v -0.005000 -0.087754 0.000749
v 0.005000 -0.076557 0.000749
v -0.005000 -0.076557 0.000749
vn -0.587268 -0.747765 0.309702
vn -0.587268 -0.309732 0.747765
vn 0.587268 -0.309732 0.747765
vn 0.587268 -0.747765 0.309702
vn 0.587268 0.747765 -0.309732
vn 0.587268 0.309732 -0.747765
vn -0.587268 0.309732 -0.747765
vn -0.587268 0.747765 -0.309732
vn -0.587268 -0.309732 -0.747765
vn -0.587268 0.309702 0.747765
vn 0.587268 -0.309732 -0.747765
vn 0.587268 0.309702 0.747765
vn -0.587268 0.747765 0.309732
vn 0.587268 0.747765 0.309732
vn 0.589404 -0.309122 -0.746330
vn -0.589404 -0.309122 -0.746330
vn -0.589404 -0.309122 0.746330
vn -0.587268 0.747765 -0.309702
vn 0.587268 0.747765 -0.309702
vn 0.589404 -0.309122 0.746330
vn -0.587268 0.309732 0.747765
vn -0.587268 -0.309702 -0.747765
vn 0.587268 0.309732 0.747765
vn 0.587268 -0.309702 -0.747765
vn -0.587268 -0.747765 -0.309732
vn 0.587268 -0.747765 -0.309732
vn 0.577349 -0.577349 -0.577349
vn 0.577349 -0.577349 0.577349
vn -0.577349 -0.577349 0.577349
vn -0.577349 -0.577349 -0.577349
vn 0.581591 0.575182 -0.575182
vn 0.707083 0.000000 0.707083
vn 0.581591 -0.575182 -0.575182
vn -0.707083 0.000000 0.707083
vn -0.581591 0.575182 -0.575182
vn -0.581591 -0.575182 -0.575182
vn 0.577349 0.577349 -0.577349
vn -0.577349 0.577349 -0.577349
usemtl Material
s 1
f 1//1 4//2 3//3 2//4
f 31//5 2//4 3//3 6//6
f 31//5 6//6 5//7 32//8
f 1//1 32//8 5//7 4//2
f 4//2 5//7 8//9 9//10
f 6//6 7//11 8//9 5//7
f 6//6 3//3 10//12 7//11
f 4//2 9//10 10//12 3//3
f 9//10 12//13 11//14 10//12
f 7//11 10//12 11//14 14//15
f 7//11 14//15 13//16 8//9
f 9//10 8//9 13//16 12//13
f 12//13 13//16 16//17 17//18
f 14//15 11//14 18//19 15//20
f 12//13 17//18 18//19 11//14
f 17//18 20//7 19//6 18//19
f 15//20 18//19 19//6 22//3
f 15//20 22//3 21//2 16//17
f 17//18 16//17 21//2 20//7
f 20//7 21//2 24//21 25//22
f 22//3 23//23 24//21 21//2
f 22//3 19//6 26//24 23//23
f 20//7 25//22 26//24 19//6
f 25//22 28//25 27//26 26//24
f 23//23 26//24 27//26 30//14
f 23//23 30//14 29//13 24//21
f 25//22 24//21 29//13 28//25
f 32//8 1//1 28//25 29//13
f 30//14 31//5 32//8 29//13
f 30//14 27//26 2//4 31//5
f 28//25 1//1 2//4 27//26
f 33//27 34//28 35//29 36//30
f 37//31 39//32 40//32 38//33
f 38//33 40//32 34//28 33//27
f 39//32 41//34 42//34 40//32
f 40//32 42//34 35//29 34//28
f 41//34 43//35 44//36 42//34
f 42//34 44//36 36//30 35//29
f 44//36 38//33 33//27 36//30
f 14//15 15//20 48//32 46//31
f 46//31 48//32 47//32 45//33
f 45//33 47//32 39//32 37//31
f 15//20 16//17 50//34 48//32
f 48//32 50//34 49//34 47//32
f 47//32 49//34 41//34 39//32
f 16//17 13//16 52//35 50//34
f 50//34 52//35 51//36 49//34
f 49//34 51//36 43//35 41//34
f 13//16 14//15 46//31 52//35
f 51//36 45//33 37//31 43//35
f 51//36 54//30 53//27 45//33
f 46//31 56//37 55//38 52//35
f 52//35 55//38 54//30 51//36
f 45//33 53//27 56//37 46//31
f 44//36 58//30 57//27 38//33
f 37//31 59//37 60//38 43//35
f 43//35 60//38 58//30 44//36
f 38//33 57//27 59//37 37//31
f 55//38 56//37 53//27 54//30
f 60//38 59//37 57//27 58//30
