# Blender3D v249 OBJ File: martincorpse.blend
# www.blender3d.org
mtllib martincorpse.mtl
o RLeg.001
v -0.886512 -0.160535 0.522091
v -0.975015 -0.153917 0.556830
v -0.860685 -0.076334 0.564507
v -0.949187 -0.069715 0.599246
v -0.763902 -0.240773 0.761117
v -0.813429 -0.319252 0.721771
v -0.871155 -0.116053 0.647355
v -0.920681 -0.194532 0.608009
v -0.691711 -0.248152 0.684966
v -0.741238 -0.326631 0.645620
v -0.798964 -0.123432 0.571204
v -0.848490 -0.201912 0.531858
v -0.783674 -0.238752 0.781974
v -0.833201 -0.317231 0.742627
v -0.890927 -0.114032 0.668211
v -0.940453 -0.192511 0.628865
v -0.646416 -0.252782 0.637187
v -0.695942 -0.331261 0.597841
v -0.753669 -0.128062 0.523425
v -0.803195 -0.206542 0.484079
v -0.751814 -0.221618 0.770720
v -0.859067 -0.096898 0.656958
v -0.825517 -0.338406 0.712168
v -0.932769 -0.213687 0.598405
v -0.679623 -0.228997 0.694570
v -0.786876 -0.104278 0.580808
v -0.753326 -0.345786 0.636017
v -0.860578 -0.221066 0.522255
v -0.771586 -0.219597 0.791577
v -0.878839 -0.094877 0.677815
v -0.952541 -0.211666 0.619262
v -0.845289 -0.336385 0.733024
v -0.634328 -0.233628 0.646790
v -0.741581 -0.108908 0.533028
v -0.815283 -0.225696 0.474475
v -0.708030 -0.350416 0.588237
v -0.050003 0.196073 0.229107
v -0.036424 0.079279 0.205132
v -0.127061 0.180113 0.263212
v -0.113482 0.063319 0.239237
v -0.085936 0.024390 0.018393
v -0.090210 0.080616 0.124319
v -0.130475 -0.041062 0.051337
v -0.134749 0.015164 0.157264
v -0.851769 -0.112676 0.586269
v -0.892567 -0.110179 0.583062
v -0.924046 0.138049 0.604787
v -0.514776 0.016484 0.240108
v -0.500865 0.047898 0.094956
v -0.514445 0.164691 0.118931
v -0.528355 0.133277 0.264083
v -0.160523 0.205023 0.122912
v -0.146944 0.088229 0.098937
v -0.101598 0.099134 0.071497
v -0.115177 0.215928 0.095472
v -0.069746 0.170278 0.343583
v -0.056167 0.053484 0.319608
v 0.016654 0.063109 0.313966
v 0.003075 0.179903 0.337942
v -0.489024 -0.180727 0.259034
v -0.520058 -0.076735 0.173642
v -0.851451 -0.157469 0.005100
v -0.508670 -0.149668 0.081877
v -0.873436 -0.257153 0.115007
v -0.477636 -0.253660 0.167269
v -0.236977 0.045793 0.000938
v -0.241251 0.102018 0.106865
v -0.219159 0.146025 0.084397
v -0.214885 0.089800 -0.021529
v -0.037954 -0.070979 0.070950
v -0.042228 -0.014754 0.176877
v 0.014809 0.027345 0.156832
v 0.019083 -0.028880 0.050906
v -0.895052 0.286903 0.315329
v -0.925469 0.192318 0.238611
v -0.819078 0.149207 0.243815
v -0.788661 0.243792 0.320533
v -0.712793 0.281696 0.004793
v -0.616106 0.334716 0.106482
v -0.696741 0.444372 0.125975
v -0.793427 0.391352 0.024287
v -0.850360 -0.253091 0.434648
v -0.999956 -0.248065 0.426569
v -0.990522 -0.246984 0.166471
v -0.850356 -0.251785 0.205497
v -0.857122 -0.335963 0.508299
v -0.832283 -0.373372 0.172842
v -1.006718 -0.330937 0.500219
v -0.972449 -0.368571 0.133815
v -0.695469 -0.163868 -0.026114
v -0.825868 -0.155184 -0.099738
v -0.863248 -0.048846 -0.020990
v -0.732849 -0.057531 0.052635
v -0.818619 0.140291 0.361471
v -0.809322 0.092160 0.205705
v -0.958583 0.101296 0.193974
v -0.967880 0.149426 0.349740
v -0.819605 -0.142020 0.154189
v -0.835758 -0.250010 0.275611
v -0.985019 -0.240874 0.263880
v -0.968867 -0.132884 0.142457
v -0.983975 0.140787 0.522904
v -0.831489 0.065407 0.584778
v -0.891418 0.068144 0.502896
v -0.904153 0.090749 0.177862
v -0.874582 0.123611 0.034524
v -0.963725 -0.015794 0.168215
v -0.976450 -0.045724 0.306810
v -0.814463 -0.024930 0.179947
v -0.827188 -0.054860 0.318541
v -1.001030 -0.103541 0.574537
v -0.988740 -0.074633 0.440674
v -0.839479 -0.083768 0.452405
v -0.838713 -0.094378 0.184844
v -0.812935 -0.028105 0.058221
v -1.002921 -0.366298 0.437195
v -0.851756 -0.230378 0.428186
v -0.852989 -0.367215 0.441623
v -1.001687 -0.229461 0.423759
v -0.851224 0.196687 0.563068
v -0.983372 0.173253 0.533167
v -0.815372 0.060537 0.511321
v -0.947520 0.037103 0.481420
vn 0.081143 0.953636 -0.289819
vn 0.313451 0.894662 0.318320
vn -0.044920 -0.998342 -0.035997
vn 0.995075 -0.060902 0.078208
vn 0.995075 -0.060902 0.078209
vn 0.994212 -0.067037 0.083960
vn 0.950958 0.036142 0.307202
vn -0.036682 0.506737 0.861320
vn 0.360087 -0.068384 0.930409
vn 0.006436 -0.747639 -0.664074
vn -0.137696 -0.112376 0.984079
vn -0.995075 0.060901 -0.078209
vn -0.966150 0.116125 0.230366
vn -0.996554 0.055603 -0.061544
vn -0.994694 0.058171 -0.084848
vn -0.994326 0.066255 -0.083227
vn 0.996542 -0.056140 0.061254
vn 0.972751 0.122551 -0.196815
vn -0.713592 -0.318621 0.623913
vn 0.099675 -0.195536 0.975618
vn 0.043294 -0.311340 0.949312
vn -0.445991 0.030115 0.894531
vn -0.036450 0.216216 0.975665
vn 0.031617 0.996295 -0.079979
vn 0.998996 -0.020588 0.039779
vn 0.997224 0.061904 0.041382
vn -0.999083 0.021740 -0.036879
vn -0.995638 -0.059535 -0.071839
vn -0.036645 -0.889852 0.454776
vn -0.021620 -0.999684 0.012797
vn -0.189984 -0.421564 0.886674
vn -0.978965 0.081160 -0.187191
vn -0.134978 -0.906612 0.399794
vn -0.010908 -0.902051 -0.431493
vn -0.451540 0.593846 0.665927
vn 0.027915 0.940848 0.337678
vn 0.720923 0.217206 0.658097
vn 0.993816 -0.035221 0.105308
vn 0.382900 0.267102 -0.884333
vn -0.635207 -0.091230 0.766935
vn -0.392653 -0.791023 -0.469155
vn 0.374063 0.816950 0.438942
vn -0.536264 0.623599 -0.568810
vn -0.536264 0.623599 -0.568811
vn -0.536263 0.623599 -0.568811
vn 0.686292 -0.070154 -0.723935
vn 0.686293 -0.070154 -0.723934
vn 0.686292 -0.070154 -0.723934
vn 0.491349 0.778590 0.390350
vn -0.491349 -0.778590 -0.390351
vn 0.702631 -0.706578 0.084009
vn 0.463181 0.498507 0.732771
vn -0.501346 -0.551402 -0.666789
vn -0.745002 0.666736 -0.020859
vn 0.490531 0.488936 -0.721333
vn 0.214707 -0.764947 -0.607254
vn -0.856277 0.043246 -0.514703
vn 0.840037 -0.059213 0.539288
vn -0.237291 0.716740 0.655726
vn 0.412752 0.631310 -0.656569
vn 0.536264 -0.623598 0.568811
vn 0.536264 -0.623600 0.568810
vn 0.536265 -0.623598 0.568811
vn 0.536264 -0.623599 0.568810
vn 0.536264 -0.623599 0.568811
vn -0.536264 0.623598 -0.568812
vn -0.536263 0.623602 -0.568808
vn -0.536262 0.623601 -0.568809
vn -0.686292 0.070155 0.723935
vn -0.686293 0.070153 0.723934
vn 0.491349 0.778590 0.390351
vn -0.491348 -0.778590 -0.390351
vn -0.491349 -0.778590 -0.390350
vn 0.113159 -0.973282 -0.199794
vn -0.533808 0.110046 -0.838415
vn -0.113159 0.973282 0.199794
vn 0.893540 0.187622 -0.407903
vn -0.808327 -0.207110 0.551101
vn 0.113159 -0.973282 -0.199795
vn -0.113159 0.973282 0.199795
vn 0.100635 -0.188825 0.976841
vn -0.035614 0.468547 0.882720
vn -0.912211 0.345516 -0.220203
vn 0.035614 -0.468546 -0.882721
vn 0.509621 0.768319 -0.387261
vn -0.358872 -0.830362 0.426275
vn -0.035614 0.468546 0.882721
vn 0.509621 0.768320 -0.387261
vn 0.631917 -0.673728 0.383109
vn 0.307764 -0.908800 -0.281717
vn 0.168985 0.048365 -0.984431
vn -0.175826 -0.101132 0.979213
vn -0.154737 0.969005 0.192575
vn 0.025258 -0.198203 0.979835
vn -0.011744 0.199762 -0.979774
vn -0.021129 0.779264 0.626339
vn 0.275823 0.534961 -0.798585
vn -0.198744 -0.540721 0.817387
vn 0.135899 -0.682534 -0.718108
vn 0.086006 -0.535705 -0.840014
vn 0.547411 -0.680075 0.487688
vn -0.577913 0.661490 -0.477962
vn -0.091315 0.532796 0.841303
vn -0.748286 -0.624228 0.224517
vn 0.216646 0.971528 0.095903
vn 0.137322 0.088691 -0.986548
vn -0.455708 0.345167 -0.820482
vn -0.612731 0.337287 -0.714701
vn -0.742484 -0.151072 -0.652606
usemtl Material.001
s off
f 94//1 95//1 96//1 97//1
f 104//2 94//2 97//2 102//2
f 99//3 82//3 83//3 100//3
f 98//4 109//4 110//4 99//4
f 109//5 95//5 94//5 110//5
f 99//6 110//6 113//6 82//6
f 110//7 94//7 104//7 113//7
usemtl Material.002
f 45//8 3//8 46//8
f 4//9 3//9 47//9
f 98//10 99//10 100//10 101//10
f 47//11 3//11 45//11 103//11
f 96//12 107//12 108//12 97//12
f 107//12 101//12 100//12 108//12
f 111//13 47//13 102//13 112//13
f 112//14 83//14 88//14 111//14
f 97//15 108//15 112//15 102//15
f 108//16 100//16 83//16 112//16
f 82//17 113//17 45//17 86//17
f 113//18 104//18 103//18 45//18
f 46//19 1//19 86//19 45//19
f 86//20 1//20 2//20 88//20
f 111//21 88//21 2//21
f 111//22 4//22 47//22
f 83//23 82//23 117//23 119//23
f 119//24 117//24 85//24 84//24
f 82//25 86//25 118//25 117//25
f 117//26 118//26 87//26 85//26
f 88//27 83//27 119//27 116//27
f 116//28 119//28 84//28 89//28
f 86//29 88//29 116//29 118//29
f 118//30 116//30 89//30 87//30
f 102//31 121//31 123//31 104//31
f 121//32 74//32 75//32 123//32
f 104//33 123//33 122//33 103//33
f 123//34 75//34 76//34 122//34
f 47//35 120//35 121//35 102//35
f 120//36 77//36 74//36 121//36
f 103//37 122//37 120//37 47//37
f 122//38 76//38 77//38 120//38
usemtl Material.003
f 1//39 3//39 11//39 12//39
f 8//40 7//40 4//40 2//40
f 2//41 1//41 12//41 8//41
f 7//42 11//42 3//42 4//42
f 11//43 26//43 34//43 19//43
f 12//44 11//44 19//44 20//44
f 28//45 12//45 20//45 35//45
f 18//46 36//46 35//46 20//46
f 17//47 18//47 20//47 19//47
f 33//48 17//48 19//48 34//48
f 34//49 26//49 25//49 33//49
f 36//50 27//50 28//50 35//50
f 77//51 76//51 78//51 79//51
f 74//52 77//52 79//52 80//52
f 76//53 75//53 81//53 78//53
f 75//54 74//54 80//54 81//54
f 78//55 81//55 80//55 79//55
f 89//56 91//56 90//56 87//56
f 84//57 92//57 91//57 89//57
f 87//58 90//58 93//58 85//58
f 85//59 93//59 92//59 84//59
f 90//60 91//60 92//60 93//60
usemtl Material.004
f 14//61 32//61 23//61 6//61
f 13//62 14//62 6//62 5//62
f 29//63 13//63 5//63 21//63
f 6//64 23//64 27//64 10//64
f 5//62 6//62 10//62 9//62
f 21//65 5//65 9//65 25//65
f 15//66 30//66 22//66 7//66
f 16//43 15//43 7//43 8//43
f 31//67 16//67 8//67 24//67
f 7//43 22//43 26//43 11//43
f 24//68 8//68 12//68 28//68
f 36//64 18//64 10//64 27//64
f 9//62 10//62 18//62 17//62
f 25//64 9//64 17//64 33//64
f 13//69 29//69 30//69 15//69
f 14//70 13//70 15//70 16//70
f 32//69 14//69 16//69 31//69
f 22//71 30//71 29//71 21//71
f 26//71 22//71 21//71 25//71
f 23//72 32//72 31//72 24//72
f 27//73 23//73 24//73 28//73
f 53//74 54//74 38//74 40//74
f 52//75 55//75 54//75 53//75
f 55//76 52//76 39//76 37//76
f 38//77 54//77 55//77 37//77
f 40//78 57//78 56//78 39//78
f 38//79 58//79 57//79 40//79
f 39//80 56//80 59//80 37//80
f 37//77 59//77 58//77 38//77
f 57//81 58//81 59//81 56//81
f 67//82 44//82 42//82 68//82
f 66//83 67//83 68//83 69//83
f 43//84 66//84 69//84 41//84
f 69//85 68//85 42//85 41//85
f 44//86 43//86 70//86 71//86
f 42//87 44//87 71//87 72//87
f 43//84 41//84 73//84 70//84
f 41//88 42//88 72//88 73//88
f 71//89 70//89 73//89 72//89
usemtl Material.005
f 115//90 49//90 48//90 114//90
f 106//91 50//91 49//91 115//91
f 114//92 48//92 51//92 105//92
f 105//93 51//93 50//93 106//93
f 51//76 39//76 52//76 50//76
f 48//94 40//94 39//94 51//94
f 50//95 52//95 53//95 49//95
f 49//74 53//74 40//74 48//74
f 115//96 114//96 60//96 61//96
f 62//97 115//97 61//97 63//97
f 114//98 64//98 65//98 60//98
f 64//99 62//99 63//99 65//99
f 65//100 63//100 66//100 43//100
f 60//101 65//101 43//101 44//101
f 63//102 61//102 67//102 66//102
f 61//103 60//103 44//103 67//103
f 98//104 101//104 62//104 64//104
f 96//105 95//105 105//105 106//105
f 95//106 109//106 114//106 105//106
f 109//107 98//107 64//107 114//107
f 101//108 107//108 115//108 62//108
f 107//109 96//109 106//109 115//109
