# Blender3D v249 OBJ File: painting.blend
# www.blender3d.org
mtllib painting.mtl
o Picture
v -0.213334 0.015825 1.870667
v -0.213334 0.015825 1.529333
v 0.213334 0.015825 1.529333
v 0.213334 0.015825 1.870667
vt 0.985319 0.976851
vt 0.014682 0.976852
vt 0.014681 0.014556
vt 0.985319 0.014555
vn -0.000000 -1.000000 -0.000000
usemtl None_painting1.png
s off
f 4/1/1 1/2/1 2/3/1 3/4/1
o Frame
v 0.250000 0.040000 1.900000
v 0.250000 0.040000 1.500000
v -0.250000 0.040000 1.500000
v -0.250000 0.040000 1.900000
v 0.250000 0.000000 1.900000
v 0.250000 0.000000 1.500000
v -0.250000 0.000000 1.500000
v -0.250000 0.000000 1.900000
v 0.213334 0.000000 1.870667
v -0.213334 0.000000 1.870667
v -0.213334 0.000000 1.529333
v 0.213334 0.000000 1.529333
v 0.213334 0.015825 1.870667
v 0.213334 0.015825 1.529333
v -0.213334 0.015825 1.529333
v -0.213334 0.015825 1.870667
vt 0.823643 0.306420
vt 0.690376 0.311690
vt 0.699840 0.138931
vt 0.820211 0.132256
vt 0.854690 0.334437
vt 0.653611 0.343955
vt 0.672101 0.112499
vt 0.851383 0.105798
vt 0.882648 0.089116
vt 0.921494 0.376554
vt 0.632968 0.085027
vt 0.592478 0.371308
vt 0.964167 0.416556
vt 0.543645 0.416556
vt 0.603362 0.052649
vt 0.918462 0.051976
vn 0.000000 1.000000 0.000000
vn 1.000000 -0.000001 -0.000000
vn -0.000000 -0.000003 -1.000000
vn -1.000000 0.000003 0.000000
vn 0.000000 0.000000 1.000000
vn -1.000000 0.000000 0.000000
vn 0.000001 0.000000 1.000000
vn 1.000000 0.000000 -0.000001
vn -0.000000 0.000000 -1.000000
usemtl None_dresser.png
s off
f 5/5/2 6/6/2 7/7/2 8/8/2
f 5/5/3 9/9/3 10/10/3 6/6/3
f 6/6/4 10/10/4 11/11/4 7/7/4
f 7/7/5 11/11/5 12/12/5 8/8/5
f 9/9/6 5/5/6 8/8/6 12/12/6
f 9/9/1 12/12/1 14/13/1 13/14/1
f 12/12/1 11/11/1 15/15/1 14/13/1
f 11/11/1 10/10/1 16/16/1 15/15/1
f 10/10/1 9/9/1 13/14/1 16/16/1
f 16/16/7 13/14/7 17/17/7 18/18/7
f 15/15/8 16/16/8 18/18/8 19/19/8
f 14/13/9 15/15/9 19/19/9 20/20/9
f 13/14/10 14/13/10 20/20/10 17/17/10
