# Blender3D v249 OBJ File: pave.blend
# www.blender3d.org
mtllib pave.mtl
o Cube
v 0.678074 0.396937 -0.000000
v 0.678074 -0.396937 -0.000000
v -0.678074 -0.396937 -0.000000
v -0.678074 0.396937 -0.000000
v 0.678074 0.396937 0.050000
v 0.678074 -0.396937 0.050000
v -0.678074 -0.396937 0.050000
v -0.678074 0.396937 0.050000
vt 0.013048 0.021162
vt 0.057265 0.021162
vt 0.057265 0.978838
vt 0.013048 0.978838
vn 0.000000 0.000000 -1.000000
vn 0.000000 -0.000000 1.000000
vn 1.000000 -0.000000 0.000001
vn -0.000000 -1.000000 0.000001
vn -1.000000 0.000001 -0.000004
vn 0.000000 1.000000 0.000001
usemtl None_titan-wall.png
s off
f 1/1/1 2/2/1 3/3/1 4/4/1
f 5/1/2 8/2/2 7/3/2 6/4/2
f 1/1/3 5/2/3 6/3/3 2/4/3
f 2/1/4 6/2/4 7/3/4 3/4/4
f 3/1/5 7/2/5 8/3/5 4/4/5
f 5/1/6 1/2/6 4/3/6 8/4/6
