# Blender3D v249 OBJ File: porthole.blend
# www.blender3d.org
mtllib porthole.mtl
o Circle
v -0.000000 0.106066 0.955856
v 0.000000 0.138582 0.907193
v 0.000000 0.150000 0.849790
v 0.000000 0.138582 0.792388
v 0.000000 0.106066 0.743724
v 0.000000 0.057403 0.711208
v 0.000000 0.000000 0.699790
v 0.000000 -0.057402 0.711208
v 0.000000 -0.106066 0.743724
v 0.000000 -0.138582 0.792388
v 0.000000 -0.150000 0.849790
v 0.000000 -0.138582 0.907193
v 0.000000 -0.106066 0.955856
v 0.000000 -0.057402 0.988372
v -0.000000 0.000000 0.999790
v -0.000000 0.057403 0.988372
v -0.000000 0.078880 0.928670
v 0.000000 0.103061 0.892479
v 0.000000 0.111552 0.849790
v 0.000000 0.103061 0.807101
v 0.000000 0.078880 0.770911
v 0.000000 0.042689 0.746729
v 0.000000 0.000000 0.738238
v 0.000000 -0.042689 0.746729
v 0.000000 -0.078879 0.770911
v 0.000000 -0.103061 0.807101
v 0.000000 -0.111552 0.849790
v 0.000000 -0.103061 0.892479
v 0.000000 -0.078879 0.928670
v 0.000000 -0.042689 0.952851
v 0.000000 0.000000 0.961343
v -0.000000 0.042689 0.952851
v 0.040000 0.042689 0.952851
v 0.040000 0.000000 0.961343
v 0.040000 -0.042689 0.952851
v 0.040000 -0.078879 0.928670
v 0.040000 -0.103061 0.892479
v 0.040000 -0.111552 0.849790
v 0.040000 -0.103061 0.807101
v 0.040000 -0.078879 0.770911
v 0.040000 -0.042689 0.746729
v 0.040000 0.000000 0.738238
v 0.040000 0.042689 0.746729
v 0.040000 0.078880 0.770911
v 0.040000 0.103061 0.807101
v 0.040000 0.111552 0.849790
v 0.040000 0.103061 0.892479
v 0.040000 0.078880 0.928670
v 0.040000 0.057403 0.988372
v 0.040000 0.000000 0.999790
v 0.040000 -0.057402 0.988372
v 0.040000 -0.106066 0.955856
v 0.040000 -0.138582 0.907193
v 0.040000 -0.150000 0.849790
v 0.040000 -0.138582 0.792388
v 0.040000 -0.106066 0.743724
v 0.040000 -0.057402 0.711208
v 0.040000 0.000000 0.699790
v 0.040000 0.057403 0.711208
v 0.040000 0.106066 0.743724
v 0.040000 0.138582 0.792388
v 0.040000 0.150000 0.849790
v 0.040000 0.138582 0.907193
v 0.040000 0.106066 0.955856
v -0.000000 0.042689 0.952851
v 0.000000 0.000000 0.961343
v 0.000000 -0.042689 0.952851
v 0.000000 -0.078879 0.928670
v 0.000000 -0.103061 0.892479
v 0.000000 -0.111552 0.849790
v 0.000000 -0.103061 0.807101
v 0.000000 -0.078879 0.770911
v 0.000000 -0.042689 0.746729
v 0.000000 0.000000 0.738238
v 0.000000 0.042689 0.746729
v 0.000000 0.078880 0.770911
v 0.000000 0.103061 0.807101
v 0.000000 0.111552 0.849790
v 0.000000 0.103061 0.892479
v -0.000000 0.078880 0.928670
v 0.015245 0.029512 0.921038
v 0.015245 0.054531 0.904321
v 0.015245 0.000000 0.926908
v 0.015245 -0.029512 0.921038
v 0.015245 -0.054530 0.904321
v 0.015245 -0.071247 0.879302
v 0.015245 -0.077118 0.849790
v 0.015245 -0.071247 0.820279
v 0.015245 -0.054530 0.795260
v 0.015245 -0.029512 0.778543
v 0.015245 0.000000 0.772672
v 0.015245 0.029512 0.778543
v 0.015245 0.054531 0.795260
v 0.015245 0.071248 0.820279
v 0.015245 0.077118 0.849790
v 0.015245 0.071248 0.879302
v 0.022052 0.000000 0.849790
vn 1.000000 0.000000 0.000000
vn 0.000000 -0.707083 -0.707083
vn 0.634144 -0.546709 -0.546709
vn 0.634144 -0.295877 -0.714316
vn 0.000000 -0.382672 -0.923856
vn 0.634144 0.000000 -0.773186
vn 0.000000 0.000000 -1.000000
vn 0.634144 0.295877 -0.714316
vn 0.000000 0.382672 -0.923856
vn 0.634144 0.546709 -0.546709
vn 0.000000 0.707083 -0.707083
vn 0.634144 0.714316 -0.295877
vn 0.000000 0.923856 -0.382672
vn 0.634144 0.773186 0.000000
vn 0.000000 1.000000 0.000000
vn 0.634144 0.714316 0.295877
vn 0.000000 0.923856 0.382672
vn 0.634144 0.546709 0.546709
vn 0.000000 0.707083 0.707083
vn 0.634175 0.295877 0.714316
vn 0.000000 0.382672 0.923856
vn 0.634144 0.000000 0.773186
vn 0.000000 0.000000 1.000000
vn 0.634144 -0.295877 0.714316
vn 0.000000 -0.382672 0.923856
vn 0.634144 -0.546709 0.546709
vn 0.000000 -0.707083 0.707083
vn 0.634144 -0.714316 0.295877
vn 0.000000 -0.923856 0.382672
vn 0.634144 -0.773186 0.000000
vn 0.000000 -1.000000 0.000000
vn 0.634144 -0.714316 -0.295877
vn 0.000000 -0.923856 -0.382672
vn 0.634144 0.295877 0.714316
vn 0.914396 0.154912 0.373974
vn 0.962066 0.104373 0.251991
vn 0.962066 0.192877 0.192877
vn 0.914396 0.286233 0.286233
vn 0.914396 0.000000 0.404798
vn 0.962066 0.000000 0.272774
vn 0.914396 -0.154912 0.373974
vn 0.962066 -0.104373 0.251991
vn 0.914396 -0.286233 0.286233
vn 0.962066 -0.192877 0.192877
vn 0.914396 -0.373974 0.154912
vn 0.962066 -0.251991 0.104373
vn 0.914396 -0.404798 0.000000
vn 0.962066 -0.272774 0.000000
vn 0.914396 -0.373974 -0.154912
vn 0.962066 -0.251991 -0.104373
vn 0.914396 -0.286233 -0.286233
vn 0.962066 -0.192877 -0.192877
vn 0.914396 -0.154912 -0.373974
vn 0.962066 -0.104373 -0.251991
vn 0.914396 0.000000 -0.404798
vn 0.962066 0.000000 -0.272774
vn 0.914396 0.154912 -0.373974
vn 0.962066 0.104373 -0.251991
vn 0.914396 0.286233 -0.286233
vn 0.962066 0.192877 -0.192877
vn 0.914396 0.373974 -0.154912
vn 0.962066 0.251991 -0.104373
vn 0.914396 0.404798 0.000000
vn 0.962066 0.272774 0.000000
vn 0.914396 0.373974 0.154912
vn 0.962066 0.251991 0.104373
usemtl Material
s off
f 48//1 47//1 63//1 64//1
f 47//1 46//1 62//1 63//1
f 46//1 45//1 61//1 62//1
f 45//1 44//1 60//1 61//1
f 44//1 43//1 59//1 60//1
f 43//1 42//1 58//1 59//1
f 42//1 41//1 57//1 58//1
f 41//1 40//1 56//1 57//1
f 40//1 39//1 55//1 56//1
f 39//1 38//1 54//1 55//1
f 38//1 37//1 53//1 54//1
f 37//1 36//1 52//1 53//1
f 36//1 35//1 51//1 52//1
f 35//1 34//1 50//1 51//1
f 34//1 33//1 49//1 50//1
f 33//1 48//1 64//1 49//1
s 1
f 17//2 48//3 33//4 32//5
f 32//5 33//4 34//6 31//7
f 31//7 34//6 35//8 30//9
f 30//9 35//8 36//10 29//11
f 29//11 36//10 37//12 28//13
f 28//13 37//12 38//14 27//15
f 27//15 38//14 39//16 26//17
f 26//17 39//16 40//18 25//19
f 25//19 40//18 41//20 24//21
f 24//21 41//20 42//22 23//23
f 23//23 42//22 43//24 22//25
f 22//25 43//24 44//26 21//27
f 21//27 44//26 45//28 20//29
f 20//29 45//28 46//30 19//31
f 19//31 46//30 47//32 18//33
f 18//33 47//32 48//3 17//2
f 64//18 1//19 16//21 49//34
f 15//23 50//22 49//34 16//21
f 14//25 51//24 50//22 15//23
f 13//27 52//26 51//24 14//25
f 12//29 53//28 52//26 13//27
f 11//31 54//30 53//28 12//29
f 10//33 55//32 54//30 11//31
f 9//2 56//3 55//32 10//33
f 8//5 57//4 56//3 9//2
f 7//7 58//6 57//4 8//5
f 6//9 59//8 58//6 7//7
f 5//11 60//10 59//8 6//9
f 4//13 61//12 60//10 5//11
f 3//15 62//14 61//12 4//13
f 2//17 63//16 62//14 3//15
f 1//19 64//18 63//16 2//17
usemtl Material.001
f 65//35 81//36 82//37 80//38
f 65//35 66//39 83//40 81//36
f 66//39 67//41 84//42 83//40
f 67//41 68//43 85//44 84//42
f 68//43 69//45 86//46 85//44
f 69//45 70//47 87//48 86//46
f 70//47 71//49 88//50 87//48
f 71//49 72//51 89//52 88//50
f 72//51 73//53 90//54 89//52
f 73//53 74//55 91//56 90//54
f 74//55 75//57 92//58 91//56
f 75//57 76//59 93//60 92//58
f 76//59 77//61 94//62 93//60
f 77//61 78//63 95//64 94//62
f 78//63 79//65 96//66 95//64
f 79//65 80//38 82//37 96//66
f 81//36 97//1 82//37
f 81//36 83//40 97//1
f 83//40 84//42 97//1
f 84//42 85//44 97//1
f 85//44 86//46 97//1
f 86//46 87//48 97//1
f 87//48 88//50 97//1
f 88//50 89//52 97//1
f 89//52 90//54 97//1
f 90//54 91//56 97//1
f 91//56 92//58 97//1
f 92//58 93//60 97//1
f 93//60 94//62 97//1
f 94//62 95//64 97//1
f 95//64 96//66 97//1
f 96//66 82//37 97//1
