# Blender3D v249 OBJ File: room-floor.blend
# www.blender3d.org
mtllib room-floor.mtl
o Plane
v 1.000000 1.000000 0.000000
v 1.000000 -1.000000 0.000000
v -1.000000 -1.000000 0.000000
v -1.000000 1.000000 0.000000
v -1.000000 1.000000 2.520000
v -1.000000 -1.000000 2.520000
v 1.000000 -1.000000 2.520000
v 1.000000 1.000000 2.520000
vt 0.999277 0.499230
vt 0.500955 0.499230
vt 0.500955 0.000908
vt 0.999277 0.000908
vt 0.512573 0.512573
vt 0.987427 0.512573
vt 0.987427 0.987427
vt 0.512573 0.987427
vn 0.000000 -0.000000 1.000000
vn -0.000000 0.000000 -1.000000
usemtl None_1900room.png
s off
f 1/1/1 4/2/1 3/3/1 2/4/1
f 6/5/2 5/6/2 8/7/2 7/8/2
