# Blender3D v249 OBJ File: sidetable.blend
# www.blender3d.org
mtllib sidetable.mtl
o Door
v 0.176728 0.222067 0.071719
v 0.176728 0.222067 0.425175
v -0.176728 0.222067 0.425175
v -0.176728 0.222067 0.071719
v -0.200000 0.197837 0.448447
v -0.200000 0.197837 0.048447
v 0.200000 0.197837 0.048447
v 0.200000 0.197837 0.448447
vt 0.582333 0.578948
vt 0.980541 0.577333
vt 0.982157 0.975541
vt 0.583948 0.977156
vt 0.753041 0.079833
vt 0.354833 0.081448
vt 0.317557 0.022500
vt 0.782089 0.022500
vt 0.669833 0.058948
vt 0.671448 0.457156
vt 0.612500 0.494432
vt 0.612500 0.029900
vt 0.791932 0.181989
vt 0.327400 0.181989
vt 0.356448 0.124656
vt 0.754656 0.123041
vt 0.514489 0.020057
vt 0.514489 0.484589
vt 0.457157 0.455541
vt 0.455541 0.057333
vt 0.029861 0.524350
vt 0.490650 0.524350
vt 0.490650 0.985139
vt 0.029861 0.985139
vn -0.000000 1.000000 -0.000000
vn -0.000000 0.692718 -0.721208
vn 0.721209 0.692718 -0.000000
vn 0.000000 0.692718 0.721208
vn -0.721209 0.692718 -0.000000
vn 0.000000 -1.000000 0.000000
usemtl None_dresser.png
s off
f 1/1/1 4/2/1 3/3/1 2/4/1
f 4/5/2 1/6/2 7/7/2 6/8/2
f 1/9/3 2/10/3 8/11/3 7/12/3
f 5/13/4 8/14/4 2/15/4 3/16/4
f 6/17/5 5/18/5 3/19/5 4/20/5
f 6/21/6 7/22/6 8/23/6 5/24/6
o Dresstable
v 0.250000 0.200000 0.000000
v 0.250000 -0.200000 0.000000
v -0.250000 -0.200000 0.000000
v -0.250000 0.200000 0.000000
v 0.250000 0.200000 0.500000
v 0.250000 -0.200000 0.500000
v -0.250000 -0.200000 0.500000
v -0.250000 0.200000 0.500000
v 0.262599 0.210079 0.505732
v -0.262599 0.210079 0.505732
v -0.262599 -0.210079 0.505732
v 0.262599 -0.210079 0.505732
v 0.262599 -0.210079 0.518128
v 0.262599 0.210079 0.518128
v -0.262599 -0.210079 0.518128
v -0.262599 0.210079 0.518128
v -0.180286 0.200000 0.069714
v -0.180286 0.200000 0.430286
v 0.180286 0.200000 0.069714
v 0.180286 0.200000 0.430286
v 0.180286 -0.148050 0.069714
v -0.180286 -0.148050 0.069714
v -0.180286 -0.148050 0.430286
v 0.180286 -0.148050 0.430286
vt 0.035213 0.569848
vt 0.444235 0.569848
vt 0.444235 0.960842
vt 0.035213 0.960842
vt 0.070000 0.253190
vt 0.070000 0.022457
vt 0.254586 0.022457
vt 0.254586 0.253189
vt 0.485318 0.022457
vt 0.485319 0.253189
vt 0.669905 0.022456
vt 0.669905 0.253189
vt 0.470402 0.579293
vt 0.474684 0.867699
vt 0.431355 0.914676
vt 0.431728 0.575053
vt 0.379542 0.985074
vt 0.136904 0.986918
vt 0.111723 0.952257
vt 0.383421 0.952555
vt 0.032292 0.915665
vt 0.028010 0.627257
vt 0.071339 0.580281
vt 0.070966 0.919904
vt 0.123152 0.509883
vt 0.365790 0.508039
vt 0.390971 0.542699
vt 0.119272 0.542401
vt 0.387382 0.577816
vt 0.115684 0.577518
vt 0.115311 0.917141
vt 0.387010 0.917439
vt 0.702075 0.054627
vt 0.702075 0.221019
vt 0.900638 0.022457
vt 0.900638 0.253190
vt 0.868467 0.221019
vt 0.868467 0.054627
vt 0.110194 0.797586
vt 0.110194 0.678582
vt 0.225065 0.678582
vt 0.225065 0.797586
vt 0.458939 0.678582
vt 0.458939 0.797585
vt 0.344068 0.797586
vt 0.344068 0.678582
vt 0.344068 0.912456
vt 0.225065 0.912456
vt 0.225064 0.563711
vt 0.344068 0.563711
vn 0.000000 0.000000 -1.000000
vn 1.000000 -0.000000 -0.000000
vn -1.000000 0.000000 -0.000000
vn 0.000000 0.494357 -0.869259
vn -0.414122 0.000000 -0.910221
vn -0.000000 -0.494357 -0.869259
vn 0.414122 -0.000000 -0.910221
vn 1.000000 -0.000001 0.000000
vn -1.000000 0.000001 0.000000
vn 0.000000 -0.000000 1.000000
usemtl None_dresser.png
s off
f 9/25/7 10/26/7 11/27/7 12/28/7
f 9/29/8 13/30/8 14/31/8 10/32/8
f 10/32/6 14/31/6 15/33/6 11/34/6
f 11/34/9 15/33/9 16/35/9 12/36/9
f 13/37/10 16/38/10 18/39/10 17/40/10
f 16/41/11 15/42/11 19/43/11 18/44/11
f 15/45/12 14/46/12 20/47/12 19/48/12
f 14/49/13 13/50/13 17/51/13 20/52/13
f 20/52/14 17/51/14 22/53/14 21/54/14
f 19/48/6 20/47/6 21/54/6 23/55/6
f 18/44/15 19/43/15 23/55/15 24/56/15
f 17/40/1 18/39/1 24/56/1 22/53/1
f 22/53/16 24/56/16 23/55/16 21/54/16
f 12/36/1 16/35/1 26/57/1 25/58/1
f 13/59/1 9/60/1 27/61/1 28/62/1
f 16/35/1 13/59/1 28/62/1 26/57/1
f 9/60/1 12/36/1 25/58/1 27/61/1
f 27/63/16 25/64/16 30/65/16 29/66/16
f 26/67/7 28/68/7 32/69/7 31/70/7
f 28/71/9 27/72/9 29/66/9 32/69/9
f 25/73/8 26/74/8 31/70/8 30/65/8
f 32/69/1 29/66/1 30/65/1 31/70/1
