# Blender3D v249 OBJ File: skyball.blend
# www.blender3d.org
mtllib skyball.mtl
o Sphere
v 0.000000 -0.000003 -600.000000
v 434.160004 -315.432007 -268.329010
v -165.830994 -510.384033 -268.329010
v -536.654968 -0.000003 -268.329010
v -165.830994 510.384033 -268.329010
v 434.160004 315.432007 -268.329010
v 165.830994 -510.384033 268.329010
v -434.160004 -315.432007 268.329010
v -434.160004 315.432007 268.329010
v 165.830994 510.384033 268.329010
v 536.654968 -0.000003 268.329010
v 0.000000 -0.000003 600.000000
v 485.407471 157.716003 0.000000
v 485.407471 -157.716003 0.000000
v 299.995514 -412.908020 0.000000
v 0.000000 -510.384033 0.000000
v -299.995514 -412.908020 0.000000
v -485.407471 -157.716003 0.000000
v -485.407471 157.716003 0.000000
v -299.995514 412.908020 0.000000
v 0.000000 510.384033 0.000000
v 299.995514 412.908020 0.000000
vn -0.276376 0.850642 -0.447188
vn 0.000000 0.000000 -1.000000
vn -0.894406 0.000000 -0.447188
vn 0.723594 0.525712 -0.447188
vn 0.723594 -0.525712 -0.447188
vn -0.276376 -0.850642 -0.447188
vn -0.951048 -0.309000 0.000000
vn -0.951048 0.309000 0.000000
vn -0.587756 0.809015 0.000000
vn 0.000000 1.000000 0.000000
vn 0.587756 0.809015 0.000000
vn 0.951048 0.309000 0.000000
vn 0.951048 -0.309000 0.000000
vn 0.587756 -0.809015 0.000000
vn 0.000000 -1.000000 0.000000
vn -0.587756 -0.809015 0.000000
vn -0.723594 0.525712 0.447188
vn 0.000000 0.000000 1.000000
vn 0.276376 0.850642 0.447188
vn -0.723594 -0.525712 0.447188
vn 0.894406 0.000000 0.447188
vn 0.276376 -0.850642 0.447188
usemtl Material
s 1
f 7//1 12//2 11//3
f 8//4 12//2 7//1
f 9//5 12//2 8//4
f 10//6 12//2 9//5
f 11//3 12//2 10//6
f 13//7 14//8 11//3
f 15//9 16//10 7//1
f 17//11 18//12 8//4
f 19//13 20//14 9//5
f 21//15 22//16 10//6
f 7//1 11//3 14//8 15//9
f 8//4 7//1 16//10 17//11
f 9//5 8//4 18//12 19//13
f 10//6 9//5 20//14 21//15
f 11//3 10//6 22//16 13//7
usemtl Material.001
f 2//17 1//18 3//19
f 6//20 1//18 2//17
f 3//19 1//18 4//21
f 4//21 1//18 5//22
f 5//22 1//18 6//20
f 6//20 2//17 14//8 13//7
f 2//17 3//19 16//10 15//9
f 3//19 4//21 18//12 17//11
f 4//21 5//22 20//14 19//13
f 5//22 6//20 22//16 21//15
f 15//9 14//8 2//17
f 17//11 16//10 3//19
f 19//13 18//12 4//21
f 21//15 20//14 5//22
f 13//7 22//16 6//20
