# Blender3D v249 OBJ File: stairs-corner.blend
# www.blender3d.org
mtllib stairs-corner.mtl
o Cube
v 3.353190 -0.600000 0.000000
v 3.353190 -0.800000 0.000000
v -1.000000 -0.800000 0.000000
v -1.000000 -0.600000 0.000000
v -1.000001 -0.800000 3.049946
v -1.000000 -0.600000 3.049946
vt 0.056368 0.083223
vt 0.416290 0.083223
vt 0.416290 0.443145
vt 0.056368 0.443145
vn 0.000000 0.000000 -1.000000
vn 0.573805 -0.000002 0.818992
vn 0.000000 -1.000000 0.000000
vn -1.000000 0.000003 -0.000000
vn 0.000000 1.000000 -0.000000
usemtl None_greenroom.png
s off
f 1/1/1 2/2/1 3/3/1 4/4/1
f 1/1/2 6/2/2 5/3/2 2/4/2
f 2/1/3 5/2/3 3/3/3
f 3/1/4 5/2/4 6/3/4 4/4/4
f 6/1/5 1/2/5 4/3/5
o Plane_Plane.007
v 3.000000 1.000000 0.000000
v 3.000000 -0.700000 0.000000
v -1.000000 -0.700000 2.600000
v -1.000000 1.000000 2.600000
v 3.003127 -0.700000 0.174965
v 2.733333 -0.700000 0.173333
v 2.736460 -0.700000 0.348298
v 2.466667 -0.700000 0.346667
v 2.469794 -0.700000 0.521631
v 2.200000 -0.700000 0.520000
v 2.203127 -0.700000 0.694965
v 1.933333 -0.700000 0.693333
v 1.936460 -0.700000 0.868298
v 1.666667 -0.700000 0.866667
v 1.669794 -0.700000 1.041631
v 1.400000 -0.700000 1.040000
v 1.403127 -0.700000 1.214965
v 1.133333 -0.700000 1.213333
v 1.136461 -0.700000 1.388298
v 0.866667 -0.700000 1.386667
v 0.869794 -0.700000 1.561631
v 0.600000 -0.700000 1.560000
v 0.603127 -0.700000 1.734965
v 0.333333 -0.700000 1.733333
v 0.336461 -0.700000 1.908298
v 0.066667 -0.700000 1.906667
v 0.069794 -0.700000 2.081631
v -0.200000 -0.700000 2.080000
v -0.196873 -0.700000 2.254965
v -0.466667 -0.700000 2.253334
v -0.463539 -0.700000 2.428298
v -0.733333 -0.700000 2.426667
v -0.730206 -0.700000 2.601631
v 3.003127 1.000000 0.174965
v 2.733333 1.000000 0.173333
v 2.736460 1.000000 0.348298
v 2.466667 1.000000 0.346667
v 2.469794 1.000000 0.521631
v 2.200000 1.000000 0.520000
v 2.203127 1.000000 0.694965
v 1.933333 1.000000 0.693333
v 1.936461 1.000000 0.868298
v 1.666667 1.000000 0.866667
v 1.669794 1.000000 1.041631
v 1.400000 1.000000 1.040000
v 1.403127 1.000000 1.214965
v 1.133333 1.000000 1.213333
v 1.136461 1.000000 1.388298
v 0.866667 1.000000 1.386667
v 0.869794 1.000000 1.561631
v 0.600000 1.000000 1.560000
v 0.603127 1.000000 1.734965
v 0.333333 1.000000 1.733333
v 0.336461 1.000000 1.908298
v 0.066667 1.000000 1.906667
v 0.069794 1.000000 2.081631
v -0.200000 1.000000 2.080000
v -0.196872 1.000000 2.254965
v -0.466666 1.000000 2.253334
v -0.463539 1.000000 2.428298
v -0.733333 1.000000 2.426667
v -0.730206 1.000000 2.601631
vt 0.305535 0.030887
vt 0.305162 0.044090
vt 0.204459 0.044100
vt 0.204831 0.030896
vt 0.305164 0.060072
vt 0.204461 0.060082
vt 0.305499 0.073286
vt 0.204796 0.073295
vt 0.305500 0.089268
vt 0.204797 0.089277
vt 0.305835 0.102482
vt 0.205133 0.102491
vt 0.305837 0.118464
vt 0.205134 0.118473
vt 0.306172 0.131678
vt 0.205469 0.131686
vt 0.306173 0.147660
vt 0.205471 0.147668
vt 0.306508 0.160874
vt 0.205806 0.160882
vt 0.306509 0.176856
vt 0.205807 0.176863
vt 0.306844 0.190070
vt 0.206142 0.190077
vt 0.306845 0.206052
vt 0.206143 0.206058
vt 0.307179 0.219266
vt 0.206478 0.219272
vt 0.307180 0.235248
vt 0.206479 0.235253
vt 0.307515 0.248462
vt 0.206814 0.248467
vt 0.307516 0.264444
vt 0.206815 0.264448
vt 0.307143 0.277647
vt 0.206442 0.277651
vt 0.307143 0.293629
vt 0.206443 0.293632
vt 0.306770 0.306832
vt 0.206070 0.306835
vt 0.306770 0.322814
vt 0.206070 0.322816
vt 0.306397 0.336017
vt 0.205697 0.336019
vt 0.306397 0.351999
vt 0.205698 0.352000
vt 0.306024 0.365202
vt 0.205325 0.365203
vt 0.306024 0.381183
vt 0.205325 0.381184
vt 0.305651 0.394386
vt 0.204952 0.394386
vt 0.305651 0.410368
vt 0.204952 0.410368
vt 0.305277 0.423570
vt 0.204578 0.423570
vt 0.305277 0.439552
vt 0.204578 0.439551
vt 0.304904 0.452755
vt 0.204204 0.452754
vt 0.304903 0.468736
vt 0.204204 0.468735
vn 0.999840 0.000000 -0.017870
vn -0.006047 0.000000 0.999982
vn -0.006046 0.000000 0.999982
vn 0.999840 -0.000000 -0.017871
vn 0.999840 -0.000000 -0.017872
usemtl None_greenroom.png
s off
f 7/5/6 40/6/6 11/7/6 8/8/6
f 40/6/7 41/9/7 12/10/7 11/7/7
f 41/9/6 42/11/6 13/12/6 12/10/6
f 42/11/7 43/13/7 14/14/7 13/12/7
f 43/13/6 44/15/6 15/16/6 14/14/6
f 44/15/7 45/17/7 16/18/7 15/16/7
f 45/17/6 46/19/6 17/20/6 16/18/6
f 46/19/8 47/21/8 18/22/8 17/20/8
f 47/21/9 48/23/9 19/24/9 18/22/9
f 48/23/7 49/25/7 20/26/7 19/24/7
f 49/25/9 50/27/9 21/28/9 20/26/9
f 50/27/7 51/29/7 22/30/7 21/28/7
f 51/29/9 52/31/9 23/32/9 22/30/9
f 52/31/7 53/33/7 24/34/7 23/32/7
f 53/33/9 54/35/9 25/36/9 24/34/9
f 54/35/7 55/37/7 26/38/7 25/36/7
f 55/37/10 56/39/10 27/40/10 26/38/10
f 56/39/8 57/41/8 28/42/8 27/40/8
f 57/41/10 58/43/10 29/44/10 28/42/10
f 58/43/7 59/45/7 30/46/7 29/44/7
f 59/45/10 60/47/10 31/48/10 30/46/10
f 60/47/7 61/49/7 32/50/7 31/48/7
f 61/49/10 62/51/10 33/52/10 32/50/10
f 62/51/8 63/53/8 34/54/8 33/52/8
f 63/53/10 64/55/10 35/56/10 34/54/10
f 64/55/8 65/57/8 36/58/8 35/56/8
f 65/57/10 66/59/10 37/60/10 36/58/10
f 66/59/7 67/61/7 38/62/7 37/60/7
f 67/61/10 68/63/10 39/64/10 38/62/10
f 68/63/8 10/65/8 9/66/8 39/64/8
o Plane.001_Plane.004
v -0.980000 -1.000000 0.000000
v -0.980171 -1.000000 0.099707
v -0.980171 1.000000 0.099707
v -1.000171 1.000000 0.099707
v -1.000171 -1.000000 0.099707
v -1.000171 1.000000 2.499707
v -1.000171 -1.000000 2.499707
v -0.980171 1.000000 2.499707
v 0.999829 1.000000 2.499707
v 1.000000 0.980000 0.000000
v -0.980000 0.980000 0.000000
v -0.980171 0.980000 0.099707
v -1.000171 0.980000 0.099707
v -1.000171 0.980000 2.499707
v 1.000000 0.980000 0.100000
v 1.000000 1.000000 0.100000
v -0.980171 1.000000 4.806033
v 0.999829 1.000000 4.806033
v -1.000171 -1.000000 4.806033
v -1.000171 0.980000 4.806033
v -1.000171 1.000000 4.999707
v -1.000171 0.980000 4.999707
v -0.980171 1.000000 4.999707
v 1.000000 0.980000 0.000000
v 3.000000 0.980000 0.000000
v 1.000000 0.980171 0.099707
v 3.000000 0.980171 0.099707
v 3.000000 1.000171 0.099707
v 1.000000 1.000171 0.099707
v 3.000000 1.000171 2.499707
v 1.000000 1.000171 2.499707
v 3.000000 1.000171 4.999707
v 1.000000 1.000171 4.999707
v 1.000000 1.000000 0.000000
v 1.000000 -1.000000 0.000000
v -1.000000 -1.000000 0.000000
v -1.000000 1.000000 0.000000
v 3.000000 1.000000 2.520000
v 3.000000 -1.000000 2.520000
v 1.000000 -1.000000 5.020000
v 1.000000 1.000000 5.020000
v 1.000000 1.000000 0.000000
v 1.000000 -1.000000 0.000000
v 3.000000 -1.000000 0.000000
v 3.000000 1.000000 0.000000
v 1.000000 -1.000000 8.020000
v 1.000000 1.000000 8.020000
vt 0.007681 0.121833
vt 0.238557 0.121833
vt 0.238557 0.251626
vt 0.007681 0.251626
vt 0.217870 0.286569
vt 0.007681 0.286569
vt 0.261215 0.286569
vt 0.238557 0.286569
vt 0.025501 0.516813
vt 0.453276 0.517282
vt 0.453276 0.988922
vt 0.025501 0.988922
vt 0.457505 0.516961
vt 0.457505 0.989070
vt 0.489347 0.121833
vt 0.489347 0.251626
vt 0.489347 0.286569
vt 0.469536 0.539426
vt 0.466772 0.539426
vt 0.466772 0.969660
vt 0.469536 0.969660
vt 0.037500 0.539426
vt 0.037532 0.969660
vt 0.032277 0.188214
vt 0.462821 0.188215
vt 0.462821 0.296014
vt 0.032277 0.296014
vt 0.032277 0.317799
vt 0.462821 0.317800
vt 0.012500 0.535937
vt 0.494511 0.535937
vt 0.494511 0.967164
vt 0.012500 0.967164
vt 0.999277 0.499230
vt 0.500955 0.499230
vt 0.500955 0.000908
vt 0.999277 0.000908
vt 0.512573 0.512573
vt 0.987427 0.512573
vt 0.987427 0.987427
vt 0.512573 0.987427
vn 0.999999 -0.000000 0.001717
vn -0.000000 0.000000 1.000000
vn 1.000000 0.000000 0.000000
vn -0.000148 0.000000 1.000000
vn -0.000000 -0.999999 0.001717
vn -0.780869 0.000000 -0.624695
vn -1.000000 0.000000 0.000000
usemtl None_greenroom.png
s off
f 69/67/11 79/68/11 80/69/11 70/70/11
f 70/70/12 80/69/12 81/71/12 73/72/12
f 80/69/12 71/73/12 72/74/12 81/71/12
f 73/75/13 81/76/13 82/77/13 75/78/13
f 81/76/13 72/79/13 74/80/13 82/77/13
f 79/68/3 78/81/3 83/82/3 80/69/3
f 83/82/14 84/83/14 71/73/14 80/69/14
f 72/84/3 71/85/3 76/86/3 74/87/3
f 71/85/3 84/88/3 77/89/3 76/86/3
f 76/85/3 77/88/3 86/89/3 85/86/3
f 75/75/13 82/76/13 88/77/13 87/78/13
f 82/76/13 74/79/13 89/80/13 90/77/13
f 74/84/3 76/85/3 91/86/3 89/87/3
f 92/90/15 93/91/15 95/92/15 94/93/15
f 97/94/12 94/93/12 95/92/12 96/95/12
f 97/96/3 96/97/3 98/98/3 99/99/3
f 99/96/3 98/97/3 100/98/3 101/99/3
f 102/100/12 105/101/12 104/102/12 103/103/12
f 108/104/16 109/105/16 106/106/16 107/107/16
f 113/100/12 110/101/12 111/102/12 112/103/12
f 109/104/17 108/105/17 114/106/17 115/107/17
