# Blender3D v249 OBJ File: steeldoor.blend
# www.blender3d.org
mtllib steeldoor.mtl
o Handle
v 1.004580 0.256031 0.611059
v 1.004580 0.256031 0.588941
v 1.004580 0.143969 0.588941
v 1.004580 0.143969 0.611059
v 1.056031 0.256031 0.611059
v 1.056031 0.256031 0.588941
v 1.056031 0.143969 0.588941
v 1.056031 0.143969 0.611059
vn 1.000000 -0.000000 -0.000005
vn 0.000000 1.000000 -0.000001
vn 0.000001 -0.000000 -1.000000
vn -0.000001 -1.000000 0.000001
vn -0.000001 0.000000 1.000000
usemtl Material.001
s off
f 5//1 8//1 7//1 6//1
f 1//2 5//2 6//2 2//2
f 2//3 6//3 7//3 3//3
f 3//4 7//4 8//4 4//4
f 5//5 1//5 4//5 8//5
o Steeldoor
v 0.966473 0.000000 1.295952
v 0.966473 0.500000 -0.004048
v 0.966473 -0.500000 -0.004048
v 0.966473 0.295053 1.244277
v 0.966473 0.405632 1.123250
v 0.966473 0.464376 0.863522
v 0.966473 -0.464376 0.863522
v 0.966473 -0.405632 1.123250
v 0.966473 -0.295053 1.244277
v 1.041518 0.000000 1.295952
v 1.041518 -0.295053 1.244277
v 1.041518 -0.405632 1.123250
v 1.041518 -0.464376 0.863522
v 1.041518 -0.500000 -0.004048
v 1.041518 0.500000 -0.004048
v 1.041518 0.464376 0.863522
v 1.041518 0.405632 1.123250
v 1.041518 0.295053 1.244277
v 1.041518 -0.404647 -0.002323
v 1.041518 0.404647 -0.002323
v 1.041518 0.000000 1.213025
v 1.041518 0.238785 1.171204
v 1.041518 0.328276 1.073258
v 1.041518 0.375817 0.863061
v 1.041518 -0.375817 0.863061
v 1.041518 -0.328276 1.073258
v 1.041518 -0.238785 1.171204
v 1.015268 0.000000 1.213025
v 1.015268 -0.238785 1.171204
v 1.015268 -0.328276 1.073258
v 1.015269 -0.375817 0.863061
v 1.015269 -0.404647 -0.002323
v 1.015268 0.375817 0.863061
v 1.015269 0.404647 -0.002323
v 1.015268 0.328276 1.073258
v 1.015268 0.238785 1.171204
vn 1.000000 0.000000 -0.000000
vn 0.641499 0.000000 0.767113
vn 0.000000 0.000000 1.000000
vn 0.000000 -0.481094 0.876644
vn 0.599506 -0.385052 0.701621
vn 0.000000 -0.886349 0.462996
vn 0.616138 -0.698111 0.364666
vn 0.000000 -0.991333 0.131352
vn 0.671072 -0.734947 0.097354
vn 0.000000 -0.999146 0.041017
vn 0.707083 -0.706504 0.028993
vn 0.000000 0.991333 0.131352
vn 0.671072 0.734947 0.097354
vn 0.707083 0.706504 0.028993
vn 0.000000 0.999146 0.041017
vn 0.000000 0.886349 0.462996
vn 0.616138 0.698111 0.364666
vn 0.000000 0.481094 0.876644
vn 0.599506 0.385052 0.701621
vn 0.641499 0.000000 -0.767113
vn 0.599506 0.385052 -0.701621
vn 0.639393 0.000000 -0.768853
vn 0.616138 0.698111 -0.364666
vn 0.669576 0.736656 -0.094699
vn 0.707083 0.706687 -0.023530
vn 0.707083 -0.706687 -0.023530
vn 0.669576 -0.736656 -0.094699
vn 0.616138 -0.698111 -0.364666
vn 0.599506 -0.385052 -0.701621
usemtl Material
s off
f 26//6 18//6 29//6 30//6
f 25//6 26//6 30//6 31//6
f 24//6 25//6 31//6 32//6
f 23//6 24//6 32//6 28//6
f 21//6 22//6 27//6 33//6
f 20//6 21//6 33//6 34//6
f 19//6 20//6 34//6 35//6
f 18//6 19//6 35//6 29//6
f 37//6 44//6 36//6
f 38//6 43//6 44//6 37//6
f 39//6 41//6 43//6 38//6
f 40//6 42//6 41//6 39//6
s 1
f 18//7 9//8 17//9 19//10
f 16//11 20//12 19//10 17//9
f 15//13 21//14 20//12 16//11
f 11//15 22//16 21//14 15//13
f 14//17 24//18 23//19 10//20
f 13//21 25//22 24//18 14//17
f 12//23 26//24 25//22 13//21
f 9//8 18//7 26//24 12//23
f 29//25 35//26 37//26 36//27
f 35//26 34//28 38//28 37//26
f 34//28 33//29 39//29 38//28
f 33//29 27//30 40//30 39//29
f 28//31 32//32 41//32 42//31
f 32//32 31//33 43//33 41//32
f 31//33 30//34 44//34 43//33
f 30//34 29//25 36//27 44//34
