# Blender3D v249 OBJ File: street-incorner.blend
# www.blender3d.org
mtllib street-incorner.mtl
o Plane
v -1.000000 1.000000 0.000000
v -1.000000 0.000000 0.000000
v -1.000000 0.000000 -0.100000
v -1.000000 -1.000000 -0.100000
v -1.000000 -0.250000 -0.100000
v -1.000000 0.150000 0.000000
v 0.000000 1.000000 0.000000
v 0.000000 0.000000 0.000000
v 0.000000 0.000000 -0.100000
v -0.000000 -1.000000 -0.100000
v 0.000000 -0.250000 -0.100000
v 0.000000 0.150000 0.000000
v -0.165285 1.000000 0.000000
v -0.165285 0.000000 0.000000
v -0.165285 0.000000 -0.100000
v -0.165285 -1.000000 -0.100000
v -0.165285 -0.250000 -0.100000
v -0.165285 0.150000 0.000000
v 1.000000 -0.000000 -0.100000
v 1.000000 -0.250000 -0.100000
v 1.000000 -1.000000 -0.100000
v 0.150000 -1.000000 -0.100000
v 0.000000 1.000000 -0.100000
v 0.150000 1.000000 -0.100000
v 1.000000 1.000000 -0.100000
v 0.000000 0.150000 -0.100000
v 1.000000 0.150000 -0.100000
v 0.150000 -0.250000 -0.100000
v 0.150000 0.000000 -0.100000
v 0.150000 0.150000 -0.100000
vt 0.508080 0.275561
vt 0.622617 0.275566
vt 0.622614 0.334384
vt 0.508080 0.334380
vt 0.966223 0.275600
vt 0.966220 0.334419
vt 0.566539 0.225964
vt 0.566539 0.082921
vt 0.641805 0.082921
vt 0.641805 0.225964
vt 0.566539 0.035240
vt 0.641805 0.035240
vt 0.340741 0.225963
vt 0.340741 0.082921
vt 0.340741 0.035240
vt 0.593367 0.269267
vt 0.501018 0.269267
vt 0.501018 0.377801
vt 0.596123 0.375830
vt 0.661748 0.409051
vt 0.938796 0.409051
vt 0.938796 0.300517
vt 0.661748 0.300517
vt 0.005186 0.340402
vt 0.005186 0.404329
vt 0.222538 0.404329
vt 0.222538 0.340402
vt 0.567700 0.451189
vt 0.759482 0.451190
vt 0.759482 0.668542
vt 0.567700 0.668542
vt 0.465417 0.451189
vt 0.503773 0.451189
vt 0.503773 0.668542
vt 0.465417 0.668542
vt 0.497988 0.433051
vt 0.569398 0.409051
vt 0.497893 0.277488
vt 0.413893 0.406023
vt 0.712168 0.111112
vt 0.712168 0.147934
vt 0.804518 0.147935
vt 0.888518 0.104327
vt 0.401714 0.050160
vt 0.401714 0.233489
vt 0.347794 0.233489
vt 0.347794 0.050160
vt 0.435120 0.111112
vt 0.435120 0.147934
vt 0.563475 0.050159
vt 0.563475 0.233488
vt 0.132113 0.050160
vt 0.132113 0.017808
vt 0.315442 0.017808
vt 0.315442 0.050160
vt 0.132113 0.233489
vt 0.315442 0.233489
vt 0.888613 0.217426
vt 0.960023 0.193426
vt 0.888518 0.061863
vt 0.804518 0.190398
vn -0.000000 -1.000000 0.000000
vn 0.000000 0.000000 1.000000
vn 1.000000 -0.000000 0.000000
usemtl None_street.png
s off
f 8/1/1 14/2/1 15/3/1 9/4/1
f 14/2/1 2/5/1 3/6/1 15/3/1
f 5/7/2 17/8/2 15/9/2 3/10/2
f 17/8/2 11/11/2 9/12/2 15/9/2
f 4/13/2 16/14/2 17/8/2 5/7/2
f 16/14/2 10/15/2 11/11/2 17/8/2
f 12/16/2 18/17/2 14/18/2 8/19/2
f 18/20/2 6/21/2 2/22/2 14/23/2
f 7/24/2 13/25/2 18/26/2 12/27/2
f 13/28/2 1/29/2 6/30/2 18/31/2
f 7/32/3 12/33/3 26/34/3 23/35/3
f 12/36/3 8/37/3 9/38/3 26/39/3
f 11/40/2 28/41/2 29/42/2 9/43/2
f 28/44/2 20/45/2 19/46/2 29/47/2
f 10/48/2 22/49/2 28/41/2 11/40/2
f 22/50/2 21/51/2 20/45/2 28/44/2
f 24/52/2 23/53/2 26/54/2 30/55/2
f 25/56/2 24/52/2 30/55/2 27/57/2
f 30/58/2 26/59/2 9/60/2 29/61/2
f 27/57/2 30/55/2 29/47/2 19/46/2
