# Blender3D v249 OBJ File: street.blend
# www.blender3d.org
mtllib street.mtl
o Plane
v 1.000000 1.000000 0.000000
v -1.000000 1.000000 0.000000
v 1.000000 -0.000000 0.000000
v -1.000000 0.000000 0.000000
v -1.000000 0.000000 -0.100000
v 1.000000 -0.000000 -0.100000
v -1.000000 -1.000000 -0.100000
v 1.000000 -1.000000 -0.100000
v -1.000000 -0.250000 -0.100000
v 1.000000 -0.250000 -0.100000
v 1.000000 0.150000 0.000000
v -1.000000 0.150000 0.000000
vt 0.010484 0.331584
vt 0.986124 0.331584
vt 0.986124 0.257048
vt 0.010484 0.257048
vt 0.986124 0.181802
vt 0.010484 0.181803
vt 0.986124 0.015000
vt 0.010484 0.015000
vt 0.010484 0.391291
vt 0.986124 0.391290
vt 0.010484 0.982500
vt 0.986124 0.982500
vn -0.000000 -1.000000 0.000000
vn 0.000000 0.000000 1.000000
usemtl None_street.png
s off
f 3/1/1 4/2/1 5/3/1 6/4/1
f 5/3/2 9/5/2 10/6/2 6/4/2
f 9/5/2 7/7/2 8/8/2 10/6/2
f 3/1/2 11/9/2 12/10/2 4/2/2
f 11/9/2 1/11/2 2/12/2 12/10/2
