# Blender3D v249 OBJ File: suitcase.blend
# www.blender3d.org
mtllib suitcase-open.mtl
o LeftSide
v 0.150853 0.010000 0.000000
v 0.150853 0.190000 0.000000
v -0.150853 0.190000 0.000000
v -0.150853 0.010000 0.000000
v 0.150853 -0.000000 0.040000
v 0.150853 -0.000000 0.010000
v -0.150853 -0.000000 0.010000
v -0.150853 -0.000000 0.040000
v -0.150853 0.200000 0.040000
v -0.150853 0.200000 0.010000
v 0.150853 0.200000 0.010000
v 0.150853 0.200000 0.040000
v 0.160853 0.010000 0.010000
v 0.160853 0.010000 0.040000
v 0.160853 0.190000 0.040000
v 0.160853 0.190000 0.010000
v -0.160853 0.190000 0.010000
v -0.160853 0.190000 0.040000
v -0.160853 0.010000 0.040000
v -0.160853 0.010000 0.010000
v 0.141629 0.010226 0.040000
v -0.141629 0.010226 0.040000
v -0.141629 0.189774 0.040000
v 0.141629 0.189774 0.040000
v 0.151017 0.019204 0.040000
v 0.151017 0.180796 0.040000
v -0.151017 0.180796 0.040000
v -0.151017 0.019204 0.040000
v 0.141629 0.010226 0.017657
v -0.141629 0.010226 0.017658
v -0.141629 0.189774 0.017658
v 0.141629 0.189774 0.017657
v 0.151017 0.019204 0.017657
v 0.151017 0.180796 0.017657
v -0.151017 0.180796 0.017658
v -0.151017 0.019204 0.017658
v -0.000000 0.100000 0.040008
vn 0.000000 0.000000 1.000000
vn -0.000000 1.000000 -0.000000
vn 0.000000 -1.000000 0.000000
vn -1.000000 -0.000000 0.000000
vn 1.000000 0.000000 -0.000001
vn -0.707107 -0.000000 0.707107
vn 0.000000 -0.707107 0.707107
vn 0.000000 0.707107 0.707107
vn 0.707107 0.000000 0.707106
vn -0.707107 0.707107 -0.000000
vn 0.707107 0.707107 -0.000001
vn 0.707107 -0.707107 -0.000002
vn -0.707107 -0.707107 0.000001
vn -0.577350 0.577350 0.577350
vn 0.577350 0.577351 0.577350
vn -0.577350 -0.577350 0.577351
vn 0.577351 -0.577350 0.577350
vn -0.000000 -0.000000 -1.000000
vn 1.000000 0.000000 -0.000000
vn 0.691102 -0.722757 0.000000
vn 0.691103 0.722757 0.000000
vn -0.691103 0.722757 0.000000
vn -0.691103 -0.722756 0.000000
vn -0.000000 0.241594 -0.970377
vn -0.000000 -0.241595 -0.970377
vn -0.146408 -0.000000 -0.989224
vn 0.146408 0.000000 -0.989224
vn -0.094020 0.098327 -0.990703
vn -0.094021 -0.098327 -0.990703
vn 0.094020 -0.098327 -0.990703
vn 0.094020 0.098327 -0.990703
usemtl Material
s off
f 1//1 2//1 3//1 4//1
f 7//2 8//2 5//2 6//2
f 11//3 12//3 9//3 10//3
f 15//4 16//4 13//4 14//4
f 19//5 20//5 17//5 18//5
f 1//6 13//6 16//6 2//6
f 10//7 3//7 2//7 11//7
f 6//8 1//8 4//8 7//8
f 3//9 17//9 20//9 4//9
f 5//10 14//10 13//10 6//10
f 19//11 8//11 7//11 20//11
f 9//12 18//12 17//12 10//12
f 15//13 12//13 11//13 16//13
f 1//14 6//14 13//14
f 4//15 20//15 7//15
f 2//16 16//16 11//16
f 3//17 10//17 17//17
f 5//18 8//18 22//18 21//18
f 9//18 12//18 24//18 23//18
f 15//18 14//18 25//18 26//18
f 19//18 18//18 27//18 28//18
f 14//18 5//18 21//18 25//18
f 12//18 15//18 26//18 24//18
f 18//18 9//18 23//18 27//18
f 8//18 19//18 28//18 22//18
f 21//3 22//3 30//3 29//3
f 23//2 24//2 32//2 31//2
f 26//19 25//19 33//19 34//19
f 28//4 27//4 35//4 36//4
f 25//20 21//20 29//20 33//20
f 24//21 26//21 34//21 32//21
f 27//22 23//22 31//22 35//22
f 22//23 28//23 36//23 30//23
usemtl Material.001
f 29//24 30//24 37//24
f 31//25 32//25 37//25
f 34//26 33//26 37//26
f 36//27 35//27 37//27
f 33//28 29//28 37//28
f 32//29 34//29 37//29
f 35//30 31//30 37//30
f 30//31 36//31 37//31
o RightSide
v 0.150853 -0.033372 0.015786
v 0.150853 -0.171260 0.131488
v -0.150853 -0.171260 0.131488
v -0.150853 -0.033372 0.015786
v 0.150853 0.000000 0.040000
v 0.150853 -0.019284 0.017019
v -0.150853 -0.019284 0.017019
v -0.150853 0.000000 0.040000
v -0.150853 -0.153209 0.168558
v -0.150853 -0.172492 0.145576
v 0.150853 -0.172493 0.145576
v 0.150853 -0.153209 0.168558
v 0.160853 -0.026944 0.023447
v 0.160853 -0.007660 0.046428
v 0.160853 -0.145548 0.162130
v 0.160853 -0.164832 0.139148
v -0.160853 -0.164832 0.139148
v -0.160853 -0.145548 0.162130
v -0.160853 -0.007660 0.046428
v -0.160853 -0.026944 0.023447
v 0.141629 -0.007834 0.046573
v -0.141629 -0.007834 0.046573
v -0.141629 -0.145375 0.161984
v 0.141629 -0.145375 0.161984
v 0.151017 -0.014711 0.052344
v 0.151017 -0.138498 0.156214
v -0.151017 -0.138498 0.156214
v -0.151017 -0.014711 0.052344
v 0.141629 -0.022195 0.029458
v -0.141629 -0.022195 0.029458
v -0.141629 -0.159737 0.144869
v 0.141629 -0.159737 0.144869
v 0.151017 -0.029072 0.035229
v 0.151017 -0.152860 0.139098
v -0.151017 -0.152859 0.139098
v -0.151017 -0.029072 0.035229
v -0.000000 -0.076599 0.104285
v 0.042571 -0.153209 0.168558
v -0.042571 -0.153209 0.168558
v 0.042571 -0.158566 0.162173
v -0.042571 -0.158566 0.162173
v 0.032494 -0.153209 0.168558
v 0.032494 -0.158566 0.162173
v -0.031811 -0.153209 0.168558
v -0.031811 -0.158566 0.162173
v -0.031811 -0.171552 0.183949
v -0.031811 -0.176909 0.177565
v -0.042571 -0.176909 0.177565
v -0.042571 -0.171552 0.183949
v 0.032362 -0.171552 0.183949
v 0.042571 -0.176909 0.177565
v 0.042571 -0.171552 0.183949
v -0.042571 -0.187160 0.186166
v -0.042571 -0.181803 0.192551
v 0.042571 -0.187160 0.186166
v 0.042571 -0.181803 0.192551
v -0.031811 -0.181803 0.192551
v -0.031811 -0.187160 0.186166
v 0.032229 -0.176909 0.177565
v 0.032229 -0.181803 0.192551
v 0.032229 -0.187160 0.186166
vn -0.000000 -0.642788 -0.766044
vn 0.000000 0.766044 -0.642788
vn -1.000000 0.000001 0.000001
vn 0.707107 -0.454520 -0.541675
vn -0.000000 -0.996195 -0.087155
vn 0.000000 0.087156 -0.996195
vn -0.707107 -0.454519 -0.541675
vn 0.707107 0.541676 -0.454519
vn -0.707107 0.541676 -0.454519
vn -0.707107 -0.541674 0.454520
vn 0.707107 -0.541676 0.454519
vn 0.577350 0.071162 -0.813390
vn -0.577350 0.071163 -0.813389
vn 0.577350 -0.813390 -0.071162
vn -0.577351 -0.813389 -0.071161
vn 0.000000 0.642788 0.766044
vn -0.000001 0.642788 0.766044
vn -0.000000 0.642787 0.766045
vn -0.000000 -0.766044 0.642788
vn -0.691102 -0.553664 0.464579
vn -0.691103 0.553664 -0.464579
vn 0.691103 0.553663 -0.464579
vn 0.691103 -0.553663 0.464579
vn 0.000000 0.808819 0.588058
vn 0.000000 0.438674 0.898646
vn 0.146408 0.635861 0.757790
vn -0.146408 0.635861 0.757790
vn 0.094020 0.712134 0.695719
vn 0.094021 0.561489 0.822125
vn -0.094021 0.561489 0.822125
vn -0.094020 0.712134 0.695719
vn 0.000000 -0.766045 0.642787
vn 0.000001 0.642788 0.766044
vn -0.999934 0.011451 0.000753
vn -0.000003 -0.642788 -0.766044
vn 0.000002 0.642788 0.766044
vn 0.000003 0.642787 0.766045
vn -0.000001 -0.766045 0.642787
vn 0.000000 0.766044 -0.642789
usemtl Material
s off
f 38//32 39//32 40//32 41//32
f 44//33 45//33 42//33 43//33
f 52//19 53//19 50//19 51//19
f 56//34 57//34 54//34 55//34
f 38//35 50//35 53//35 39//35
f 47//36 40//36 39//36 48//36
f 43//37 38//37 41//37 44//37
f 40//38 54//38 57//38 41//38
f 42//39 51//39 50//39 43//39
f 56//40 45//40 44//40 57//40
f 46//41 55//41 54//41 47//41
f 52//42 49//42 48//42 53//42
f 38//43 43//43 50//43
f 41//44 57//44 44//44
f 39//45 53//45 48//45
f 40//46 47//46 54//46
f 42//47 45//47 59//47 58//47
f 52//48 51//48 62//48 63//48
f 56//47 55//47 64//47 65//47
f 51//47 42//47 58//47 62//47
f 49//47 52//47 63//47 61//47
f 55//49 46//49 60//49 64//49
f 45//47 56//47 65//47 59//47
f 58//50 59//50 67//50 66//50
f 60//33 61//33 69//33 68//33
f 63//4 62//4 70//4 71//4
f 65//19 64//19 72//19 73//19
f 62//51 58//51 66//51 70//51
f 61//52 63//52 71//52 69//52
f 64//53 60//53 68//53 72//53
f 59//54 65//54 73//54 67//54
f 66//55 67//55 74//55
f 68//56 69//56 74//56
f 71//57 70//57 74//57
f 73//58 72//58 74//58
f 70//59 66//59 74//59
f 69//60 71//60 74//60
f 72//61 68//61 74//61
f 67//62 73//62 74//62
f 79//63 81//63 82//63 80//63
f 46//50 47//50 78//50 76//50
f 47//63 82//63 78//63
f 48//63 77//63 80//63
f 47//50 48//50 80//50 82//50
f 48//50 49//50 75//50 77//50
f 82//19 81//19 83//19 84//19
f 78//32 82//32 84//32 85//32
f 81//64 76//64 86//64 83//64
f 79//65 80//65 96//65 87//65
f 80//66 77//66 88//66 96//66
f 75//67 79//67 87//67 89//67
f 77//19 75//19 89//19 88//19
f 76//4 78//4 85//4 86//4
f 86//4 85//4 90//4 91//4
f 88//19 89//19 93//19 92//19
f 89//68 87//68 97//68 93//68
f 96//66 88//66 92//66 98//66
f 83//64 86//64 91//64 94//64
f 85//32 84//32 95//32 90//32
f 93//50 97//50 98//50 92//50
f 94//69 91//69 90//69 95//69
f 84//70 83//70 87//70 96//70
f 83//47 94//47 97//47 87//47
f 95//32 84//32 96//32 98//32
f 94//63 95//63 98//63 97//63
f 46//49 49//49 61//49 60//49
