# Blender3D v249 OBJ File: table.blend
# www.blender3d.org
mtllib table.mtl
o Cube
v 0.550000 0.275000 0.700000
v 0.550000 -0.275000 0.700000
v -0.550000 -0.275000 0.700000
v -0.550000 0.275000 0.700000
v 0.550000 0.275000 0.730000
v 0.550000 -0.275000 0.730000
v -0.550000 -0.275000 0.730000
v -0.550000 0.275000 0.730000
v -0.485000 0.215000 0.002200
v -0.485000 0.185000 0.002200
v -0.515000 0.185000 0.002200
v -0.515000 0.215000 0.002200
v -0.485000 0.215000 0.702200
v -0.485000 0.185000 0.702200
v -0.515000 0.185000 0.702200
v -0.515000 0.215000 0.702200
v -0.515000 -0.185000 0.702200
v -0.515000 -0.215000 0.702200
v -0.485000 -0.215000 0.702200
v -0.485000 -0.185000 0.702200
v -0.515000 -0.185000 0.002200
v -0.515000 -0.215000 0.002200
v -0.485000 -0.215000 0.002200
v -0.485000 -0.185000 0.002200
v 0.515000 -0.185000 0.002200
v 0.515000 -0.215000 0.002200
v 0.485000 -0.215000 0.002200
v 0.485000 -0.185000 0.002200
v 0.515000 -0.185000 0.702200
v 0.515000 -0.215000 0.702200
v 0.485000 -0.215000 0.702200
v 0.485000 -0.185000 0.702200
v 0.485000 0.215000 0.702200
v 0.485000 0.185000 0.702200
v 0.515000 0.185000 0.702200
v 0.515000 0.215000 0.702200
v 0.485000 0.215000 0.002200
v 0.485000 0.185000 0.002200
v 0.515000 0.185000 0.002200
v 0.515000 0.215000 0.002200
vt 0.033543 0.939113
vt 0.033543 0.514012
vt 0.458644 0.514012
vt 0.458644 0.939113
vt 0.246094 0.620471
vt 0.039762 0.514219
vt 0.239875 0.514012
vt 0.137775 0.712532
vt 0.239875 0.722324
vt 0.033543 0.616072
vt 0.039762 0.722531
vt 0.141862 0.524011
vt 0.354413 0.524011
vt 0.252313 0.722531
vt 0.252313 0.514219
vt 0.458644 0.620471
vt 0.246094 0.616072
vt 0.452425 0.722324
vt 0.350325 0.712532
vt 0.452425 0.514012
vt 0.246094 0.828991
vt 0.039762 0.722738
vt 0.239875 0.722531
vt 0.137774 0.921052
vt 0.239875 0.930844
vt 0.033543 0.824592
vt 0.039762 0.931051
vt 0.141862 0.732531
vt 0.350325 0.921052
vt 0.452425 0.722531
vt 0.452425 0.930844
vt 0.246094 0.824592
vt 0.458644 0.828991
vt 0.252313 0.722738
vt 0.354413 0.732531
vt 0.252313 0.931051
vn 0.000000 0.000000 -1.000000
vn 0.000000 -0.000000 1.000000
vn 1.000000 -0.000000 0.000001
vn -0.000000 -1.000000 0.000001
vn -1.000000 0.000001 -0.000007
vn 0.000000 1.000000 0.000001
vn 1.000000 -0.000000 0.000000
vn 0.000000 -1.000000 0.000000
vn -1.000000 0.000001 -0.000000
vn 0.000000 1.000000 0.000000
usemtl None_doubledoors.png
s off
f 1/1/1 2/2/1 3/3/1 4/4/1
f 5/1/2 8/2/2 7/3/2 6/4/2
f 1/2/3 5/3/3 6/4/3 2/1/3
f 2/2/4 6/3/4 7/4/4 3/1/4
f 3/2/5 7/3/5 8/4/5 4/1/5
f 5/2/6 1/3/6 4/4/6 8/1/6
f 9/5/7 13/6/7 14/7/7 10/8/7
f 10/8/8 14/7/8 15/9/8 11/10/8
f 11/10/9 15/9/9 16/11/9 12/12/9
f 12/12/10 16/11/10 13/6/10 9/5/10
f 21/13/10 17/14/10 20/15/10 24/16/10
f 22/17/9 18/18/9 17/14/9 21/13/9
f 23/19/8 19/20/8 18/18/8 22/17/8
f 24/16/7 20/15/7 19/20/7 23/19/7
f 25/21/7 29/22/7 30/23/7 26/24/7
f 26/24/8 30/23/8 31/25/8 27/26/8
f 27/26/9 31/25/9 32/27/9 28/28/9
f 28/28/10 32/27/10 29/22/10 25/21/10
f 37/29/10 33/30/10 36/31/10 40/32/10
f 38/33/9 34/34/9 33/30/9 37/29/9
f 39/35/8 35/36/8 34/34/8 38/33/8
f 40/32/7 36/31/7 35/36/7 39/35/7
