# Blender3D v249 OBJ File: titanic-lowwall.blend
# www.blender3d.org
mtllib titanic-lowwall.mtl
o Plane
v 1.000000 -1.000000 0.000000
v -1.000000 -1.000000 0.000000
v 1.000000 -0.000000 0.000000
v -1.000000 0.000000 0.000000
v -1.000000 0.000000 1.000000
v 1.000000 -0.000000 1.000000
v -1.000000 1.000000 1.000000
v 1.000000 1.000000 1.000000
vt 0.414000 0.994667
vt 0.080667 0.994667
vt 0.080667 0.328000
vt 0.414000 0.328000
vt 0.047375 0.003731
vt 0.047375 0.989624
vt 0.017729 0.989624
vt 0.017729 0.003731
vt 0.047375 0.496967
vt 0.017729 0.496967
vt 0.017729 0.991074
vt 0.047375 0.991074
vn -0.000000 0.000000 1.000000
vn -0.000000 -1.000000 0.000000
usemtl None_titan-wall.png
s off
f 1/1/1 3/2/1 4/3/1 2/4/1
f 4/5/2 3/6/2 6/7/2 5/8/2
f 6/9/1 8/10/1 7/11/1 5/12/1
