# Blender3D v249 OBJ File: titanic-highwall.blend
# www.blender3d.org
mtllib titanic-highwall.mtl
o Fence
v 1.000000 -0.000000 11.000000
v -1.000000 0.000000 11.000000
v 1.000000 -0.000000 10.000000
v -1.000000 0.000000 10.000000
vt 0.986341 0.013360
vt 0.986341 0.964765
vt 0.013659 0.964765
vt 0.013659 0.013360
vn -0.000000 -1.000000 0.000000
usemtl None_fence.png
s off
f 3/1/1 1/2/1 2/3/1 4/4/1
o Plane
v 1.000000 -1.000000 0.000000
v -1.000000 -1.000000 0.000000
v 1.000000 -0.000000 0.000000
v -1.000000 0.000000 0.000000
v -1.000000 0.000000 10.000000
v 1.000000 -0.000000 10.000000
v -1.000000 1.000000 10.000000
v 1.000000 1.000000 10.000000
vt 0.674556 0.405214
vt 0.674556 0.690188
vt 0.104609 0.690188
vt 0.104609 0.405215
vt 0.010385 0.025759
vt 0.056282 0.025759
vt 0.056283 0.974241
vt 0.010385 0.974241
vt 0.674558 0.697312
vt 0.674558 0.982286
vt 0.104611 0.982285
vt 0.104611 0.697312
vn -0.000000 0.000000 1.000000
usemtl None_titan-wall.png
s off
f 5/5/2 7/6/2 8/7/2 6/8/2
f 8/9/1 7/10/1 10/11/1 9/12/1
f 10/13/2 12/14/2 11/15/2 9/16/2
