# Blender3D v249 OBJ File: titanic-cabin.blend
# www.blender3d.org
mtllib titanic-cabin.mtl
o Cube
v 1.000000 1.000000 0.000000
v 1.000000 -1.000000 0.000000
v -1.000000 -1.000000 0.000000
v -1.000000 1.000000 0.000000
v 1.000000 1.000000 1.000000
v 0.999999 -1.000000 2.000000
v -1.000001 -0.999999 2.000000
v -1.000000 1.000000 1.000000
v 1.000000 -0.000000 0.000000
v -1.000000 0.000000 0.000000
v 1.000000 -0.000000 2.000000
v -1.000000 0.000001 2.000000
vt 0.057229 0.025499
vt 0.057229 0.971275
vt 0.005472 0.971275
vt 0.005472 0.025500
vt 0.056887 0.899058
vt 0.010351 0.899058
vt 0.010351 0.060216
vt 0.056887 0.060216
vt 0.846085 0.948249
vt 0.415374 0.948249
vt 0.415374 0.100371
vt 0.846084 0.100371
vt 0.110816 0.948249
vt 0.110816 0.100371
vt 0.037458 0.071168
vt 0.059056 0.071168
vt 0.059056 0.508207
vt 0.037458 0.945246
vt 0.015859 0.945246
vt 0.015859 0.071168
vt 0.009739 0.011598
vt 0.034047 0.011597
vt 0.034047 0.938318
vt 0.009739 0.938318
vt 0.058355 0.474958
vt 0.058355 0.938318
vn -0.000000 -1.000000 0.000000
vn 0.000000 1.000000 0.000000
vn 0.000000 0.707107 0.707107
vn 0.000000 0.000000 1.000000
vn 1.000000 -0.000000 -0.000000
vn -1.000000 0.000000 -0.000000
usemtl None_titan-wall.png
s off
f 2/1/1 6/2/1 7/3/1 3/4/1
f 5/5/2 1/6/2 4/7/2 8/8/2
f 8/9/3 12/10/3 11/11/3 5/12/3
f 12/10/4 7/13/4 6/14/4 11/11/4
f 9/15/5 1/16/5 5/17/5 11/18/5
f 11/18/5 6/19/5 2/20/5 9/15/5
f 7/21/6 12/22/6 10/23/6 3/24/6
f 12/22/6 8/25/6 4/26/6 10/23/6
