# Blender3D v249 OBJ File: titan-wall.blend
# www.blender3d.org
mtllib titan-wall.mtl
o Plane
v 0.000000 1.000000 2.000000
v 0.500000 1.000000 -0.000000
v 0.500000 -1.000000 0.000000
v 0.000000 -1.000000 2.000000
v 0.400000 1.000000 2.500000
v 0.400000 -1.000000 2.500000
vt 0.903705 0.068940
vt 0.096294 0.068941
vt 0.096295 0.901202
vt 0.903706 0.901201
vn 0.976989 0.000000 -0.213202
vn 0.970122 0.000000 0.242531
vn 0.780847 0.000000 -0.624683
usemtl None_titan-wall.png
s 1
f 1/1/1 4/2/1 3/3/2 2/4/2
f 4/1/1 1/2/1 5/3/3 6/4/3
