# Blender3D v249 OBJ File: toyhouse.blend
# www.blender3d.org
mtllib toyhouse.mtl
o Cube
v 0.050000 0.050000 -0.000000
v 0.050000 -0.050000 -0.000000
v -0.050000 -0.050000 -0.000000
v -0.050000 0.050000 -0.000000
v 0.050000 0.050000 0.060000
v 0.050000 -0.050000 0.060000
v -0.050000 -0.050000 0.060000
v -0.050000 0.050000 0.060000
v -0.050000 0.000000 0.100000
v 0.050000 0.000000 0.100000
vn 0.000000 0.624695 0.780869
vn -0.000000 -0.624695 0.780869
vn 0.000000 0.000000 -1.000000
vn 1.000000 -0.000000 0.000000
vn -0.000000 -1.000000 -0.000000
vn -1.000000 0.000000 -0.000000
vn 0.000000 1.000000 0.000000
vn -1.000000 0.000001 0.000000
usemtl Material
s off
f 5//1 8//1 9//1 10//1
f 7//2 6//2 10//2 9//2
usemtl Material.001
f 1//3 2//3 3//3 4//3
f 1//4 5//4 6//4 2//4
f 2//5 6//5 7//5 3//5
f 3//6 7//6 8//6 4//6
f 5//7 1//7 4//7 8//7
f 8//8 7//8 9//8
f 6//4 5//4 10//4
