# Blender3D v249 OBJ File: toyship.blend
# www.blender3d.org
mtllib toyship.mtl
o Cube.001
v -0.003000 0.003000 0.043000
v -0.003000 0.003000 0.037000
v -0.003000 -0.003000 0.037000
v -0.003000 -0.003000 0.043000
v 0.003000 0.003000 0.043000
v 0.003000 0.003000 0.037000
v 0.003000 -0.003000 0.037000
v 0.003000 -0.003000 0.043000
v 0.003000 -0.003000 0.156559
v -0.003000 -0.003000 0.156559
v -0.003000 0.003000 0.156559
v 0.003000 0.003000 0.156559
v 0.003000 -0.003000 0.052653
v -0.003000 -0.003000 0.052653
v -0.003000 0.003000 0.052653
v 0.003000 0.003000 0.052653
v 0.003000 -0.041205 0.052653
v -0.003000 -0.041205 0.052653
v -0.003000 -0.041205 0.043000
v 0.003000 -0.041205 0.043000
vn -1.000000 -0.000000 0.000000
vn 1.000000 0.000000 -0.000000
vn -0.000000 1.000000 0.000000
vn 0.000000 0.000000 -1.000000
vn 0.000000 -1.000000 -0.000000
vn 0.000000 0.000000 1.000000
usemtl Material
s off
f 1//1 2//1 3//1 4//1
f 5//2 8//2 7//2 6//2
f 1//3 5//3 6//3 2//3
f 2//4 6//4 7//4 3//4
f 3//5 7//5 8//5 4//5
f 10//6 9//6 12//6 11//6
f 13//5 9//5 10//5 14//5
f 1//3 15//3 16//3 5//3
f 15//3 11//3 12//3 16//3
f 5//2 16//2 13//2 8//2
f 16//2 12//2 9//2 13//2
f 15//1 1//1 4//1 14//1
f 14//1 10//1 11//1 15//1
f 13//6 14//6 18//6 17//6
f 14//1 4//1 19//1 18//1
f 8//2 13//2 17//2 20//2
f 4//4 8//4 20//4 19//4
f 20//5 17//5 18//5 19//5
o Cube
v 0.040446 0.011083 0.000000
v 0.040446 -0.085987 0.000000
v -0.040446 -0.085987 0.000000
v -0.040446 0.011083 0.000000
v 0.050000 0.020000 0.040000
v 0.050000 -0.100000 0.040000
v -0.050000 -0.100000 0.040000
v -0.050000 0.020000 0.040000
v -0.000000 -0.085987 0.000000
v -0.000000 0.075796 0.000000
v -0.000000 -0.100000 0.040000
v -0.000000 0.100000 0.040000
vn 0.972639 0.000000 -0.232321
vn -0.972639 0.000000 -0.232321
vn -0.000000 -0.943764 -0.330621
vn -0.000000 -0.943764 -0.330620
vn -0.807489 0.504681 -0.305383
vn 0.807489 0.504680 -0.305383
usemtl Material.001
s off
f 21//7 25//7 26//7 22//7
f 23//8 27//8 28//8 24//8
f 24//4 30//4 29//4 23//4
f 30//4 21//4 22//4 29//4
f 25//6 32//6 31//6 26//6
f 32//6 28//6 27//6 31//6
f 26//9 31//9 29//9 22//9
f 31//10 27//10 23//10 29//10
f 28//11 32//11 30//11 24//11
f 21//12 30//12 32//12 25//12
