# Blender3D v249 OBJ File: tropicaltree.blend
# www.blender3d.org
mtllib tropicaltree.mtl
o Tube.001
v 0.003058 1.241995 3.022469
v 0.014806 1.222042 3.040305
v 0.003058 1.202253 3.058147
v -0.025306 1.194109 3.065539
v -0.053670 1.202253 3.058147
v -0.065419 1.222042 3.040305
v -0.053670 1.241995 3.022469
v -0.025306 1.250304 3.015083
v 0.633452 1.650915 2.658268
v 0.834991 1.308635 2.964224
v -0.694359 1.345528 2.914834
v -0.574441 1.549186 2.732789
v 0.022524 0.725275 3.497557
v -0.388907 0.843404 3.390325
v 0.556825 0.986550 3.214822
v 0.181754 0.878860 3.312580
v -0.340776 1.635933 2.686357
v 0.228295 1.636138 2.659960
v 0.950469 1.635419 2.245635
v 1.256909 1.114984 2.710840
v -1.068463 1.171080 2.635741
v -0.886129 1.480740 2.358943
v 0.021555 0.227986 3.521770
v -0.604025 0.407601 3.358724
v 0.833957 0.625254 3.091872
v 0.263664 0.461511 3.240513
v -0.530842 1.612639 2.288344
v 0.334430 1.612951 2.248207
v -0.039488 1.246149 3.018776
v -0.056240 1.636036 2.673159
v -0.142689 1.778227 2.124602
v -0.059545 1.232018 3.031387
v -0.634400 1.447357 2.823811
v -1.273484 1.409200 2.419256
v -0.039488 1.198181 3.061843
v -0.183192 0.784340 3.443941
v -0.390987 0.112435 3.632138
v -0.011124 1.198181 3.061843
v 0.369289 0.932705 3.263701
v 0.689584 0.402616 3.279615
v 0.008932 1.232018 3.031387
v 0.734221 1.479775 2.811246
v 1.403338 1.472605 2.394681
v 1.376615 1.427268 2.361748
v 0.720686 1.435119 2.770298
v 0.009002 1.190668 2.985081
v 0.674514 0.397895 3.219576
v 0.360725 0.909460 3.206776
v -0.012575 1.159312 3.013457
v -0.379604 0.097940 3.572855
v -0.177496 0.754743 3.389667
v -0.039674 1.156102 3.016198
v -1.244711 1.364162 2.387668
v -0.619602 1.402602 2.783412
v -0.058556 1.190327 2.985398
v -0.142746 1.716884 2.115056
v -0.057362 1.581645 2.643250
v -0.041524 1.204941 2.972388
v 0.322448 1.552530 2.240474
v -0.518971 1.552703 2.277348
v 0.262703 0.464777 3.178524
v 0.805820 0.612873 3.037936
v -0.577415 0.389917 3.305496
v 0.016888 0.217729 3.460720
v -0.868362 1.422873 2.345166
v -1.033185 1.145918 2.591283
v 1.225308 1.081072 2.669542
v 0.930178 1.581295 2.222983
v 0.220795 1.581731 2.631018
v -0.335545 1.582142 2.655808
v 0.180463 0.859805 3.253509
v 0.541284 0.959632 3.161082
v -0.375065 0.812098 3.338532
v 0.019991 0.697957 3.441867
v -0.564542 1.496640 2.701245
v -0.675307 1.310408 2.867319
v 0.818641 1.269608 2.918797
v 0.622947 1.601313 2.622443
v -0.027339 1.209054 2.968732
v -0.054195 1.200552 2.976248
v -0.064430 1.180351 2.994316
v -0.053856 1.160174 3.012502
v -0.026125 1.153610 3.018495
v 0.001607 1.163384 3.009761
v 0.014877 1.180691 2.993999
v 0.003128 1.200644 2.976163
vt 0.667989 0.296878
vt 0.819074 0.604785
vt 0.664815 0.617533
vt 0.623674 0.286999
vt 0.506243 0.647967
vt 0.577237 0.279521
vt 0.888587 0.806369
vt 0.686472 0.906332
vt 0.480485 0.870960
vt 0.724831 0.229307
vt 0.767649 0.599976
vt 0.681438 0.596819
vt 0.677482 0.225739
vt 0.593724 0.596040
vt 0.629734 0.224614
vt 0.803114 0.864114
vt 0.666568 0.926617
vt 0.538206 0.860852
vt 0.712427 0.240569
vt 0.782155 0.594712
vt 0.652338 0.598403
vt 0.665546 0.242825
vt 0.526802 0.612363
vt 0.619368 0.247468
vt 0.831107 0.848392
vt 0.659703 0.927516
vt 0.487993 0.866845
vt 0.791575 0.275298
vt 0.774800 0.571871
vt 0.655562 0.590370
vt 0.748084 0.281071
vt 0.549302 0.611350
vt 0.703878 0.289532
vt 0.802987 0.799324
vt 0.636183 0.869071
vt 0.505548 0.834098
vt 0.726090 0.242591
vt 0.783926 0.610096
vt 0.666985 0.602312
vt 0.679098 0.240423
vt 0.550649 0.602603
vt 0.632237 0.240731
vt 0.822617 0.838163
vt 0.663277 0.900705
vt 0.506243 0.828293
vt 0.662446 0.932434
vt 0.476790 0.841992
vt 0.851674 0.853068
vt 0.683154 0.041124
vt 0.730344 0.042125
vt 0.635973 0.040194
vt 0.636416 0.905096
vt 0.472084 0.853641
vt 0.835890 0.817082
vt 0.719491 0.102582
vt 0.764447 0.095556
vt 0.675395 0.109560
vt 0.865068 0.864472
vt 0.661044 0.962613
vt 0.454807 0.885309
vt 0.651637 0.052525
vt 0.698530 0.049066
vt 0.608653 0.055872
vt 0.665512 0.958527
vt 0.504317 0.874809
vt 0.835662 0.879889
vt 0.687315 0.023323
vt 0.734477 0.025742
vt 0.639412 0.020995
vt 0.925772 0.821484
vt 0.692269 0.947706
vt 0.447181 0.895480
vt 0.653477 0.101145
vt 0.698980 0.110089
vt 0.611630 0.092926
vt 0.857273 0.592230
vt 0.464660 0.644467
vt 0.813475 0.574296
vt 0.509992 0.600667
vt 0.824645 0.589604
vt 0.483415 0.606299
vt 0.810524 0.597474
vt 0.550357 0.593190
vt 0.823774 0.605999
vt 0.511461 0.596630
vt 0.709073 0.276705
vt 0.528423 0.269414
vt 0.834144 0.279365
vt 0.660729 0.268911
vt 0.759328 0.231183
vt 0.571288 0.233329
vt 0.773876 0.224394
vt 0.580821 0.219517
vt 0.774507 0.234625
vt 0.584500 0.229651
vt 0.441952 0.420828
vt 0.441909 0.436359
vt 0.434288 0.436352
vt 0.433830 0.420828
vt 0.417874 0.437928
vt 0.417874 0.420899
vt 0.425869 0.420828
vt 0.425861 0.437857
vt 0.425869 0.437856
vt 0.426473 0.420895
vt 0.433830 0.437800
vt 0.658741 0.440936
vt 0.425274 0.331393
vt 0.491921 0.062808
vt 0.691537 0.091262
vt 0.889020 0.341025
vt 0.866920 0.045694
vt 0.667369 0.991767
vt 0.393904 0.720235
vt 0.956232 0.738869
vt 0.724517 0.482540
vt 0.954808 0.489931
vt 0.868391 0.057903
vt 0.715160 0.047304
vt 0.397015 0.479922
vt 0.503414 0.047304
vt 0.677407 0.995053
vt 0.924441 0.798397
vt 0.414372 0.781651
vt 0.660032 0.590748
vt 0.468391 0.249200
vt 0.497257 0.040417
vt 0.684994 0.053273
vt 0.909191 0.289020
vt 0.856483 0.043542
vt 0.647940 0.989464
vt 0.413127 0.664102
vt 0.946912 0.668780
vt 0.678528 0.432112
vt 0.426176 0.417250
vt 0.485931 0.095283
vt 0.684522 0.057319
vt 0.931894 0.391536
vt 0.847527 0.051576
vt 0.657882 0.993813
vt 0.478004 0.751945
vt 0.869394 0.748238
vt 0.665912 0.264365
vt 0.443752 0.230295
vt 0.509579 0.035069
vt 0.679660 0.019759
vt 0.916329 0.213999
vt 0.793588 0.013509
vt 0.665080 0.990758
vt 0.444819 0.597268
vt 0.938680 0.577501
vn 0.445784 -0.437880 0.780694
vn 0.661306 0.523667 0.537034
vn 0.016144 0.910611 0.412885
vn 0.291452 -0.032838 0.955992
vn -0.598498 0.495621 0.629353
vn 0.705313 -0.259163 0.659810
vn 0.817866 0.478042 -0.320200
vn -0.057985 0.758354 -0.649251
vn -0.874630 0.456191 -0.163854
vn 0.280709 0.959441 0.025300
vn -0.324809 0.730644 0.600513
vn 0.654653 0.272561 0.705039
vn -0.322825 -0.104038 0.940703
vn -0.037935 -0.546129 0.836818
vn 0.058290 0.827052 -0.559038
vn -0.917722 0.367748 -0.149968
vn -0.633686 -0.453200 0.626911
vn -0.667592 0.692129 -0.274209
vn -0.670553 0.644368 0.367534
vn -0.122837 0.405072 0.905972
vn 0.240913 0.968932 0.055361
vn 0.650288 0.359996 0.668966
vn -0.003113 0.911924 -0.410321
vn -0.980560 0.057985 0.187384
vn -0.348155 -0.594134 0.725089
vn 0.702536 -0.366344 0.610065
vn -0.589953 0.035646 0.806604
vn 0.162603 0.289773 0.943175
vn -0.269265 0.954772 0.125980
vn 0.536241 0.775414 0.333384
vn 0.430311 0.852321 -0.297220
vn -0.545000 -0.607532 0.577776
vn 0.439802 -0.671712 0.596088
vn 0.984741 0.118748 0.126957
vn -0.060030 -0.542161 0.838099
vn 0.254524 -0.004059 0.967040
vn 0.284066 0.728141 0.623737
vn -0.648244 0.258461 0.716178
vn -0.281686 0.951537 0.123295
vn -0.946776 0.058718 0.316385
vn 0.717215 -0.333506 0.611835
vn 0.903500 0.406629 -0.135166
vn 0.033174 0.872189 -0.487991
vn 0.277291 -0.548296 -0.788965
vn -0.335002 -0.102542 -0.936583
vn 0.164678 -0.976104 -0.141636
vn -0.646992 -0.683248 -0.338420
vn -0.059053 -0.912931 0.403760
vn -0.940733 -0.321970 -0.106388
vn 0.088107 -0.715140 -0.693381
vn 0.480667 -0.123325 -0.868160
vn -0.588519 -0.585040 -0.557970
vn -0.300058 0.078860 -0.950652
vn -0.003967 0.453291 -0.891324
vn 0.425550 0.509842 -0.747612
vn -0.531388 -0.281564 -0.798944
vn -0.080752 -0.825861 -0.558000
vn 0.638081 -0.584094 -0.501602
vn 0.237800 0.028932 -0.970855
vn -0.659627 0.294656 -0.691397
vn -0.127567 -0.633412 -0.763207
vn -0.016968 -0.980773 -0.194281
vn 0.397076 -0.230689 -0.888272
vn 0.670431 -0.663381 -0.332224
vn 0.689077 -0.705313 0.166326
vn -0.025208 -0.919919 0.391247
vn 0.593646 -0.646016 -0.479781
vn -0.055513 -0.567125 -0.821741
vn -0.642750 -0.663320 -0.383129
vn 0.247414 -0.964354 -0.093661
vn 0.434065 -0.834468 0.339396
vn 0.464248 -0.862575 -0.200903
vn -0.461745 -0.874050 -0.150975
vn -0.634022 -0.428602 -0.643635
vn 0.145177 0.105869 -0.983703
vn -0.320933 -0.142033 -0.936369
vn 0.580309 -0.332377 -0.743461
vn 0.527421 -0.372448 -0.763604
vn 0.150395 -0.964263 -0.217963
vn -0.153233 -0.975097 -0.160222
vn -0.546953 -0.302988 -0.780389
vn -0.016144 -0.911313 -0.411328
vn 0.324686 -0.730857 -0.600330
vn 0.123875 -0.403241 -0.906644
vn -0.162725 -0.287606 -0.943815
vn -0.286172 -0.728416 -0.622456
usemtl None_tropicaltree.png
s 1
f 8/1/1 18/2/2 30/3/3 29/4/4
f 29/4/4 30/3/3 17/5/5 7/6/6
f 18/2/2 28/7/7 31/8/8 30/3/3
f 30/3/3 31/8/8 27/9/9 17/5/5
f 7/10/6 12/11/10 33/12/11 32/13/12
f 32/13/12 33/12/11 11/14/13 6/15/14
f 12/11/10 22/16/15 34/17/16 33/12/11
f 33/12/11 34/17/16 21/18/17 11/14/13
f 5/19/18 14/20/19 36/21/20 35/22/21
f 35/22/21 36/21/20 13/23/22 4/24/23
f 14/20/19 24/25/24 37/26/25 36/21/20
f 36/21/20 37/26/25 23/27/26 13/23/22
f 4/28/23 16/29/27 39/30/28 38/31/29
f 38/31/29 39/30/28 15/32/30 3/33/31
f 16/29/27 26/34/32 40/35/33 39/30/28
f 39/30/28 40/35/33 25/36/34 15/32/30
f 2/37/35 10/38/36 42/39/37 41/40/38
f 9/41/39 1/42/40 41/40/38 42/39/37
f 10/38/36 20/43/41 43/44/42 42/39/37
f 42/39/37 43/44/42 19/45/43 9/41/39
f 43/44/42 44/46/44 68/47/45 19/45/43
f 20/43/41 67/48/46 44/46/44 43/44/42
f 41/40/38 46/49/47 85/50/48 2/37/35
f 1/42/40 86/51/49 46/49/47 41/40/38
f 40/35/33 47/52/50 62/53/51 25/36/34
f 26/34/32 61/54/52 47/52/50 40/35/33
f 38/31/29 49/55/53 83/56/54 4/28/23
f 3/33/31 84/57/55 49/55/53 38/31/29
f 24/25/24 63/58/56 50/59/57 37/26/25
f 37/26/25 50/59/57 64/60/58 23/27/26
f 35/22/21 52/61/59 82/62/60 5/19/18
f 4/24/23 83/63/54 52/61/59 35/22/21
f 34/17/16 53/64/61 66/65/62 21/18/17
f 22/16/15 65/66/63 53/64/61 34/17/16
f 32/13/12 55/67/64 80/68/65 7/10/6
f 6/15/14 81/69/66 55/67/64 32/13/12
f 28/7/7 59/70/67 56/71/68 31/8/8
f 31/8/8 56/71/68 60/72/69 27/9/9
f 29/4/4 58/73/70 79/74/71 8/1/1
f 7/6/6 80/75/65 58/73/70 29/4/4
f 18/2/2 69/76/72 59/70/67 28/7/7
f 27/9/9 60/72/69 70/77/73 17/5/5
f 16/29/27 71/78/74 61/54/52 26/34/32
f 25/36/34 62/53/51 72/79/75 15/32/30
f 14/20/19 73/80/76 63/58/56 24/25/24
f 23/27/26 64/60/58 74/81/77 13/23/22
f 12/11/10 75/82/78 65/66/63 22/16/15
f 21/18/17 66/65/62 76/83/79 11/14/13
f 10/38/36 77/84/80 67/48/46 20/43/41
f 19/45/43 68/47/45 78/85/81 9/41/39
f 8/1/1 79/86/71 69/76/72 18/2/2
f 17/5/5 70/77/73 80/87/65 7/6/6
f 4/28/23 83/88/54 71/78/74 16/29/27
f 15/32/30 72/79/75 84/89/55 3/33/31
f 5/19/18 82/90/60 73/80/76 14/20/19
f 13/23/22 74/81/77 83/91/54 4/24/23
f 7/10/6 80/92/65 75/82/78 12/11/10
f 11/14/13 76/83/79 81/93/66 6/15/14
f 2/37/35 85/94/48 77/84/80 10/38/36
f 86/95/49 1/42/40 9/41/39 78/85/81
f 86/96/49 1/97/40 8/98/1 79/99/71
f 6/100/14 81/101/66 82/102/60 5/103/18
f 3/104/31 84/105/55 85/99/48 2/106/35
f 57/107/82 69/108/72 79/109/71 58/110/70
f 70/111/73 57/107/82 58/110/70 80/112/65
f 56/113/68 59/114/67 69/108/72 57/107/82
f 60/115/69 56/113/68 57/107/82 70/111/73
f 54/116/83 75/117/78 80/118/65 55/119/64
f 76/120/79 54/116/83 55/119/64 81/121/66
f 53/122/61 65/123/63 75/117/78 54/116/83
f 66/124/62 53/122/61 54/116/83 76/120/79
f 51/125/84 73/126/76 82/127/60 52/128/59
f 74/129/77 51/125/84 52/128/59 83/130/54
f 50/131/57 63/132/56 73/126/76 51/125/84
f 64/133/58 50/131/57 51/125/84 74/129/77
f 48/134/85 71/135/74 83/136/54 49/137/53
f 72/138/75 48/134/85 49/137/53 84/139/55
f 47/140/50 61/141/52 71/135/74 48/134/85
f 62/142/51 47/140/50 48/134/85 72/138/75
f 45/143/86 77/144/80 85/145/48 46/146/47
f 78/147/81 45/143/86 46/146/47 86/148/49
f 44/149/44 67/150/46 77/144/80 45/143/86
f 68/151/45 44/149/44 45/143/86 78/147/81
o Tube
v 0.176777 0.176777 0.000000
v 0.250000 -0.000000 0.000000
v 0.176777 -0.176777 0.000000
v -0.000000 -0.250000 0.000000
v -0.176777 -0.176777 0.000000
v -0.250000 0.000000 0.000000
v -0.176777 0.176777 0.000000
v -0.000000 0.250000 0.000000
v 0.049870 1.222527 2.947640
v 0.070527 1.187445 2.978999
v 0.049870 1.152653 3.010369
v 0.000000 1.138334 3.023367
v -0.049870 1.152653 3.010369
v -0.070527 1.187445 2.978999
v -0.049870 1.222527 2.947640
v 0.000000 1.237136 2.934654
v 0.205132 0.002040 0.750090
v 0.160263 0.103388 1.527758
v 0.115395 0.534005 2.255038
v 0.145050 0.146432 0.750240
v 0.113323 0.211823 1.522456
v 0.081597 0.612742 2.233627
v 0.145050 -0.142816 0.750021
v 0.113323 -0.005508 1.531942
v 0.081597 0.455267 2.276449
v 0.000000 -0.202897 0.750021
v 0.000000 -0.050747 1.533391
v 0.000000 0.422653 2.285317
v -0.145050 -0.142816 0.750021
v -0.113323 -0.005508 1.531942
v -0.081597 0.455267 2.276449
v -0.205132 0.002040 0.750090
v -0.160263 0.103388 1.527758
v -0.115395 0.534005 2.255038
v -0.145050 0.146432 0.750240
v -0.113323 0.211823 1.522456
v -0.081597 0.612742 2.233627
v 0.000000 0.206098 0.750297
v 0.000000 0.256602 1.519890
v 0.000000 0.645356 2.224758
vt 0.130896 0.052435
vt 0.135425 0.251799
vt 0.103208 0.251246
vt 0.093272 0.054324
vt 0.138777 0.477136
vt 0.113023 0.468570
vt 0.144410 0.727396
vt 0.121609 0.716830
vt 0.146861 0.947353
vt 0.126147 0.946963
vt 0.071135 0.252176
vt 0.055231 0.058285
vt 0.088029 0.461378
vt 0.097886 0.706655
vt 0.103790 0.947124
vt 0.040023 0.256229
vt 0.017671 0.064532
vt 0.062711 0.460679
vt 0.073243 0.703209
vt 0.079680 0.947542
vt 0.318333 0.065232
vt 0.295457 0.256822
vt 0.264357 0.252625
vt 0.280790 0.058810
vt 0.272212 0.461165
vt 0.246893 0.461747
vt 0.261018 0.703646
vt 0.236366 0.706977
vt 0.253910 0.947949
vt 0.229802 0.947418
vt 0.232287 0.251546
vt 0.242760 0.054672
vt 0.221879 0.468823
vt 0.212615 0.717041
vt 0.207446 0.947154
vt 0.200069 0.251949
vt 0.205142 0.052607
vt 0.196101 0.477269
vt 0.189785 0.727501
vt 0.186731 0.947447
vt 0.167746 0.252153
vt 0.168020 0.052050
vt 0.167435 0.480584
vt 0.167091 0.731897
vt 0.166795 0.947950
vn 0.705252 0.706534 0.058443
vn 0.693045 0.720756 0.012726
vn 0.998230 0.002228 0.059053
vn 0.998199 0.000244 0.059816
vn 0.669454 0.716605 -0.195624
vn 0.998474 0.008698 0.054323
vn 0.673696 0.619282 -0.403180
vn 0.998779 0.016114 0.046602
vn 0.688864 0.565905 -0.452956
vn 0.998901 0.021455 0.041566
vn 0.689993 -0.715781 0.107395
vn 0.705679 -0.705802 0.061769
vn 0.662679 -0.689901 0.291299
vn 0.657369 -0.582873 0.477584
vn 0.676870 -0.518571 0.522355
vn 0.000000 -0.992035 0.125828
vn 0.000000 -0.998016 0.062655
vn 0.000000 -0.931059 0.364818
vn 0.000000 -0.784906 0.619587
vn 0.000000 -0.717368 0.696677
vn -0.689993 -0.715781 0.107395
vn -0.705679 -0.705802 0.061769
vn -0.662679 -0.689901 0.291299
vn -0.657369 -0.582873 0.477584
vn -0.676870 -0.518571 0.522355
vn -0.998230 0.002228 0.059053
vn -0.998199 0.000244 0.059816
vn -0.998474 0.008698 0.054323
vn -0.998779 0.016114 0.046602
vn -0.998901 0.021455 0.041566
vn -0.693045 0.720756 0.012726
vn -0.705252 0.706534 0.058443
vn -0.669454 0.716605 -0.195624
vn -0.673696 0.619282 -0.403180
vn -0.688864 0.565905 -0.452956
vn 0.000000 0.999969 -0.003876
vn 0.000000 0.998291 0.058107
vn 0.000000 0.960906 -0.276803
vn 0.000000 0.826258 -0.563250
vn 0.000000 0.768426 -0.639912
usemtl None_tropicaltree.png
s 1
f 87/152/87 106/153/88 103/154/89 88/155/90
f 106/153/88 107/156/91 104/157/92 103/154/89
f 107/156/91 108/158/93 105/159/94 104/157/92
f 108/158/93 95/160/95 96/161/96 105/159/94
f 88/155/90 103/154/89 109/162/97 89/163/98
f 103/154/89 104/157/92 110/164/99 109/162/97
f 104/157/92 105/159/94 111/165/100 110/164/99
f 105/159/94 96/161/96 97/166/101 111/165/100
f 89/163/98 109/162/97 112/167/102 90/168/103
f 109/162/97 110/164/99 113/169/104 112/167/102
f 110/164/99 111/165/100 114/170/105 113/169/104
f 111/165/100 97/166/101 98/171/106 114/170/105
f 90/172/103 112/173/102 115/174/107 91/175/108
f 112/173/102 113/176/104 116/177/109 115/174/107
f 113/176/104 114/178/105 117/179/110 116/177/109
f 114/178/105 98/180/106 99/181/111 117/179/110
f 91/175/108 115/174/107 118/182/112 92/183/113
f 115/174/107 116/177/109 119/184/114 118/182/112
f 116/177/109 117/179/110 120/185/115 119/184/114
f 117/179/110 99/181/111 100/186/116 120/185/115
f 92/183/113 118/182/112 121/187/117 93/188/118
f 118/182/112 119/184/114 122/189/119 121/187/117
f 119/184/114 120/185/115 123/190/120 122/189/119
f 120/185/115 100/186/116 101/191/121 123/190/120
f 93/188/118 121/187/117 124/192/122 94/193/123
f 121/187/117 122/189/119 125/194/124 124/192/122
f 122/189/119 123/190/120 126/195/125 125/194/124
f 123/190/120 101/191/121 102/196/126 126/195/125
f 106/153/88 87/152/87 94/193/123 124/192/122
f 124/192/122 125/194/124 107/156/91 106/153/88
f 125/194/124 126/195/125 108/158/93 107/156/91
f 126/195/125 102/196/126 95/160/95 108/158/93
