# Blender3D v249 OBJ File: warehouse-door.blend
# www.blender3d.org
mtllib warehouse-door.mtl
o Plane.003_Plane.001
v -1.040723 0.558238 0.000000
v -1.040723 -0.558238 0.000000
v -1.040723 -0.558238 1.893400
v -1.040723 0.558238 1.893400
v -0.944578 0.558238 1.893400
v -0.944578 -0.558238 1.893400
v -0.944578 -0.558238 0.000000
v -0.944578 0.558238 0.000000
vt 0.000000 1.000000
vt 0.000000 0.000000
vt 1.000000 0.000000
vt 1.000000 1.000000
vn 0.000000 0.707083 -0.707083
vn 0.000000 0.707083 0.707083
vn 0.577349 0.577349 0.577349
vn 0.577349 0.577349 -0.577349
vn 0.000000 -0.707083 0.707083
vn 0.000000 -0.707083 -0.707083
vn 0.577349 -0.577349 -0.577349
vn 0.577349 -0.577349 0.577349
usemtl None_darkdeck.png
s 1
f 1/1/1 4/2/2 5/3/3 8/4/4
f 3/1/5 2/2/6 7/3/7 6/4/8
f 2/1/6 1/2/1 8/3/4 7/4/7
f 4/1/2 3/2/5 6/3/8 5/4/3
f 6/1/8 7/2/7 8/3/4 5/4/3
