# Blender3D v249 OBJ File: warehouse-wall.blend
# www.blender3d.org
mtllib warehouse-wall.mtl
o Plane
v -1.000000 -1.000000 5.000000
v -1.000000 1.000000 5.000000
v -1.000000 -1.000000 0.100000
v -1.000000 1.000000 0.100000
v -0.980000 1.000000 0.100000
v -0.980000 -1.000000 0.100000
v -0.980000 1.000000 0.000000
v -0.980000 -1.000000 0.000000
vt 0.373603 0.914485
vt 0.373603 0.095613
vt 0.502782 0.088648
vt 0.502782 0.907520
vt 0.631280 0.916099
vt 0.631280 0.097227
vt 0.068428 0.979253
vt 0.068428 0.020747
vt 0.937391 0.020747
vt 0.937391 0.979253
vn 0.000000 0.000000 1.000000
vn 1.000000 -0.000000 0.000001
vn 1.000000 -0.000000 -0.000000
usemtl None_warehousewood.png
s off
f 4/1/1 3/2/1 6/3/1 5/4/1
f 7/5/2 5/4/2 6/3/2 8/6/2
usemtl None_warehousewall.png
f 1/7/3 3/8/3 4/9/3 2/10/3
